<?xml version="1.0" standalone="no"?>
<!DOCTYPE svg PUBLIC "-//W3C//DTD SVG 20010904//EN"
 "http://www.w3.org/TR/2001/REC-SVG-20010904/DTD/svg10.dtd">
<svg version="1.0" xmlns="http://www.w3.org/2000/svg"
 width="1200.000000pt" height="382.000000pt" viewBox="0 0 1200.000000 382.000000"
 preserveAspectRatio="xMidYMid meet">

<g transform="translate(0.000000,382.000000) scale(0.100000,-0.100000)"
fill="#000000" stroke="none">
<path d="M506 3566 c-18 -15 -19 -28 -13 -281 l6 -265 -66 0 c-83 0 -131 -22
-198 -90 -49 -50 -50 -51 -35 -78 l16 -27 141 -3 142 -3 8 -42 c8 -39 11 -42
43 -45 19 -2 39 -8 44 -13 6 -5 22 -9 37 -9 15 0 31 -5 35 -11 4 -8 9 -7 15 2
6 11 11 11 21 1 14 -14 88 -16 88 -2 0 7 165 10 475 10 468 0 475 0 475 -20 0
-18 7 -20 80 -20 73 0 80 2 80 20 0 20 7 20 549 20 412 0 550 3 553 12 3 7 10
8 17 4 10 -6 10 -10 2 -16 -7 -3 -9 -14 -5 -23 5 -14 20 -17 72 -17 41 0 71
-5 81 -14 22 -19 182 -44 326 -51 221 -10 299 -15 535 -35 435 -37 440 -38
595 -81 183 -51 260 -54 407 -16 113 29 118 32 118 59 0 21 3 21 156 14 119
-4 161 -3 172 7 13 9 14 9 8 0 -5 -9 0 -13 16 -12 13 0 51 -3 85 -7 47 -5 67
-3 80 7 14 12 15 12 9 0 -7 -11 -1 -13 28 -9 20 2 36 0 36 -4 0 -4 38 -8 85
-8 100 0 96 8 65 -133 -89 -398 -291 -785 -566 -1080 -124 -134 -378 -347
-420 -353 -8 -1 -21 -8 -29 -14 -11 -9 -2 -29 52 -113 113 -175 376 -568 384
-573 14 -8 39 8 39 25 0 10 39 50 90 90 50 40 90 75 90 77 0 2 -8 1 -17 -3
-10 -3 -15 -3 -11 1 3 4 13 8 21 10 30 4 174 120 170 136 -2 5 5 11 15 14 10
4 63 52 118 109 179 184 356 409 332 423 -6 4 -8 3 -4 -4 3 -6 3 -13 -2 -16
-4 -2 -9 8 -10 23 -2 21 4 31 22 39 18 8 26 8 28 0 5 -13 96 129 161 252 110
204 217 481 277 717 6 23 15 45 20 48 10 6 12 -4 36 -187 12 -91 21 -128 30
-128 14 0 13 16 -5 147 l-8 51 41 6 c23 3 65 9 94 12 52 7 53 7 47 35 -5 22
-3 29 9 29 8 0 17 -9 21 -20 8 -24 52 -60 74 -60 9 0 3 8 -16 20 -18 11 -35
30 -38 42 -3 13 -2 85 2 161 8 127 7 137 -9 137 -10 0 -18 5 -18 10 0 13 49
13 312 -2 l217 -11 10 -26 c27 -74 17 -146 -35 -224 l-27 -42 33 30 c54 51 84
113 90 185 l5 65 39 3 39 3 -7 -120 c-7 -130 -15 -163 -49 -200 -41 -44 -74
-51 -229 -46 l-143 4 135 -10 c74 -5 149 -7 166 -4 47 8 110 58 125 99 l13 35
35 -19 c20 -10 46 -29 58 -42 22 -24 100 -204 163 -378 21 -58 62 -168 90
-245 51 -138 51 -141 44 -222 -8 -98 -13 -93 136 -118 l95 -15 121 54 c66 30
132 58 147 61 36 9 43 25 51 112 5 66 3 78 -30 165 -33 86 -111 308 -154 438
-31 96 -32 128 -5 217 14 45 25 86 24 90 -1 4 -1 29 0 56 l1 47 53 0 c28 0
113 5 187 11 l135 12 215 -51 c118 -28 305 -72 414 -98 296 -69 320 -78 1381
-514 297 -122 588 -242 646 -265 l107 -44 98 8 c185 16 180 4 160 399 -13 242
-33 653 -40 823 -2 56 -68 166 -112 188 -49 25 -182 27 -1029 14 -904 -15
-873 -12 -1036 -82 l-96 -42 -154 40 c-85 22 -236 62 -337 90 -213 59 -315 81
-372 81 -33 0 -40 3 -40 19 0 10 -16 33 -35 50 -19 17 -35 33 -35 37 0 14 -52
54 -62 48 -6 -4 -8 -2 -5 3 7 11 -53 63 -71 63 -6 0 -13 7 -16 16 -4 9 -13 14
-22 10 -8 -3 -13 -2 -10 3 6 10 -74 104 -82 97 -2 -3 -15 8 -29 25 -14 16 -30
29 -36 28 -8 0 -8 -2 1 -6 6 -2 9 -9 6 -14 -8 -14 -34 9 -28 24 3 8 -16 13
-61 15 -63 3 -73 -1 -57 -24 8 -12 83 -35 119 -37 12 0 20 -3 18 -5 -2 -3 21
-23 53 -45 31 -21 75 -59 97 -83 30 -32 44 -42 53 -34 7 5 6 3 -2 -6 -12 -14
-11 -22 10 -63 19 -36 25 -67 29 -139 3 -51 7 -97 10 -102 3 -4 1 -10 -4 -12
-9 -3 -49 -107 -54 -137 -1 -7 -13 -26 -27 -41 -14 -15 -43 -49 -64 -75 -50
-59 -156 -129 -216 -142 -56 -11 -137 -1 -186 23 -56 28 -55 44 1 44 35 0 51
6 70 25 33 32 34 60 3 50 -13 -4 -39 -9 -58 -12 -33 -4 -34 -3 -16 11 11 9 35
16 54 16 32 0 33 1 27 29 -4 21 -3 29 7 27 26 -4 40 -19 64 -70 13 -28 24 -44
24 -36 0 9 -9 33 -20 55 -11 22 -20 45 -20 53 0 7 -4 11 -8 8 -4 -2 -9 7 -10
20 -1 15 2 23 8 19 6 -4 7 -12 4 -18 -5 -9 -4 -9 6 -1 7 7 9 21 5 33 -6 20
-37 28 -84 22 -8 -2 -10 2 -6 9 4 7 2 16 -4 20 -8 4 -10 17 -5 34 5 21 9 24
20 16 20 -18 59 -8 59 14 0 31 -28 41 -63 23 -19 -9 -34 -11 -38 -6 -3 5 10
16 28 23 18 8 32 18 31 23 -2 4 2 9 7 9 6 1 15 2 21 3 25 3 -4 19 -31 17 -16
-1 -30 1 -30 4 0 3 50 6 110 6 96 -1 110 1 110 16 0 16 -14 19 -35 7 -5 -4
-32 -5 -60 -4 -27 1 -65 3 -84 4 -24 1 -32 5 -28 15 9 23 -32 27 -44 4 -6 -11
-17 -17 -25 -14 -8 3 -37 1 -65 -4 -50 -10 -94 -1 -70 14 6 4 11 1 11 -6 1 -7
11 0 24 16 15 17 34 29 53 30 16 2 34 5 39 9 6 3 36 7 67 9 74 4 74 18 0 19
-187 4 -358 0 -361 -9 -2 -6 18 -9 50 -7 29 2 44 1 33 -2 -11 -2 -26 -12 -34
-21 -13 -16 -13 -16 -8 1 4 9 2 17 -3 17 -15 0 -23 -41 -10 -54 9 -8 14 -8 17
0 12 34 28 44 58 35 l30 -9 -33 -1 c-25 -1 -35 -7 -42 -27 -7 -18 -15 -24 -26
-20 -8 3 -12 2 -9 -3 3 -6 -3 -15 -12 -21 -16 -10 -16 -11 2 -5 26 9 36 9 59
-1 12 -4 17 -4 13 2 -3 5 3 10 14 10 25 0 24 -3 -11 -21 -27 -14 -30 -14 -39
3 -6 9 -11 12 -11 6 0 -15 -67 -12 -67 3 0 7 7 13 16 13 14 1 14 2 -1 14 -18
14 -25 32 -9 21 5 -3 12 -1 16 5 11 17 -16 11 -42 -10 -15 -11 -29 -18 -32
-14 -3 3 2 11 12 19 16 12 16 13 0 26 -15 12 -16 12 -11 -2 7 -19 -9 -39 -31
-39 -13 1 -13 2 1 11 10 5 18 17 18 26 0 11 -4 13 -12 5 -8 -5 -22 -6 -33 -1
-19 7 -19 8 1 8 12 1 24 8 28 16 3 8 13 15 22 15 9 0 25 11 36 25 11 14 24 25
29 25 13 0 121 62 116 66 -2 2 -28 -9 -57 -25 -30 -16 -57 -28 -61 -26 -3 3
-38 6 -78 7 -66 2 -88 10 -58 21 6 2 10 7 6 10 -3 4 -30 -10 -60 -30 -52 -34
-91 -66 -60 -48 10 5 12 4 7 -4 -4 -6 -12 -9 -17 -5 -5 3 -35 -8 -67 -24 -65
-34 -201 -82 -229 -81 -10 0 7 8 37 18 78 27 181 70 205 88 19 14 18 14 -15 9
l-35 -6 35 16 c19 9 45 17 58 18 13 2 30 10 39 19 15 15 15 17 0 23 -9 3 -38
-1 -64 -10 -71 -24 -75 -18 -9 15 78 41 61 57 -24 24 -89 -35 -97 -30 -17 11
37 19 67 38 67 43 0 5 -8 15 -17 22 -9 8 -14 9 -10 3 6 -10 -101 -70 -109 -61
-3 2 21 21 52 41 40 27 53 41 46 48 -8 8 -15 8 -24 1 -21 -16 -134 -77 -123
-66 15 15 98 79 114 88 10 6 12 4 6 -5 -6 -9 -4 -11 4 -5 10 6 9 11 -3 23 -14
14 -22 11 -88 -32 l-73 -48 65 60 c36 33 61 64 57 68 -4 5 -14 4 -22 -1 -7 -6
-37 -27 -67 -49 -47 -34 -50 -35 -28 -10 14 16 37 41 53 55 15 14 27 29 27 32
0 19 -33 2 -81 -40 -29 -26 -47 -39 -42 -28 6 11 21 29 32 39 26 23 27 36 3
36 -10 0 -31 -16 -47 -35 -15 -20 -30 -33 -32 -31 -3 3 5 18 17 33 20 26 20
28 4 32 -10 2 -25 -7 -35 -20 -10 -13 -19 -19 -19 -13 0 5 5 15 12 22 9 9 6
12 -15 12 -15 0 -27 -6 -27 -12 0 -10 -2 -10 -8 -2 -8 14 -142 20 -334 16
l-128 -2 0 -52 c0 -38 -3 -49 -10 -38 -9 13 -10 13 -10 0 0 -8 -11 -37 -25
-64 -30 -59 -31 -72 -7 -85 14 -9 13 -10 -10 -11 -18 0 -28 -5 -28 -14 0 -8
-5 -18 -11 -22 -8 -4 -9 1 -4 17 5 19 4 21 -4 9 -6 -8 -11 -24 -11 -35 0 -11
-5 -27 -10 -35 -32 -49 56 236 92 296 l20 34 -72 0 c-68 0 -72 -1 -59 -17 13
-17 13 -17 -7 0 -11 9 -28 17 -38 17 -15 0 -15 -4 5 -32 l22 -33 -34 33 c-19
17 -43 32 -53 32 -15 0 -13 -6 13 -35 45 -52 38 -56 -12 -7 -40 40 -67 53 -67
33 0 -4 10 -19 23 -32 48 -51 50 -62 4 -25 -65 52 -82 34 -22 -24 35 -34 48
-41 57 -32 7 7 27 12 46 12 28 0 32 -3 23 -14 -6 -7 -25 -16 -42 -20 -25 -5
-40 1 -85 36 -41 30 -58 38 -66 30 -11 -11 -7 -16 61 -69 30 -23 1 -13 -40 14
-28 18 -43 23 -50 16 -8 -8 1 -19 28 -39 61 -44 62 -48 5 -20 -48 24 -72 27
-72 8 0 -4 20 -18 45 -31 57 -30 53 -38 -6 -12 -24 11 -47 17 -51 15 -15 -10
-8 -22 22 -34 34 -14 53 -35 24 -27 -60 18 -74 19 -74 4 0 -9 15 -21 36 -27
49 -16 36 -24 -15 -9 -35 10 -40 15 -35 33 11 40 83 153 129 204 39 43 43 52
27 52 -42 0 -153 -165 -209 -310 -10 -24 -10 -24 -15 -2 -4 12 -2 20 3 16 9
-5 10 -2 13 32 1 19 -184 97 -209 88 -22 -9 -54 5 -37 15 9 5 -14 19 -65 41
-43 18 -105 45 -138 60 -33 15 -70 31 -83 35 -13 4 -22 9 -20 11 4 4 37 -7
376 -125 111 -39 202 -68 202 -66 0 9 -385 198 -415 204 -23 5 -31 13 -33 32
l-3 26 -99 -1 c-54 -1 -101 2 -105 6 -4 3 -2 16 5 27 10 19 19 21 125 21 l115
0 0 35 c0 19 -4 35 -10 35 -5 0 -10 -6 -10 -14 0 -14 -79 -26 -175 -26 -45 0
-55 4 -69 26 -22 32 -66 30 -81 -3 -8 -20 -17 -23 -65 -23 -30 0 -100 5 -154
10 -81 8 -103 7 -115 -4 -10 -9 -47 -15 -95 -18 -75 -3 -80 -5 -106 -37 -23
-27 -34 -32 -63 -30 -20 2 -39 0 -43 -3 -4 -4 -16 -1 -28 7 -17 13 -97 15
-517 15 -272 0 -499 -3 -503 -7 -11 -11 -50 -10 -59 2 -5 6 -7 3 -4 -7 3 -9 3
-19 0 -22 -9 -9 -12 -66 -3 -61 5 3 11 1 15 -5 4 -6 11 -7 17 -4 7 4 8 2 4 -5
-6 -9 -11 -9 -22 0 -11 9 -14 8 -14 -2 0 -12 -2 -12 -9 0 -7 11 -10 11 -15 0
-3 -8 -3 -3 0 10 4 16 2 21 -5 17 -7 -5 -8 -1 -4 9 5 14 8 14 15 3 7 -9 8 -7
5 9 -3 13 -1 26 4 29 5 3 7 10 3 15 -3 5 -15 -2 -26 -16 -17 -22 -47 -37 -34
-17 2 4 -2 16 -9 26 -12 16 -22 17 -86 10 -66 -8 -74 -11 -80 -34 -4 -14 -7
-21 -8 -16 -1 5 -10 1 -21 -9 -18 -16 -19 -20 -5 -28 8 -4 13 -13 10 -18 -4
-5 -10 -7 -15 -4 -4 3 -13 -2 -20 -10 -7 -8 -17 -15 -23 -15 -6 0 -3 6 6 13
10 6 19 23 22 37 2 14 14 32 25 42 24 19 25 28 5 28 -9 0 -18 -7 -21 -15 -4
-8 -12 -15 -19 -15 -8 0 -17 -4 -20 -10 -3 -5 0 -7 8 -4 11 4 13 -1 10 -19 -3
-13 -11 -24 -18 -24 -7 0 -11 5 -9 11 3 8 -111 10 -398 8 -222 -2 -404 -5
-406 -7 -2 -2 -2 -20 0 -41 l3 -39 23 35 24 35 -6 -49 c-3 -27 -6 -55 -6 -63
0 -11 -14 -13 -62 -11 l-63 3 -3 44 c-2 24 2 49 7 54 8 8 11 5 11 -10 0 -38
17 -34 39 8 l21 40 -46 -3 -46 -3 -23 -60 c-67 -173 -98 -199 -292 -246 -29
-7 -53 -16 -53 -21 0 -4 -189 -8 -420 -8 l-420 0 0 21 c0 12 -16 47 -35 79
-19 32 -35 60 -35 63 0 2 -24 47 -54 98 l-55 93 6 82 c6 81 6 82 -22 100 -38
24 -182 31 -209 10z m4614 -92 c0 -11 -5 -14 -16 -10 -9 3 -23 6 -32 7 -10 1
-7 4 8 9 37 12 40 11 40 -6z m-1726 -46 c-5 -8 -1 -9 12 -4 14 5 16 4 7 -5 -6
-6 -16 -8 -22 -5 -14 9 -14 26 0 26 5 0 7 -5 3 -12z m-184 -28 c0 -5 -2 -10
-4 -10 -3 0 -8 5 -11 10 -3 6 -1 10 4 10 6 0 11 -4 11 -10z m184 -11 c-8 -14
-24 -10 -24 6 0 9 6 12 15 9 8 -4 12 -10 9 -15z m-224 7 c0 -3 -4 -8 -10 -11
-5 -3 -10 -1 -10 4 0 6 5 11 10 11 6 0 10 -2 10 -4z m947 -22 c5 -14 -45 -25
-53 -13 -9 15 7 30 29 27 11 -2 22 -8 24 -14z m423 7 c0 -5 -10 -11 -22 -15
-36 -9 -41 -7 -28 9 13 16 50 21 50 6z m-1314 -20 c-18 -19 -61 -37 -50 -20 3
5 12 9 20 9 8 0 17 7 20 15 4 8 11 15 17 15 5 0 2 -9 -7 -19z m1941 -46 c-11
-35 -23 -63 -25 -60 -4 3 25 100 35 118 13 22 9 0 -10 -58z m-2010 23 c-3 -7
-5 -2 -5 12 0 14 2 19 5 13 2 -7 2 -19 0 -25z m3355 -2 c-3 -5 0 -6 6 -2 6 4
9 13 5 21 -3 8 0 15 6 15 6 0 11 -12 10 -27 -1 -33 -17 -77 -19 -53 -1 10 -4
9 -10 -5 -12 -27 -12 -43 0 -25 8 12 10 10 10 -11 0 -14 -11 -36 -25 -49 -27
-26 -37 -83 -10 -60 8 6 17 22 21 33 10 33 117 172 122 158 3 -9 7 -9 18 0 22
18 26 5 14 -41 -14 -53 -8 -60 24 -24 13 16 27 26 31 22 10 -10 -16 -130 -36
-163 -23 -36 -24 -27 -4 22 8 19 15 43 15 51 0 24 -29 -18 -30 -43 0 -11 -5
-27 -10 -35 -7 -11 -9 -6 -6 19 1 18 15 48 30 67 40 50 31 63 -14 19 -45 -44
-46 -44 -25 15 20 56 20 77 1 61 -11 -9 -15 -9 -18 0 -2 7 -22 -12 -43 -41
-49 -66 -51 -68 -67 -105 -17 -38 -42 -39 -46 -3 -2 17 4 34 18 48 12 12 20
24 17 26 -12 13 -47 -52 -47 -87 0 -41 -8 -47 -51 -41 l-28 4 34 33 c28 26 35
40 35 69 0 25 9 49 26 72 15 19 24 37 21 41 -13 12 -64 -57 -70 -94 -9 -53
-34 -88 -53 -72 -8 6 -14 20 -14 30 0 26 20 67 36 73 19 7 17 -1 -6 -26 -20
-22 -28 -68 -11 -68 16 0 34 30 34 56 0 30 58 120 75 117 7 -2 11 0 11 5 -4
25 1 33 15 20 8 -7 11 -17 8 -22z m-3222 14 c0 -5 -8 -10 -17 -10 -15 0 -16 2
-3 10 19 12 20 12 20 0z m1655 -10 c-28 -12 -37 -12 -30 0 3 6 16 10 28 9 21
0 21 -1 2 -9z m-1628 -7 c-4 -3 -1 -13 6 -22 11 -14 10 -14 -5 -2 -16 12 -16
31 -1 31 4 0 3 -3 0 -7z m-112 -13 c-3 -5 -12 -10 -18 -10 -7 0 -6 4 3 10 19
12 23 12 15 0z m172 -12 c-3 -8 -6 -5 -6 6 -1 11 2 17 5 13 3 -3 4 -12 1 -19z
m411 -5 c-2 -22 -9 -29 -31 -31 -18 -2 -29 2 -33 12 -11 28 4 46 36 46 28 0
31 -3 28 -27z m-698 8 c0 -4 -9 -20 -20 -34 -18 -23 -19 -25 -3 -32 15 -5 15
-7 3 -15 -21 -13 -32 20 -13 41 7 9 13 20 12 25 -3 16 1 24 11 24 6 0 10 -4
10 -9z m193 -8 c-7 -2 -19 -2 -25 0 -7 3 -2 5 12 5 14 0 19 -2 13 -5z m-239
-11 c3 -5 -1 -9 -9 -9 -8 0 -12 4 -9 9 3 4 7 8 9 8 2 0 6 -4 9 -8z m516 -62
l0 -40 -40 0 c-39 0 -40 1 -40 33 0 19 3 37 7 40 3 4 21 7 40 7 32 0 33 -1 33
-40z m3059 -12 c-7 -23 -19 -51 -28 -61 -13 -16 -13 -17 2 -11 24 9 21 -9 -4
-24 -12 -8 -18 -9 -14 -3 10 18 -7 12 -22 -6 -14 -17 -14 -17 -8 2 3 11 9 34
12 50 6 30 61 110 70 101 2 -2 -1 -24 -8 -48z m-3509 32 c0 -5 -2 -10 -4 -10
-3 0 -8 5 -11 10 -3 6 -1 10 4 10 6 0 11 -4 11 -10z m94 3 c-5 -5 -11 -12 -15
-16 -3 -4 -12 -1 -19 8 -11 13 -9 15 15 15 16 0 24 -3 19 -7z m58 -6 c-6 -7
-12 -44 -14 -82 l-3 -70 -5 83 c-5 75 -3 82 14 82 14 0 16 -3 8 -13z m128 -9
c0 -6 -6 -5 -15 2 -8 7 -15 14 -15 16 0 2 7 1 15 -2 8 -4 15 -11 15 -16z m330
-17 c0 -39 1 -40 38 -43 35 -3 37 -5 37 -38 0 -33 -2 -35 -32 -35 -38 0 -40
-3 -15 -21 14 -11 -16 -13 -193 -12 -115 1 -194 3 -175 5 19 3 39 9 45 14 5 5
73 9 152 9 l143 0 0 40 c0 25 -5 40 -12 41 -7 0 -26 2 -43 2 -23 2 -31 7 -33
25 -6 41 5 52 48 52 40 0 40 0 40 -39z m1635 24 c39 -17 21 -18 -25 0 -19 7
-28 14 -20 14 8 0 29 -6 45 -14z m-878 -1 c-3 -3 -12 -4 -19 -1 -8 3 -5 6 6 6
11 1 17 -2 13 -5z m660 -26 c-3 -8 -6 -5 -6 6 -1 11 2 17 5 13 3 -3 4 -12 1
-19z m478 -34 c99 -24 189 -49 200 -54 30 -15 -33 -3 -138 27 -132 37 -123 23
13 -21 66 -22 118 -41 116 -44 -7 -7 -416 132 -416 141 0 5 10 6 23 3 12 -4
103 -27 202 -52z m-2288 24 c-3 -8 -6 -5 -6 6 -1 11 2 17 5 13 3 -3 4 -12 1
-19z m1473 12 c0 -11 -42 -30 -63 -30 -16 1 34 39 51 40 6 0 12 -5 12 -10z
m-630 -10 c0 -5 -5 -10 -11 -10 -5 0 -7 5 -4 10 3 6 8 10 11 10 2 0 4 -4 4
-10z m-3383 -57 c19 -30 32 -61 29 -69 -4 -11 -30 -14 -121 -14 l-115 0 0 60
c0 41 4 61 14 67 8 4 47 9 86 9 l72 1 35 -54z m2610 25 c-3 -7 -5 -2 -5 12 0
14 2 19 5 13 2 -7 2 -19 0 -25z m1573 12 c0 -5 -8 -10 -17 -10 -15 0 -16 2 -3
10 19 12 20 12 20 0z m173 -11 c5 -3 2 -9 -7 -12 -12 -5 -16 0 -16 15 0 12 3
17 8 12 4 -5 11 -12 15 -15z m1102 11 c-3 -5 -16 -10 -28 -10 -18 0 -19 2 -7
10 20 13 43 13 35 0z m-85 -14 c0 -2 -7 -6 -15 -10 -8 -3 -15 -1 -15 4 0 6 7
10 15 10 8 0 15 -2 15 -4z m-866 -21 c-4 -8 -14 -15 -23 -14 -10 0 -11 2 -3 6
6 2 10 9 6 14 -3 5 2 9 10 9 10 0 13 -6 10 -15z m181 -16 c60 -11 66 -13 42
-20 -31 -8 -167 19 -167 34 0 5 12 6 28 3 15 -3 59 -11 97 -17z m735 11 c0 -5
-8 -10 -17 -10 -15 0 -16 2 -3 10 19 12 20 12 20 0z m-920 -30 c0 -5 -7 -10
-16 -10 -8 0 -12 5 -9 10 3 6 10 10 16 10 5 0 9 -4 9 -10z m-2401 -9 c94 -4
136 -10 139 -18 3 -10 -16 -13 -71 -13 l-74 0 1 -27 1 -28 -327 -3 -328 -2 -6
26 c-4 14 -2 36 5 50 l11 24 257 -1 c142 -1 318 -4 392 -8z m2694 2 c-7 -2
-19 -2 -25 0 -7 3 -2 5 12 5 14 0 19 -2 13 -5z m-46 -9 c-3 -3 -12 -4 -19 -1
-8 3 -5 6 6 6 11 1 17 -2 13 -5z m96 -1 c-7 -2 -19 -2 -25 0 -7 3 -2 5 12 5
14 0 19 -2 13 -5z m1237 -3 c0 -5 -7 -10 -15 -10 -8 0 -15 5 -15 10 0 6 7 10
15 10 8 0 15 -4 15 -10z m-2442 -17 c3 -10 -41 -13 -200 -12 -111 1 -189 4
-173 6 17 3 34 9 40 14 15 15 327 7 333 -8z m1249 11 c-3 -3 -12 -4 -19 -1 -8
3 -5 6 6 6 11 1 17 -2 13 -5z m50 -10 c-3 -3 -12 -4 -19 -1 -8 3 -5 6 6 6 11
1 17 -2 13 -5z m158 -24 c-4 -12 -9 -19 -12 -17 -3 3 -2 15 2 27 4 12 9 19 12
17 3 -3 2 -15 -2 -27z m700 20 c-3 -5 -12 -10 -18 -10 -7 0 -6 4 3 10 19 12
23 12 15 0z m68 -18 c-3 -12 -9 -22 -14 -22 -5 0 -3 11 3 25 13 30 20 28 11
-3z m857 25 c0 -12 -68 -43 -97 -45 -25 -2 -31 1 -27 13 4 8 1 15 -5 15 -6 0
-10 -6 -8 -12 1 -9 -14 -14 -43 -16 l-45 -3 23 23 c19 22 32 24 112 27 49 1
90 0 90 -2z m-1863 -13 c-3 -3 -12 -4 -19 -1 -8 3 -5 6 6 6 11 1 17 -2 13 -5z
m130 0 c-3 -3 -12 -4 -19 -1 -8 3 -5 6 6 6 11 1 17 -2 13 -5z m613 2 c0 -2 3
-11 6 -19 4 -11 -2 -17 -18 -20 -21 -4 -21 -4 4 -6 35 -1 48 -36 21 -56 -17
-14 -17 -14 7 -15 23 -1 23 -2 5 -9 -22 -9 -73 2 -89 20 -8 8 -5 9 13 4 16 -5
21 -4 17 4 -8 13 -65 14 -85 2 -7 -5 -11 -13 -7 -19 3 -6 2 -13 -4 -17 -27
-17 -1 80 32 123 9 11 98 18 98 8z m60 -25 c0 -5 -9 -7 -20 -4 -11 3 -20 12
-20 20 0 11 4 11 20 3 11 -6 20 -15 20 -19z m108 9 c10 -17 10 -20 -6 -20 -24
0 -32 8 -25 26 7 19 16 18 31 -6z m452 10 c0 -5 -8 -10 -17 -10 -15 0 -16 2
-3 10 19 12 20 12 20 0z m-1707 -7 c-7 -2 -19 -2 -25 0 -7 3 -2 5 12 5 14 0
19 -2 13 -5z m-2242 -12 c6 10 9 8 9 -9 0 -28 -24 -25 -27 4 -2 11 0 14 3 5 5
-11 8 -11 15 0z m2384 -2 c5 -7 -8 -8 -41 -3 -64 9 -68 14 -11 14 25 0 49 -5
52 -11z m278 4 c-7 -2 -19 -2 -25 0 -7 3 -2 5 12 5 14 0 19 -2 13 -5z m217 -3
c18 -12 2 -12 -25 0 -13 6 -15 9 -5 9 8 0 22 -4 30 -9z m-417 -7 c-7 -2 -21
-2 -30 0 -10 3 -4 5 12 5 17 0 24 -2 18 -5z m244 1 c-3 -3 -12 -4 -19 -1 -8 3
-5 6 6 6 11 1 17 -2 13 -5z m-2515 -39 c3 -30 1 -35 -16 -35 -16 0 -17 3 -8
12 7 7 12 22 12 35 0 35 7 28 12 -12z m653 5 c0 -8 -10 -16 -22 -18 -18 -3
-23 2 -23 18 0 16 5 21 23 18 12 -2 22 -10 22 -18z m108 13 c-7 -2 -21 -2 -30
0 -10 3 -4 5 12 5 17 0 24 -2 18 -5z m1835 -14 c13 0 13 -2 -3 -8 -26 -11 -36
-5 -28 16 4 11 8 13 11 5 2 -7 11 -12 20 -13z m607 1 c14 0 27 -51 16 -63 -4
-4 -14 -1 -21 8 -9 11 -9 15 -1 15 8 0 7 7 -3 22 -9 12 -16 27 -15 33 0 5 3 4
6 -2 2 -7 11 -13 18 -13z m83 -9 c1 -13 10 -34 20 -45 16 -20 16 -20 0 -7 -10
7 -18 9 -18 4 0 -6 -11 -8 -25 -5 -16 3 -25 11 -25 24 0 11 -4 27 -9 37 -8 14
-5 17 23 17 27 0 32 -4 34 -25z m96 5 c-4 -19 0 -28 20 -42 15 -9 24 -19 21
-22 -3 -3 -16 5 -30 18 -24 23 -32 50 -18 63 11 12 14 8 7 -17z m582 -1 c-17
-13 -33 -22 -36 -20 -3 2 -12 0 -20 -6 -11 -6 -12 -9 -2 -9 7 0 10 -4 7 -10
-9 -14 8 -13 23 2 9 9 12 9 12 0 0 -6 7 -9 15 -6 8 4 15 10 15 16 0 5 -6 6
-12 2 -7 -4 -4 2 6 14 22 25 25 24 32 -12 4 -23 1 -26 -23 -27 -87 -5 -101 -4
-93 6 4 5 8 15 8 20 0 9 78 55 92 54 3 0 -8 -11 -24 -24z m81 18 c-4 -3 -2
-12 5 -20 13 -17 4 -28 -17 -20 -21 9 -20 47 2 47 9 0 13 -3 10 -7z m103 -3
c-8 -5 -19 -10 -25 -10 -5 0 -3 5 5 10 8 5 20 10 25 10 6 0 3 -5 -5 -10z m325
0 c3 -6 -1 -7 -9 -4 -18 7 -21 14 -7 14 6 0 13 -4 16 -10z m-2659 -36 c-6 -21
-10 -24 -19 -14 -9 10 -9 14 1 17 6 3 12 12 12 21 0 8 3 13 6 9 4 -3 3 -18 0
-33z m697 29 c-7 -2 -21 -2 -30 0 -10 3 -4 5 12 5 17 0 24 -2 18 -5z m157 -9
c0 -2 -11 -4 -25 -4 -14 0 -25 4 -25 9 0 4 11 6 25 3 14 -2 25 -6 25 -8z m321
-11 c-8 -15 -10 -15 -11 -2 0 17 10 32 18 25 2 -3 -1 -13 -7 -23z m349 11 c8
-3 20 -16 26 -29 10 -20 9 -24 -7 -28 -13 -4 -26 4 -39 23 -23 32 -26 55 -7
46 6 -3 19 -8 27 -12z m-3401 -16 c12 -16 11 -18 -7 -18 -15 0 -19 5 -15 20 3
12 6 19 7 18 1 -2 8 -11 15 -20z m1906 -182 c0 -113 -1 -204 -2 -202 -9 8 -24
303 -19 350 14 107 21 55 21 -148z m-282 177 c-2 -11 28 -17 100 -17 l57 0 0
-41 c0 -77 -12 -133 -29 -139 -9 -3 -22 -9 -30 -12 -9 -5 -12 -2 -7 7 4 8 1 5
-8 -5 -8 -10 -13 -23 -10 -27 3 -5 0 -9 -5 -9 -6 0 -11 -7 -11 -16 0 -9 5 -12
13 -8 9 6 9 4 1 -7 -6 -8 -14 -22 -17 -32 -6 -15 -3 -17 15 -11 20 6 21 5 9
-9 -7 -9 -18 -14 -24 -10 -5 3 -7 1 -3 -5 3 -5 -10 -20 -29 -32 -33 -21 -37
-21 -60 -6 -14 9 -25 21 -25 27 0 6 -4 8 -9 4 -17 -10 -83 96 -95 150 -10 50
-17 146 -11 164 4 12 18 16 65 16 43 0 64 5 77 18 17 17 40 18 36 0z m874 11
c-3 -3 -12 -4 -19 -1 -8 3 -5 6 6 6 11 1 17 -2 13 -5z m-2184 -28 c-10 -13
-20 -22 -22 -20 -4 4 29 44 36 44 2 0 -4 -11 -14 -24z m2240 17 c-7 -2 -19 -2
-25 0 -7 3 -2 5 12 5 14 0 19 -2 13 -5z m-2366 -25 c-3 -8 -6 -5 -6 6 -1 11 2
17 5 13 3 -3 4 -12 1 -19z m1941 15 c-10 -2 -28 -2 -40 0 -13 2 -5 4 17 4 22
1 32 -1 23 -4z m479 1 c-3 -3 -12 -4 -19 -1 -8 3 -5 6 6 6 11 1 17 -2 13 -5z
m2700 -9 c9 -25 -6 -30 -23 -9 -15 18 -15 18 -11 -3 5 -24 -7 -31 -18 -13 -8
14 13 40 32 40 7 0 16 -7 20 -15z m-2542 -20 c6 -2 -9 -4 -31 -4 -27 -1 -44 4
-47 13 -5 11 1 12 31 4 20 -5 42 -11 47 -13z m98 18 c-7 -2 -19 -2 -25 0 -7 3
-2 5 12 5 14 0 19 -2 13 -5z m158 -65 c-17 -15 -27 -28 -22 -28 5 0 23 13 40
29 l32 30 11 -25 11 -24 43 25 c23 14 57 25 74 25 28 0 30 -2 20 -20 -6 -11
-29 -32 -51 -46 -39 -24 -48 -52 -16 -46 11 2 15 -2 11 -13 -4 -9 -1 -15 7
-15 11 0 11 -3 -1 -10 -8 -5 -41 -10 -72 -10 -33 0 -58 -4 -58 -10 0 -6 -11
-3 -25 6 -14 9 -22 21 -18 28 4 6 -1 5 -10 -3 -15 -12 -17 -12 -12 1 3 8 -3
23 -15 33 -29 27 -25 41 21 67 29 16 42 31 47 53 6 28 7 29 10 5 3 -18 -5 -32
-27 -52z m900 58 c-7 -8 -21 -14 -32 -13 -25 2 -24 6 4 17 33 13 41 12 28 -4z
m189 0 c-7 -7 -14 -6 -21 1 -9 9 -7 12 9 10 14 -1 18 -5 12 -11z m80 -6 c-8
-5 -17 -7 -19 -4 -3 3 1 9 9 14 8 5 17 7 19 4 3 -3 -1 -9 -9 -14z m310 10 c0
-5 -9 -10 -21 -10 -11 0 -17 5 -14 10 3 6 13 10 21 10 8 0 14 -4 14 -10z
m-2085 -10 c27 -7 28 -8 5 -8 -14 -1 -43 3 -65 7 l-40 9 35 0 c19 0 49 -4 65
-8z m213 -22 l-3 -33 -65 -1 -65 -1 65 6 65 7 -50 7 c-27 4 -68 12 -90 17 -35
8 -33 8 20 4 33 -3 73 -7 89 -10 21 -5 27 -3 24 7 -3 9 -29 16 -74 20 l-69 5
78 2 78 2 -3 -32z m79 -18 c20 0 33 -3 29 -7 -4 -4 -23 -8 -42 -8 -33 0 -34 1
-32 35 1 30 2 31 5 8 4 -25 9 -28 40 -28z m1443 46 c0 -2 -7 -7 -16 -10 -8 -3
-12 -2 -9 4 6 10 25 14 25 6z m-3730 -16 c0 -5 -8 -10 -17 -10 -15 0 -16 2 -3
10 19 12 20 12 20 0z m1450 -4 c0 -8 -4 -18 -10 -21 -5 -3 -10 3 -10 14 0 12
5 21 10 21 6 0 10 -6 10 -14z m2800 -25 c0 -32 -24 -61 -33 -39 -4 10 -8 10
-16 -2 -9 -13 -11 -12 -11 4 0 11 -5 16 -14 13 -10 -4 -12 0 -8 15 4 18 3 19
-17 9 -12 -7 -19 -16 -16 -22 4 -5 -2 -9 -12 -10 -10 0 -26 -2 -35 -4 -11 -2
-16 3 -15 16 1 10 3 16 5 14 3 -2 10 2 17 9 7 7 37 14 66 15 29 1 55 4 58 6
14 15 31 2 31 -24z m-2609 -4 c-6 -6 -18 -12 -26 -13 -11 -2 -13 2 -5 17 6 11
16 16 26 12 11 -4 12 -9 5 -16z m1229 19 c0 -11 -19 -15 -25 -6 -3 5 1 10 9
10 9 0 16 -2 16 -4z m46 -8 c-4 7 -1 12 8 12 19 0 21 -21 4 -39 -11 -10 -10
-11 5 -6 11 5 17 2 18 -6 1 -8 3 -24 4 -37 1 -12 -2 -25 -8 -29 -6 -3 -7 -1
-3 5 4 7 3 12 -2 12 -6 0 -8 10 -5 23 4 13 2 19 -3 14 -5 -5 -10 -13 -10 -18
-1 -5 -2 -15 -3 -21 -2 -12 -30 75 -31 96 0 5 8 2 17 -5 11 -10 14 -10 9 -1z
m59 2 c3 -5 2 -10 -4 -10 -5 0 -13 5 -16 10 -3 6 -2 10 4 10 5 0 13 -4 16 -10z
m275 -2 c-30 -4 -80 -6 -110 -3 -30 2 -49 2 -42 -1 6 -3 12 -13 12 -22 0 -14
-2 -14 -9 -3 -5 8 -16 11 -25 8 -9 -4 -16 -2 -16 4 0 6 -4 7 -10 4 -5 -3 -18
0 -29 7 -15 11 5 13 133 14 114 0 137 -2 96 -8z m130 2 c0 -5 -11 -12 -25 -16
-14 -3 -25 -10 -25 -15 0 -5 -4 -9 -9 -9 -5 0 -7 9 -4 19 4 17 13 22 56 30 4
0 7 -3 7 -9z m116 -5 c-25 -19 -56 -19 -56 -2 0 9 13 14 38 15 34 1 36 0 18
-13z m59 5 c3 -5 -1 -10 -10 -10 -9 0 -19 -9 -22 -20 -6 -21 -23 -28 -23 -8 0
13 29 48 41 48 4 0 11 -4 14 -10z m60 0 c3 -5 2 -10 -4 -10 -5 0 -13 5 -16 10
-3 6 -2 10 4 10 5 0 13 -4 16 -10z m135 -10 c0 -24 -31 -42 -51 -29 -12 8 -12
10 0 18 8 5 21 7 30 4 13 -4 13 -3 2 5 -16 12 -51 4 -51 -12 0 -6 -14 -11 -30
-12 -17 -1 -30 3 -30 7 0 15 55 38 93 39 30 0 37 -4 37 -20z m30 16 c0 -3 -4
-8 -10 -11 -5 -3 -10 -1 -10 4 0 6 5 11 10 11 6 0 10 -2 10 -4z m100 -7 c0 -6
-8 -8 -19 -4 -12 3 -21 0 -25 -10 -3 -8 -10 -15 -16 -15 -14 0 -13 27 3 33 22
10 57 7 57 -4z m-3524 -35 c27 -24 28 -134 2 -134 -7 0 -9 19 -6 50 5 53 -3
63 -24 30 -16 -25 -31 -26 -24 -2 3 9 -1 28 -9 42 l-13 25 -11 -28 c-6 -16 -9
-32 -6 -37 3 -5 1 -11 -5 -15 -5 -3 -10 -2 -10 2 0 5 -9 14 -20 20 -18 12 -19
10 -13 -37 5 -43 3 -50 -9 -45 -18 7 -33 78 -18 83 6 2 10 10 10 19 0 36 69
65 115 48 17 -5 35 -15 41 -21z m271 18 l43 -4 -6 -57 c-8 -69 -21 -104 -34
-96 -5 3 -15 3 -22 -1 -8 -5 -6 -9 6 -14 15 -5 13 -9 -11 -30 -15 -14 -21 -17
-14 -7 12 15 12 17 -3 11 -14 -5 -16 2 -16 55 0 48 3 61 15 61 8 0 15 5 15 10
0 6 -7 10 -15 10 -10 0 -15 10 -15 30 0 17 -4 30 -10 30 -5 0 -10 -12 -10 -26
0 -15 -8 -33 -17 -40 -17 -13 -17 -13 0 -14 15 0 17 -10 16 -72 0 -54 -3 -67
-9 -50 -5 12 -7 28 -4 36 7 17 -8 27 -24 17 -13 -8 -6 -41 9 -41 5 0 9 -5 9
-11 0 -8 -6 -7 -17 2 -29 24 -53 91 -53 150 l0 56 29 -5 c16 -2 37 1 48 7 10
6 25 8 33 4 8 -4 34 -8 57 -11z m1287 -21 c-9 -10 -26 18 -18 30 5 9 9 8 14
-7 4 -10 6 -21 4 -23z m2366 29 c0 -5 -5 -10 -11 -10 -5 0 -7 5 -4 10 3 6 8
10 11 10 2 0 4 -4 4 -10z m-3429 -40 c22 0 22 0 3 -19 -19 -18 -20 -18 -52 13
-33 31 -33 31 -10 37 16 4 25 0 30 -13 4 -10 17 -18 29 -18z m29 16 c0 -2 -9
-2 -20 1 -11 3 -20 9 -20 15 0 5 9 4 20 -2 11 -6 20 -12 20 -14z m2423 7 c-4
-9 -8 -13 -10 -7 -2 5 -20 9 -41 7 -29 -2 -33 -1 -17 6 11 5 32 10 47 10 22 1
26 -2 21 -16z m-2913 -13 c0 -11 -2 -20 -4 -20 -2 0 -6 9 -9 20 -3 11 -1 20 4
20 5 0 9 -9 9 -20z m363 7 c7 -8 43 -46 81 -85 39 -39 67 -75 63 -78 -6 -6
-158 147 -165 167 -5 13 8 11 21 -4z m170 6 c-7 -2 -19 -2 -25 0 -7 3 -2 5 12
5 14 0 19 -2 13 -5z m527 -34 c0 -24 -4 -38 -10 -34 -17 10 -11 75 7 75 2 0 3
-18 3 -41z m1438 -34 l-3 -30 -13 38 c-16 44 -7 89 9 47 6 -13 9 -38 7 -55z
m117 65 c3 -6 -1 -7 -9 -4 -18 7 -21 14 -7 14 6 0 13 -4 16 -10z m570 0 c-3
-5 -11 -10 -16 -10 -6 0 -7 5 -4 10 3 6 11 10 16 10 6 0 7 -4 4 -10z m480 0
c-3 -5 -14 -10 -24 -10 -9 0 -23 -6 -30 -12 -11 -11 -12 -10 -6 0 6 12 39 30
58 31 5 1 5 -3 2 -9z m1163 -15 c-3 -3 -9 2 -12 12 -6 14 -5 15 5 6 7 -7 10
-15 7 -18z m-3373 -7 c7 -8 3 -9 -15 -4 -14 3 -56 7 -95 7 l-70 2 55 7 c64 9
110 4 125 -12z m-2085 8 c0 -2 -8 -10 -17 -17 -16 -13 -17 -12 -4 4 13 16 21
21 21 13z m5100 -6 c0 -5 -7 -10 -15 -10 -8 0 -15 5 -15 10 0 6 7 10 15 10 8
0 15 -4 15 -10z m-3986 -169 c-5 -5 -136 135 -147 158 -5 9 28 -22 72 -69 44
-47 78 -87 75 -89z m1193 162 c-20 -2 -52 -2 -70 0 -17 2 0 4 38 4 39 0 53 -2
32 -4z m133 -13 c0 -17 -6 -20 -37 -18 -37 1 -37 1 -5 5 19 3 32 10 32 19 0 8
2 14 5 14 3 0 5 -9 5 -20z m800 16 c0 -3 -4 -8 -10 -11 -5 -3 -10 -1 -10 4 0
6 5 11 10 11 6 0 10 -2 10 -4z m-700 -18 c-30 -6 -58 -15 -62 -22 -9 -14 -10
-3 -2 18 5 12 20 16 63 15 l56 -1 -55 -10z m1085 2 c23 -3 -44 -23 -85 -26
-97 -7 -124 -6 -128 5 -2 6 -8 9 -13 5 -5 -3 -19 -2 -32 3 -18 6 -14 8 23 13
37 4 194 4 235 0z m91 -2 c-28 -16 -91 -29 -78 -16 6 6 25 14 44 18 47 11 56
11 34 -2z m179 -9 c-3 -4 6 -2 19 5 14 7 38 11 54 8 23 -3 29 -8 25 -23 -3
-10 -10 -16 -15 -13 -17 11 -119 13 -144 4 -21 -9 -44 3 -27 13 5 2 1 2 -7 0
-8 -3 -33 -6 -54 -7 -31 -3 -35 -1 -20 7 10 6 31 13 46 16 39 8 129 1 123 -10z
m525 11 c0 -5 -12 -10 -27 -9 -25 0 -26 1 -8 9 27 12 35 12 35 0z m838 -19
c-2 -9 -15 -17 -31 -19 -21 -3 -27 1 -27 17 0 20 24 31 48 23 7 -3 12 -12 10
-21z m177 19 c-3 -5 -12 -10 -18 -10 -7 0 -6 4 3 10 19 12 23 12 15 0z m-2109
-15 c17 -13 16 -14 -13 -6 -26 8 -33 6 -36 -7 -3 -12 -5 -10 -6 6 -1 26 25 30
55 7z m711 9 c-3 -3 -12 -4 -19 -1 -8 3 -5 6 6 6 11 1 17 -2 13 -5z m102 3
c-2 -2 -11 -8 -20 -15 -12 -9 -16 -9 -16 1 0 7 9 14 20 14 11 1 18 1 16 0z
m61 -1 c0 -3 -4 -8 -10 -11 -5 -3 -10 -1 -10 4 0 6 5 11 10 11 6 0 10 -2 10
-4z m24 -11 c-4 -8 -8 -15 -10 -15 -2 0 -4 7 -4 15 0 8 4 15 10 15 5 0 7 -7 4
-15z m53 -5 c-27 -22 -37 -25 -37 -12 0 5 10 14 23 20 35 17 42 14 14 -8z m72
11 c9 -6 10 -11 2 -15 -6 -4 -18 0 -27 8 -12 12 -12 16 -2 16 7 0 19 -4 27 -9z
m117 -2 c4 -7 1 -10 -7 -7 -8 3 -19 -2 -25 -10 -9 -12 -13 -12 -19 -2 -5 8 -4
11 2 7 6 -4 13 0 17 8 6 18 22 20 32 4z m1175 -6 c13 -16 12 -17 -3 -4 -10 7
-18 15 -18 17 0 8 8 3 21 -13z m-5286 -13 c10 -11 16 -20 13 -20 -3 0 -13 9
-23 20 -10 11 -16 20 -13 20 3 0 13 -9 23 -20z m781 -37 c-10 -10 -36 18 -36
40 0 18 2 17 21 -7 12 -15 19 -30 15 -33z m-935 30 c13 -16 12 -17 -3 -4 -10
7 -18 15 -18 17 0 8 8 3 21 -13z m60 -6 c-10 -9 -11 -8 -5 6 3 10 9 15 12 12
3 -3 0 -11 -7 -18z m905 -15 c-6 -37 -12 -49 -22 -39 -4 4 -1 13 6 22 10 13
10 19 -3 33 -15 16 -15 18 4 18 18 0 20 -5 15 -34z m1162 31 c-10 -2 -26 -2
-35 0 -10 3 -2 5 17 5 19 0 27 -2 18 -5z m-3968 -10 c0 -5 3 -18 6 -31 l6 -22
-473 2 c-442 3 -474 4 -477 21 -3 14 5 17 52 17 31 0 56 5 56 10 0 12 830 14
830 3z m1160 -3 c0 -5 22 -10 48 -10 53 0 63 -5 55 -26 -4 -12 -92 -14 -549
-14 -299 0 -544 2 -544 4 0 2 3 11 6 20 5 14 29 16 159 16 92 0 156 4 160 10
4 6 127 10 336 10 213 0 329 -4 329 -10z m2708 3 c-10 -2 -26 -2 -35 0 -10 3
-2 5 17 5 19 0 27 -2 18 -5z m-1238 -18 c7 -9 8 -15 2 -15 -5 0 -12 7 -16 15
-3 8 -4 15 -2 15 2 0 9 -7 16 -15z m1553 3 c-41 -7 -53 -14 -53 -28 0 -15 7
-17 48 -14 47 4 37 -3 -30 -20 -27 -6 -28 -5 -28 32 l0 39 58 0 57 1 -52 -10z
m-2183 -13 c7 -9 8 -15 2 -15 -5 0 -12 7 -16 15 -3 8 -4 15 -2 15 2 0 9 -7 16
-15z m1705 5 c-11 -5 -56 -8 -100 -8 -77 1 -78 2 -25 8 85 10 149 10 125 0z
m263 3 c-21 -2 -57 -2 -80 0 -24 2 -7 4 37 4 44 0 63 -2 43 -4z m876 -8 c-4
-8 -10 -15 -15 -15 -4 0 -6 -8 -3 -17 5 -15 4 -15 -5 -3 -7 11 -6 19 6 32 20
22 24 23 17 3z m777 -7 c-28 -22 -186 -108 -200 -108 -6 0 -24 14 -41 30 -22
22 -40 30 -65 30 -19 0 -35 5 -35 10 0 6 -4 10 -10 10 -5 0 -7 -6 -4 -14 7
-18 -48 -28 -103 -17 -33 6 -40 5 -36 -5 3 -9 15 -12 32 -9 15 3 9 -1 -13 -10
-27 -10 -43 -12 -50 -5 -5 5 -15 10 -20 10 -6 0 -5 -4 3 -9 10 -7 6 -11 -17
-16 -23 -5 -40 0 -72 20 -25 16 -38 30 -34 38 4 7 3 9 -1 4 -11 -10 -55 32
-49 47 3 8 105 11 370 11 347 1 365 0 345 -17z m72 16 c7 -7 -48 -64 -87 -89
-46 -30 -22 -26 39 7 32 17 83 39 114 49 31 10 48 18 39 18 -25 1 -23 21 2 21
11 0 20 -4 20 -9 0 -4 42 -8 93 -8 62 1 107 -5 137 -16 29 -11 34 -15 15 -11
-16 3 -73 8 -126 11 -136 7 -217 -18 -370 -117 -61 -40 -86 -50 -74 -30 6 10
-56 6 -92 -6 -26 -7 -12 24 15 35 32 12 128 65 192 106 25 16 48 28 53 27 4
-1 7 3 7 8 0 11 13 13 23 4z m381 0 c27 -10 18 -25 -11 -18 -46 11 -62 23 -31
24 14 0 33 -3 42 -6z m3176 -4 c0 -5 -9 -10 -21 -10 -11 0 -17 5 -14 10 3 6
13 10 21 10 8 0 14 -4 14 -10z m-5160 -43 c0 -18 -4 -27 -8 -21 -4 6 -14 14
-22 17 -11 4 -11 6 4 6 13 1 17 6 13 21 -3 11 -1 18 4 14 5 -3 9 -20 9 -37z
m1645 33 c-3 -5 -16 -15 -28 -21 -19 -9 -19 -8 3 10 28 23 34 26 25 11z m1039
-12 c-1 -13 -3 -26 -3 -30 -1 -5 -17 -8 -36 -8 -32 0 -35 2 -35 30 0 28 2 30
38 30 34 0 38 -3 36 -22z m-3560 -10 c-14 -46 -37 -84 -42 -68 -3 7 0 16 7 18
6 2 9 8 5 13 -3 5 0 9 5 9 6 0 11 11 11 25 0 14 5 25 11 25 6 0 8 -9 3 -22z
m839 15 c-7 -2 -19 -2 -25 0 -7 3 -2 5 12 5 14 0 19 -2 13 -5z m3557 -9 c0 -2
-12 -4 -26 -4 -14 0 -23 4 -20 9 6 8 46 4 46 -5z m900 7 c0 -11 -25 -21 -51
-21 -21 0 -26 16 -6 23 21 9 57 7 57 -2z m-6215 -11 c-3 -5 -1 -10 4 -10 6 0
11 -5 11 -11 0 -8 -5 -8 -15 1 -13 11 -12 30 1 30 3 0 2 -4 -1 -10z m388 -19
c30 -33 37 -53 9 -28 -15 13 -21 14 -32 4 -10 -9 -11 -9 -6 1 4 6 2 12 -3 12
-6 0 -11 5 -11 11 0 8 6 7 17 -2 14 -12 16 -12 11 1 -3 8 -15 14 -27 13 -11
-2 -21 2 -21 7 0 20 36 9 63 -19z m1320 22 c-7 -2 -19 -2 -25 0 -7 3 -2 5 12
5 14 0 19 -2 13 -5z m-813 -13 c0 -5 -5 -10 -11 -10 -5 0 -7 5 -4 10 3 6 8 10
11 10 2 0 4 -4 4 -10z m753 3 c-7 -2 -19 -2 -25 0 -7 3 -2 5 12 5 14 0 19 -2
13 -5z m-1733 -14 c0 -5 -4 -7 -10 -4 -9 6 -14 -8 -11 -28 1 -5 -3 -6 -9 -2
-6 3 -8 10 -5 15 6 10 -31 24 -44 15 -5 -3 -12 -1 -16 5 -4 6 13 10 44 10 29
0 51 -5 51 -11z m1115 -29 c3 -18 2 -30 -2 -27 -3 4 -7 21 -9 38 -2 18 -1 30
2 27 3 -3 7 -20 9 -38z m558 33 c-7 -2 -19 -2 -25 0 -7 3 -2 5 12 5 14 0 19
-2 13 -5z m1107 -66 c13 -10 19 -17 13 -17 -6 0 -31 19 -55 43 -24 23 -30 30
-14 16 17 -14 42 -33 56 -42z m-1163 57 c-3 -3 -12 -4 -19 -1 -8 3 -5 6 6 6
11 1 17 -2 13 -5z m191 -1 c-10 -2 -26 -2 -35 0 -10 3 -2 5 17 5 19 0 27 -2
18 -5z m-392 -19 c-4 -11 -1 -14 12 -11 43 12 88 16 100 8 8 -5 -16 -11 -65
-15 -43 -4 -96 -9 -118 -12 -32 -4 -36 -3 -17 5 12 6 22 15 22 20 0 10 21 18
54 20 13 1 16 -4 12 -15z m302 9 c-10 -2 -26 -2 -35 0 -10 3 -2 5 17 5 19 0
27 -2 18 -5z m891 -23 c11 -24 11 -24 -3 -6 -9 11 -16 24 -16 30 0 12 5 7 19
-24z m-1519 16 c0 -2 -7 -7 -16 -10 -8 -3 -12 -2 -9 4 6 10 25 14 25 6z m543
-3 c-7 -2 -19 -2 -25 0 -7 3 -2 5 12 5 14 0 19 -2 13 -5z m214 1 c-3 -3 -12
-4 -19 -1 -8 3 -5 6 6 6 11 1 17 -2 13 -5z m527 0 c28 -11 17 -30 -26 -49
l-43 -18 40 -6 c22 -4 50 -13 62 -19 45 -25 136 -184 126 -221 -3 -12 -2 -21
3 -19 15 5 15 -11 -1 -42 -19 -37 -29 -39 -21 -4 5 18 3 24 -5 18 -8 -4 -9 -3
-5 5 4 6 11 9 15 6 17 -10 3 72 -19 115 -54 108 -110 150 -197 150 -18 0 -33
5 -33 10 0 6 -5 9 -11 8 -6 -2 -14 3 -16 10 -3 7 1 11 9 10 8 -2 14 8 16 25 3
25 7 27 47 27 24 0 50 -3 59 -6z m2209 -18 c-10 -13 -20 -22 -22 -20 -4 4 29
44 36 44 2 0 -4 -11 -14 -24z m-2780 7 c-7 -2 -13 -11 -13 -18 0 -13 -21 -25
-46 -25 -23 0 2 38 28 43 32 6 45 6 31 0z m124 -15 c-3 -8 -6 -5 -6 6 -1 11 2
17 5 13 3 -3 4 -12 1 -19z m59 -16 c-10 -10 -29 15 -21 28 6 9 10 8 17 -4 6
-10 7 -20 4 -24z m272 13 c-3 -3 -9 2 -12 12 -6 14 -5 15 5 6 7 -7 10 -15 7
-18z m487 -37 c-39 -12 -45 -9 -45 28 l0 36 33 -29 c31 -26 32 -28 12 -35z
m-849 -16 c-3 -3 -6 2 -6 11 0 22 -3 22 -89 -8 -41 -14 -75 -24 -78 -22 -2 3
21 13 51 22 31 10 56 23 56 31 0 7 12 17 28 22 25 8 28 6 35 -21 5 -16 6 -32
3 -35z m4098 62 c26 -10 7 -24 -32 -24 -35 1 -36 2 -18 15 22 17 27 18 50 9z
m-5234 -68 c0 -5 -9 3 -21 18 -11 14 -25 24 -30 21 -10 -7 -12 8 -2 19 7 7 52
-42 53 -58z m304 44 c-12 -12 -16 -13 -23 -1 -11 17 -25 -3 -15 -21 5 -10 4
-10 -6 -1 -18 17 3 41 35 39 22 -1 23 -3 9 -16z m-404 0 c0 -5 -2 -10 -4 -10
-3 0 -8 5 -11 10 -3 6 -1 10 4 10 6 0 11 -4 11 -10z m1027 4 c-3 -3 -12 -4
-19 -1 -8 3 -5 6 6 6 11 1 17 -2 13 -5z m3853 -14 c-20 -13 -40 -13 -40 0 0 6
12 10 28 10 21 0 24 -2 12 -10z m-4467 -15 c-3 -9 -8 -14 -10 -11 -3 3 -2 9 2
15 9 16 15 13 8 -4z m644 9 c-3 -3 -12 -4 -19 -1 -8 3 -5 6 6 6 11 1 17 -2 13
-5z m233 -20 c0 -8 5 -14 12 -14 9 0 9 -3 0 -12 -14 -14 -17 -11 -26 25 -4 19
-3 26 4 22 5 -3 10 -13 10 -21z m1120 22 c0 -2 -7 -9 -15 -16 -13 -11 -14 -10
-9 4 5 14 24 23 24 12z m1490 -6 c0 -5 -2 -10 -4 -10 -3 0 -8 5 -11 10 -3 6
-1 10 4 10 6 0 11 -4 11 -10z m-2893 -6 c-3 -3 -12 -4 -19 -1 -8 3 -5 6 6 6
11 1 17 -2 13 -5z m-687 -31 c-12 -16 -24 -27 -26 -25 -3 2 -14 -7 -25 -20
l-19 -23 17 32 c10 18 23 33 29 33 6 0 17 7 24 15 22 27 22 16 0 -12z m564 19
c5 -8 -214 -55 -221 -48 -3 2 175 49 209 55 4 0 9 -3 12 -7z m73 2 c-3 -3 -12
-4 -19 -1 -8 3 -5 6 6 6 11 1 17 -2 13 -5z m3410 -19 c-26 -23 -77 -35 -77
-17 0 13 54 41 80 41 l25 0 -28 -24z m2654 -36 c-20 -58 -78 -179 -86 -179 -3
0 8 26 24 58 15 31 39 85 51 120 13 34 24 61 26 59 2 -2 -4 -28 -15 -58z
m-5804 45 c-3 -3 -12 -4 -19 -1 -8 3 -5 6 6 6 11 1 17 -2 13 -5z m5118 -4 c3
-6 -4 -10 -17 -10 -18 0 -20 2 -8 10 19 12 18 12 25 0z m-6297 -20 c-7 -10
-14 -17 -17 -15 -4 4 18 35 25 35 2 0 -1 -9 -8 -20z m355 0 c-7 -27 -28 -43
-50 -37 -14 4 -13 5 5 6 14 1 26 10 32 26 11 30 20 33 13 5z m784 14 c-3 -3
-12 -4 -19 -1 -8 3 -5 6 6 6 11 1 17 -2 13 -5z m73 -2 c0 -5 -6 -9 -12 -9 -7
0 -22 -4 -33 -7 -13 -5 -12 -2 5 8 29 17 40 20 40 8z m1200 -7 c0 -8 -6 -16
-12 -17 -7 0 -20 -2 -28 -3 -8 -1 -24 3 -35 9 -19 9 -18 11 10 17 50 11 65 10
65 -6z m-2317 -15 c3 -11 3 -20 1 -20 -2 0 -8 9 -14 20 -6 11 -7 20 -2 20 6 0
12 -9 15 -20z m2712 5 c-16 -7 -32 -11 -35 -9 -7 8 24 24 45 23 15 0 13 -4
-10 -14z m-2422 -10 c-3 -9 -8 -14 -10 -11 -3 3 -2 9 2 15 9 16 15 13 8 -4z
m582 5 c-27 -12 -43 -12 -25 0 8 5 22 9 30 9 10 0 8 -3 -5 -9z m102 4 c-3 -3
-12 -4 -19 -1 -8 3 -5 6 6 6 11 1 17 -2 13 -5z m1027 -7 c4 4 4 1 1 -8 -4 -10
1 -15 14 -15 15 0 17 3 9 13 -6 7 -9 13 -7 14 38 8 40 7 34 -14 -7 -22 -40
-57 -55 -57 -4 0 -18 9 -31 20 -19 15 -21 19 -7 20 12 0 15 6 10 23 -5 19 -3
20 10 10 8 -7 18 -10 22 -6z m433 -8 c-22 -11 -41 -18 -44 -15 -4 3 9 12 28
20 50 22 60 18 16 -5z m383 11 c0 -5 -7 -10 -15 -10 -8 0 -15 5 -15 10 0 6 7
10 15 10 8 0 15 -4 15 -10z m1615 1 c-15 -14 -65 -25 -65 -14 0 17 12 23 44
23 18 0 26 -4 21 -9z m-4058 -23 c-3 -8 -6 -5 -6 6 -1 11 2 17 5 13 3 -3 4
-12 1 -19z m560 16 c-3 -3 -12 -4 -19 -1 -8 3 -5 6 6 6 11 1 17 -2 13 -5z m93
-9 c-14 -8 -29 -14 -35 -14 -5 0 1 6 15 14 14 8 30 14 35 14 6 0 -1 -6 -15
-14z m160 9 c0 -8 -19 -13 -24 -6 -3 5 1 9 9 9 8 0 15 -2 15 -3z m5774 -85
c-28 -81 -111 -237 -149 -284 -14 -17 -1 11 29 60 53 89 102 195 126 268 7 21
14 36 16 34 3 -2 -7 -37 -22 -78z m-4754 55 c0 -9 5 -12 12 -8 7 4 8 3 4 -4
-12 -19 -32 -14 -32 8 0 11 4 20 8 20 4 0 8 -7 8 -16z m1980 6 c0 -5 -5 -10
-11 -10 -5 0 -7 5 -4 10 3 6 8 10 11 10 2 0 4 -4 4 -10z m1170 1 c0 -12 -29
-23 -42 -15 -6 4 -5 10 3 15 18 11 39 11 39 0z m-2990 -6 c0 -8 -132 -45 -159
-44 -14 0 1 7 34 14 33 7 71 18 85 23 28 12 40 14 40 7z m-237 -33 c-4 -10 -8
-12 -11 -4 -2 7 -8 10 -13 6 -5 -3 -14 -2 -21 2 -8 5 -6 10 8 14 27 10 44 1
37 -18z m2627 -13 l33 -12 -24 -13 c-28 -15 -129 -19 -129 -4 0 12 49 39 71
40 9 0 31 -5 49 -11z m260 -29 c0 -5 -4 -10 -10 -10 -5 0 -10 5 -10 10 0 6 5
10 10 10 6 0 10 -4 10 -10z m-3360 -100 c-46 -25 -63 -25 -25 0 17 11 37 20
45 20 8 -1 -1 -9 -20 -20z m60 5 c0 -2 -21 -18 -47 -35 l-48 -31 39 35 c35 32
56 44 56 31z m89 -52 c1 -12 -3 -25 -9 -28 -6 -4 -10 12 -9 42 0 36 3 43 9 28
5 -11 9 -30 9 -42z m1291 54 c0 -2 -10 -12 -22 -23 l-23 -19 19 23 c18 21 26
27 26 19z m2100 -27 c0 -13 -46 -24 -60 -15 -9 6 -9 10 1 16 19 12 59 11 59
-1z m-2154 -19 c-4 -5 -30 -28 -59 -51 l-52 -42 55 51 c55 51 66 59 56 42z
m3718 -13 c-16 -28 -95 -138 -100 -138 -2 0 19 34 48 75 29 41 54 75 56 75 2
0 0 -6 -4 -12z m-4704 -23 c7 -8 19 -15 26 -15 19 0 18 -15 -2 -34 -28 -29
-64 -12 -64 29 0 36 19 45 40 20z m1020 1 c0 -2 -7 -7 -16 -10 -8 -3 -12 -2
-9 4 6 10 25 14 25 6z m-70 -39 c0 -2 -10 -12 -22 -23 l-23 -19 19 23 c18 21
26 27 26 19z m-1489 -77 c21 -11 39 -22 39 -25 0 -3 -20 -2 -44 1 -37 5 -45 3
-59 -16 l-15 -22 -7 30 c-4 21 -16 34 -36 42 -48 20 -48 34 1 26 37 -6 45 -4
59 16 l16 23 3 -28 c3 -20 13 -32 43 -47z m1413 35 c-4 -8 -8 -15 -10 -15 -2
0 -4 7 -4 15 0 8 4 15 10 15 5 0 7 -7 4 -15z m466 12 c0 -2 -10 -12 -22 -23
l-23 -19 19 23 c18 21 26 27 26 19z m2948 -66 c10 -6 7 -10 -13 -15 -32 -8
-46 1 -25 14 18 12 22 12 38 1z m260 -58 c-169 -215 -211 -267 -207 -255 5 15
249 322 256 322 2 0 -19 -30 -49 -67z m162 37 c-12 -16 -24 -30 -26 -30 -3 0
4 14 16 30 12 17 24 30 26 30 3 0 -4 -13 -16 -30z m-62 -82 c-106 -131 -220
-282 -228 -301 -6 -16 -9 -17 -9 -5 -1 15 253 348 266 348 3 0 -10 -19 -29
-42z m-3548 29 c0 -2 -10 -12 -22 -23 l-23 -19 19 23 c18 21 26 27 26 19z
m-1735 -37 c-3 -15 8 -29 38 -51 l42 -30 -51 6 c-42 6 -52 4 -57 -9 -10 -24
-27 -19 -27 8 0 17 -11 31 -35 46 -19 12 -35 23 -35 26 0 2 19 1 43 -2 32 -5
46 -2 56 10 18 22 31 20 26 -4z m2145 -162 c-57 -71 -97 -161 -135 -303 -29
-111 -78 -210 -115 -234 -21 -13 -19 -9 8 23 43 49 61 92 101 236 40 143 78
223 137 289 25 28 48 51 50 51 2 0 -18 -28 -46 -62z m-2213 -14 c-4 -21 2 -30
34 -51 22 -14 38 -27 36 -29 -1 -2 -22 1 -45 7 -39 8 -45 7 -62 -13 l-19 -23
-1 32 c0 25 -7 36 -36 53 -43 27 -39 34 14 22 35 -8 44 -7 58 9 23 25 27 24
21 -7z m1804 9 c13 -16 12 -17 -3 -4 -10 7 -18 15 -18 17 0 8 8 3 21 -13z
m189 -87 c0 -2 -8 -10 -17 -17 -16 -13 -17 -12 -4 4 13 16 21 21 21 13z m3037
-38 c-3 -8 -6 -5 -6 6 -1 11 2 17 5 13 3 -3 4 -12 1 -19z m558 -46 c6 -38 12
-46 44 -59 l36 -15 -34 -12 c-29 -9 -36 -18 -46 -59 -13 -52 -25 -71 -25 -41
0 10 -5 36 -10 56 -9 30 -17 39 -43 47 l-32 8 30 12 c37 15 42 23 51 85 7 55
17 47 29 -22z m-5546 -3 c-15 -29 -29 -32 -29 -7 0 30 20 53 31 36 4 -7 3 -20
-2 -29z m-191 7 c35 -13 42 -13 53 0 17 21 27 17 22 -10 -4 -18 3 -30 31 -51
20 -15 35 -29 33 -31 -2 -2 -21 2 -43 10 -34 11 -42 11 -62 -2 -23 -15 -24
-15 -20 11 2 20 -5 33 -32 56 -40 35 -38 36 18 17z m5259 -18 c-3 -7 -5 -2 -5
12 0 14 2 19 5 13 2 -7 2 -19 0 -25z m-4879 -121 c-5 -10 -13 -15 -19 -12 -13
9 -11 39 3 53 17 17 29 -16 16 -41z m-415 -18 c18 18 30 13 23 -11 -4 -17 3
-31 26 -55 36 -37 35 -39 -16 -18 -26 11 -42 13 -56 5 -26 -14 -29 -13 -23 10
3 13 -5 33 -21 55 l-27 35 41 -16 c31 -12 44 -14 53 -5z m478 -62 c-8 -8 -11
-7 -11 4 0 20 13 34 18 19 3 -7 -1 -17 -7 -23z m-588 -78 c18 18 29 12 23 -13
-4 -15 0 -28 10 -37 8 -7 19 -20 25 -30 9 -17 7 -17 -28 -3 -28 12 -42 13 -60
5 -22 -10 -23 -9 -17 14 4 17 -2 34 -22 61 l-28 37 43 -22 c31 -16 46 -20 54
-12z m417 -49 c0 -30 -7 -48 -30 -72 l-29 -33 -1 52 c0 44 4 55 26 72 15 12
28 21 30 21 2 0 4 -18 4 -40z m-568 -81 c25 -18 34 -20 55 -10 24 11 25 10 19
-14 -5 -19 0 -37 15 -62 l23 -36 -41 22 c-33 19 -44 21 -61 12 -20 -11 -21
-10 -13 12 8 19 4 32 -15 61 -28 41 -24 45 18 15z m-66 -150 c27 12 29 9 13
-20 -8 -16 -6 -28 10 -55 28 -47 27 -49 -13 -19 -26 20 -41 24 -61 19 -25 -6
-26 -5 -15 15 9 18 8 28 -9 57 -29 48 -27 51 15 19 30 -23 39 -26 60 -16z
m434 8 c0 -22 -17 -43 -49 -62 -10 -6 -12 -1 -6 26 4 19 12 40 17 47 17 20 38
14 38 -11z m-629 -123 c18 -19 30 -24 51 -20 31 6 33 4 16 -23 -9 -15 -7 -26
10 -55 25 -42 21 -45 -20 -11 -22 18 -36 23 -55 19 -23 -6 -24 -5 -14 15 9 17
8 29 -9 61 -23 46 -15 52 21 14z m416 -86 c30 -28 29 -46 -4 -80 -31 -32 -45
-35 -64 -11 -13 15 -12 15 10 4 20 -11 26 -10 40 4 15 16 14 17 -9 11 -24 -7
-24 -6 -6 8 16 13 22 13 28 3 5 -8 8 -8 8 -1 0 6 -7 17 -15 24 -13 11 -18 10
-31 -6 -9 -10 -13 -13 -9 -6 4 8 -2 12 -16 12 -30 0 -16 13 17 16 36 4 42 13
20 30 -13 9 -15 14 -6 14 8 0 24 -10 37 -22z m-227 8 c0 -2 -8 -10 -17 -17
-16 -13 -17 -12 -4 4 13 16 21 21 21 13z m-264 -62 c27 7 27 7 12 -16 -14 -21
-14 -26 3 -60 22 -44 13 -49 -22 -12 -18 20 -30 24 -52 20 -27 -5 -27 -5 -13
16 11 15 12 26 6 39 -6 10 -15 30 -21 46 l-10 28 35 -34 c28 -28 39 -32 62
-27z m-158 -112 c23 6 30 -6 11 -18 -11 -6 -8 -38 7 -79 6 -17 2 -15 -23 8
-16 15 -39 27 -51 27 -24 0 -28 10 -10 28 9 9 9 18 0 37 -22 49 -14 62 16 25
21 -25 34 -32 50 -28z m640 -5 c12 -11 22 -24 22 -28 0 -5 -11 3 -25 17 -22
22 -53 26 -40 4 3 -4 -4 -6 -14 -3 -13 3 -21 -1 -24 -14 -4 -15 -5 -14 -6 4
-2 41 50 53 87 20z m-188 -1 c0 -2 -8 -10 -17 -17 -16 -13 -17 -12 -4 4 13 16
21 21 21 13z m36 -44 c-17 -16 -18 -16 -5 5 7 12 15 20 18 17 3 -2 -3 -12 -13
-22z m-432 -240 c21 -30 35 -56 33 -59 -6 -5 -87 111 -87 123 0 10 9 -1 54
-64z"/>
<path d="M6471 3262 c-7 -13 -11 -28 -8 -35 2 -7 9 -2 16 11 7 13 11 28 8 35
-2 7 -9 2 -16 -11z"/>
<path d="M6586 3204 c-9 -23 -7 -36 3 -30 12 8 21 46 11 46 -4 0 -11 -7 -14
-16z"/>
<path d="M5548 3183 c7 -3 16 -2 19 1 4 3 -2 6 -13 5 -11 0 -14 -3 -6 -6z"/>
<path d="M4762 2907 c-29 -30 -28 -59 3 -88 13 -13 25 -28 25 -34 0 -5 -4 -3
-10 5 -5 8 -11 12 -14 10 -8 -8 6 -60 14 -55 5 3 11 1 15 -5 3 -5 -3 -10 -14
-10 -27 0 -27 -20 0 -27 14 -4 19 -12 16 -24 -3 -12 0 -19 9 -19 8 0 14 10 14
25 0 22 3 24 19 16 10 -6 21 -7 25 -4 8 9 -14 33 -30 33 -8 0 -14 7 -14 16 0
9 6 14 13 11 8 -3 20 -1 28 5 11 8 10 9 -3 4 -13 -4 -18 0 -18 12 0 15 -2 15
-10 2 -7 -11 -10 -11 -10 -2 0 7 12 23 26 36 31 26 35 67 9 96 -24 27 -67 25
-93 -3z m69 -7 c10 -6 19 -18 18 -28 0 -12 -2 -13 -6 -3 -5 11 -7 11 -14 0 -6
-10 -9 -8 -9 9 0 12 -4 22 -8 22 -4 0 -7 -16 -7 -35 0 -38 4 -42 23 -23 9 9
12 9 12 1 0 -18 -39 -26 -55 -13 -20 17 -19 57 3 69 21 13 20 13 43 1z"/>
<path d="M4780 2850 c0 -5 5 -10 10 -10 6 0 10 5 10 10 0 6 -4 10 -10 10 -5 0
-10 -4 -10 -10z"/>
<path d="M4680 2860 c0 -5 5 -10 11 -10 5 0 7 5 4 10 -3 6 -8 10 -11 10 -2 0
-4 -4 -4 -10z"/>
<path d="M4935 2840 c-3 -5 -1 -10 4 -10 6 0 11 5 11 10 0 6 -2 10 -4 10 -3 0
-8 -4 -11 -10z"/>
<path d="M4895 2830 c-3 -5 1 -10 9 -10 9 0 16 5 16 10 0 6 -4 10 -9 10 -6 0
-13 -4 -16 -10z"/>
<path d="M4860 2795 c-10 -12 -10 -15 3 -15 19 0 31 16 18 24 -5 3 -14 -1 -21
-9z"/>
<path d="M4737 2793 c-4 -6 -4 -19 -1 -28 4 -10 1 -21 -7 -26 -11 -7 -11 -9 3
-9 23 0 28 12 19 45 -4 17 -10 25 -14 18z"/>
<path d="M6157 2864 c-9 -9 10 -41 29 -48 31 -12 36 7 5 20 -18 8 -30 18 -26
24 7 11 2 14 -8 4z"/>
<path d="M7800 2910 c-13 -8 -12 -10 3 -10 9 0 17 5 17 10 0 12 -1 12 -20 0z"/>
<path d="M4087 2876 c-3 -8 -2 -18 3 -21 13 -8 20 9 11 24 -6 10 -10 9 -14 -3z"/>
<path d="M4236 2820 c-5 -16 -5 -50 0 -50 11 0 21 38 14 50 -8 12 -10 12 -14
0z"/>
<path d="M6940 2770 c-9 -6 -10 -10 -3 -10 6 0 15 5 18 10 8 12 4 12 -15 0z"/>
<path d="M6969 2763 c-13 -16 -12 -17 4 -4 9 7 17 15 17 17 0 8 -8 3 -21 -13z"/>
<path d="M7055 2759 c-4 -6 -5 -12 -2 -15 2 -3 7 2 10 11 7 17 1 20 -8 4z"/>
<path d="M7215 2750 c-3 -5 -1 -10 4 -10 6 0 11 5 11 10 0 6 -2 10 -4 10 -3 0
-8 -4 -11 -10z"/>
<path d="M7130 2743 c1 -9 50 -47 50 -38 0 6 -38 45 -45 45 -3 0 -5 -3 -5 -7z"/>
<path d="M6770 2695 c-10 -12 -10 -15 4 -15 9 0 16 7 16 15 0 8 -2 15 -4 15
-2 0 -9 -7 -16 -15z"/>
<path d="M7343 2734 l-28 -26 33 22 c29 20 39 30 28 30 -3 0 -18 -12 -33 -26z"/>
<path d="M7280 2700 c-8 -15 -8 -20 -1 -16 6 4 11 3 11 -3 0 -15 -36 -32 -54
-25 -12 5 -15 2 -10 -10 8 -20 10 -20 50 4 24 15 32 27 29 42 -6 31 -12 32
-25 8z"/>
<path d="M7186 2638 c3 -5 10 -6 15 -3 13 9 11 12 -6 12 -8 0 -12 -4 -9 -9z"/>
<path d="M3291 3443 c-1 -6 4 -15 10 -19 13 -8 36 13 25 23 -4 4 -11 1 -15 -6
-7 -11 -10 -11 -14 0 -3 9 -6 10 -6 2z"/>
<path d="M5740 3380 c-25 -4 -52 -5 -60 -2 -27 9 -6 -5 108 -73 66 -39 117
-64 122 -59 5 5 -35 32 -95 64 -57 30 -102 56 -100 58 4 4 142 -63 182 -88 18
-12 24 -12 38 0 15 13 15 15 -7 32 -13 10 -40 28 -61 39 -21 11 -36 23 -33 27
6 10 -39 10 -94 2z m125 -50 c38 -27 66 -50 61 -50 -9 0 -146 90 -146 96 0 11
23 -1 85 -46z"/>
<path d="M7379 3347 c-35 -24 -77 -52 -92 -61 -16 -10 -26 -20 -23 -23 3 -3
57 20 120 51 64 31 121 56 128 57 19 1 -24 17 -48 18 -11 1 -49 -19 -85 -42z"/>
<path d="M5600 3346 c47 -18 112 -46 145 -61 121 -55 145 -65 152 -65 12 0
-24 23 -146 94 -106 62 -116 66 -174 66 l-62 -1 85 -33z"/>
<path d="M5892 3351 c67 -42 76 -45 38 -12 -40 35 -33 41 10 9 16 -12 33 -18
37 -14 15 15 -41 44 -85 44 l-43 0 43 -27z"/>
<path d="M5968 3368 c7 -7 16 -7 28 0 14 8 13 10 -10 10 -18 0 -24 -4 -18 -10z"/>
<path d="M7164 3330 c43 -46 125 -166 139 -203 7 -19 27 -14 27 6 0 14 -82
138 -128 196 -19 23 -29 41 -24 41 6 0 12 -5 14 -10 2 -7 10 -6 22 3 17 12 13
14 -38 15 l-57 0 45 -48z"/>
<path d="M7230 3360 c-35 -27 -17 -37 19 -10 17 12 31 23 31 26 0 10 -27 2
-50 -16z"/>
<path d="M7265 3345 c-22 -19 -37 -34 -34 -35 11 0 61 28 68 38 3 5 19 12 36
16 38 10 28 0 -41 -39 -31 -18 -52 -35 -47 -38 8 -5 127 64 148 85 2 2 -17 5
-43 6 -41 1 -52 -3 -87 -33z"/>
<path d="M7505 3338 c-38 -22 -103 -58 -142 -81 -40 -22 -71 -43 -68 -45 2 -3
28 5 57 16 29 11 130 50 223 86 l170 65 -85 0 c-80 -1 -89 -3 -155 -41z"/>
<path d="M7715 3349 c-33 -16 -51 -27 -40 -23 69 21 189 36 253 32 50 -4 72
-2 69 6 -2 7 -44 12 -113 13 -103 2 -113 0 -169 -28z"/>
<path d="M6376 3345 c-3 -8 -1 -15 4 -15 6 0 10 7 10 15 0 8 -2 15 -4 15 -2 0
-6 -7 -10 -15z"/>
<path d="M7393 3305 c-62 -30 -113 -59 -113 -65 0 -7 4 -10 8 -8 28 12 222
120 222 124 0 5 12 10 -117 -51z"/>
<path d="M5630 3315 c0 -6 240 -125 252 -125 5 0 8 5 6 10 -4 14 -258 127
-258 115z"/>
<path d="M6352 3297 c-17 -40 -15 -54 4 -35 9 8 14 26 12 39 -4 24 -5 24 -16
-4z"/>
<path d="M7568 3286 c3 -5 -2 -6 -12 -3 -9 4 -58 -10 -114 -32 -53 -21 -105
-41 -114 -44 -10 -4 -18 -11 -18 -17 0 -14 2 -13 67 16 103 46 123 54 123 49
0 -3 -38 -23 -85 -44 -47 -22 -85 -43 -85 -46 0 -14 68 8 115 38 28 17 77 45
109 63 45 24 53 32 34 31 -15 -1 -24 -6 -20 -11z m-28 -16 c-8 -5 -19 -10 -25
-10 -5 0 -3 5 5 10 8 5 20 10 25 10 6 0 3 -5 -5 -10z"/>
<path d="M7567 3256 c-57 -35 -59 -43 -2 -11 58 32 62 35 49 35 -5 0 -26 -11
-47 -24z"/>
<path d="M5590 3249 c81 -39 265 -107 273 -102 16 9 -6 19 -143 66 -178 60
-183 61 -130 36z"/>
<path d="M8160 3215 c0 -18 -4 -23 -17 -19 -10 3 6 -7 35 -21 67 -33 135 -101
127 -126 -4 -10 -1 -27 5 -36 8 -15 9 -12 4 11 -8 36 9 28 31 -14 14 -28 14
-28 -20 -32 -33 -4 -34 -2 -41 37 -4 22 -7 45 -5 50 1 6 -3 4 -10 -2 -15 -15
-33 -17 -24 -3 3 6 -1 10 -9 10 -9 0 -16 -5 -16 -10 0 -6 -10 -15 -22 -20 -13
-5 -17 -9 -10 -9 6 -1 12 -12 12 -26 0 -14 -6 -25 -12 -26 -7 0 3 -6 22 -13
22 -9 41 -10 53 -4 11 5 17 5 17 -2 0 -10 -19 -14 -52 -11 -25 3 -23 -17 2
-21 15 -2 17 -7 10 -18 -9 -13 -11 -13 -21 0 -9 13 -10 12 -5 -2 3 -10 1 -18
-5 -18 -6 0 -9 -16 -7 -37 3 -33 7 -38 30 -41 22 -3 27 -9 32 -40 6 -36 1 -97
-10 -137 -4 -11 -24 -41 -46 -67 -42 -51 -39 -67 4 -20 34 37 85 107 72 100
-11 -7 -10 159 1 170 3 3 5 21 5 39 0 33 2 34 32 31 25 -2 35 2 43 19 22 43
-15 223 -44 223 -19 0 -12 -39 9 -50 11 -6 20 -17 20 -24 0 -8 -29 15 -64 50
-35 35 -71 64 -80 64 -9 0 -16 7 -16 15 0 8 -4 15 -10 15 -14 0 -12 27 3 33 7
3 5 6 -5 6 -13 1 -18 -7 -18 -24z m120 -305 c0 -11 -7 -20 -15 -20 -18 0 -19
12 -3 28 16 16 18 15 18 -8z"/>
<path d="M8208 3215 c2 -14 6 -25 8 -25 2 0 4 11 4 25 0 14 -4 25 -9 25 -4 0
-6 -11 -3 -25z"/>
<path d="M7605 3220 c-3 -5 3 -10 14 -10 11 0 23 5 26 10 3 6 -3 10 -14 10
-11 0 -23 -4 -26 -10z"/>
<path d="M7903 3223 c9 -2 25 -2 35 0 9 3 1 5 -18 5 -19 0 -27 -2 -17 -5z"/>
<path d="M7961 3226 c2 -2 33 -6 69 -9 41 -3 54 -2 35 3 -31 8 -112 13 -104 6z"/>
<path d="M6316 3195 c-9 -26 -7 -32 5 -12 6 10 9 21 6 23 -2 3 -7 -2 -11 -11z"/>
<path d="M7463 3189 c-18 -12 -33 -23 -33 -25 0 -7 58 25 65 36 9 14 5 13 -32
-11z"/>
<path d="M7786 3201 c-4 -5 3 -7 14 -4 23 6 26 13 6 13 -8 0 -17 -4 -20 -9z"/>
<path d="M7675 3165 c-16 -8 -23 -14 -15 -14 8 0 26 6 40 14 32 18 15 18 -25
0z"/>
<path d="M8040 3140 c0 -29 2 -31 33 -28 27 2 32 7 32 28 0 21 -5 26 -32 28
-31 3 -33 1 -33 -28z"/>
<path d="M7350 3150 c-8 -5 -12 -11 -10 -14 3 -2 14 2 24 10 22 15 10 19 -14
4z"/>
<path d="M7975 3100 c-3 -5 -1 -10 4 -10 6 0 11 5 11 10 0 6 -2 10 -4 10 -3 0
-8 -4 -11 -10z"/>
<path d="M7577 3093 c-3 -5 10 -8 29 -9 19 0 34 3 34 8 0 10 -57 11 -63 1z"/>
<path d="M7658 3093 c7 -3 16 -2 19 1 4 3 -2 6 -13 5 -11 0 -14 -3 -6 -6z"/>
<path d="M7700 3089 c0 -5 5 -7 10 -4 6 3 10 8 10 11 0 2 -4 4 -10 4 -5 0 -10
-5 -10 -11z"/>
<path d="M7788 3093 c18 -2 45 -2 60 0 15 2 0 4 -33 4 -33 0 -45 -2 -27 -4z"/>
<path d="M8008 3093 c6 -2 18 -2 25 0 6 3 1 5 -13 5 -14 0 -19 -2 -12 -5z"/>
<path d="M8092 3095 c9 -9 137 -11 131 -2 -2 4 -34 7 -70 7 -37 0 -64 -2 -61
-5z"/>
<path d="M8076 3043 c-15 -4 -16 -7 -5 -15 9 -6 -4 -7 -40 -2 -39 4 -52 3 -47
-5 4 -6 11 -9 16 -6 11 7 108 -24 116 -36 3 -5 17 -9 32 -9 26 1 25 2 -11 21
-43 23 -41 39 5 39 17 0 29 2 27 4 -8 7 -74 14 -93 9z"/>
<path d="M7498 3033 c6 -2 18 -2 25 0 6 3 1 5 -13 5 -14 0 -19 -2 -12 -5z"/>
<path d="M7505 3010 c3 -5 11 -10 16 -10 6 0 7 5 4 10 -3 6 -11 10 -16 10 -6
0 -7 -4 -4 -10z"/>
<path d="M7783 2985 c-10 -10 -9 -14 2 -18 7 -3 16 1 19 8 7 20 -6 26 -21 10z"/>
<path d="M7830 2980 c-13 -8 -12 -10 3 -10 9 0 17 5 17 10 0 12 -1 12 -20 0z"/>
<path d="M7995 2980 c-3 -5 1 -10 9 -10 9 0 16 5 16 10 0 6 -4 10 -9 10 -6 0
-13 -4 -16 -10z"/>
<path d="M8050 2980 c0 -5 10 -10 23 -10 18 0 19 2 7 10 -19 13 -30 13 -30 0z"/>
<path d="M8050 2900 c14 -11 30 -20 35 -20 6 0 -1 9 -15 20 -14 11 -29 20 -35
20 -5 0 1 -9 15 -20z"/>
<path d="M7950 2880 c0 -5 5 -10 10 -10 6 0 10 5 10 10 0 6 -4 10 -10 10 -5 0
-10 -4 -10 -10z"/>
<path d="M8031 2863 c13 -14 11 -16 -13 -11 -18 3 -25 1 -21 -8 2 -6 12 -11
21 -9 9 2 20 4 24 4 13 2 3 41 -10 41 -12 0 -12 -2 -1 -17z"/>
<path d="M8132 2845 c2 -19 0 -35 -4 -35 -4 0 -8 -16 -8 -35 0 -28 4 -36 23
-40 13 -4 30 -5 38 -3 21 5 24 -66 4 -130 -16 -50 -79 -131 -93 -118 -3 3 -10
-1 -16 -8 -6 -8 -26 -17 -43 -21 l-33 -7 17 31 c17 29 10 59 -7 31 -7 -11 -12
-9 -28 10 -19 24 -19 24 -30 3 -15 -27 -65 -47 -97 -39 -39 10 -30 -3 18 -24
69 -32 152 -27 229 13 34 18 63 37 64 42 0 6 9 28 19 50 9 22 20 57 23 78 2
21 9 40 13 43 5 3 9 13 9 22 0 13 -2 14 -9 4 -10 -17 -21 16 -21 66 0 24 -4
32 -18 32 -23 0 -42 19 -42 42 0 11 5 15 15 12 8 -4 15 -1 15 5 0 6 -9 11 -21
11 -18 0 -21 -5 -17 -35z m-146 -381 c-29 -21 -57 -18 -53 5 2 10 9 26 17 36
12 15 15 14 34 -5 21 -21 21 -21 2 -36z m-61 6 c-3 -5 -14 -10 -23 -10 -15 0
-15 2 -2 10 20 13 33 13 25 0z"/>
<path d="M8085 2850 c3 -5 10 -10 16 -10 5 0 9 5 9 10 0 6 -7 10 -16 10 -8 0
-12 -4 -9 -10z"/>
<path d="M8044 2818 c1 -7 5 -19 9 -25 5 -7 5 -18 2 -24 -4 -6 -1 -10 6 -8 26
3 39 -1 39 -12 0 -6 -7 -9 -15 -5 -17 6 -45 -19 -45 -42 0 -11 -3 -13 -10 -6
-12 12 -3 44 11 44 5 0 9 5 9 10 0 6 -6 10 -14 10 -8 0 -18 4 -21 10 -3 6 1 7
10 4 11 -5 14 -2 8 11 -6 17 -8 16 -25 -5 -14 -17 -16 -26 -7 -36 6 -7 8 -17
5 -23 -9 -15 23 -41 50 -41 28 0 32 -16 7 -23 -10 -3 -1 -5 20 -4 33 1 38 5
46 32 4 17 4 32 -1 34 -11 4 -32 52 -29 65 1 5 -5 6 -14 2 -11 -4 -19 2 -25
19 -10 26 -20 34 -16 13z"/>
<path d="M8326 2738 c-39 -83 -40 -86 -21 -63 21 24 57 105 53 117 -2 4 -16
-20 -32 -54z"/>
<path d="M7914 2777 c3 -21 17 -38 27 -32 15 10 11 23 -10 35 -14 7 -19 6 -17
-3z"/>
<path d="M7953 2619 c4 -13 7 -30 7 -37 0 -7 4 -11 9 -8 11 7 2 54 -12 63 -6
4 -8 -2 -4 -18z"/>
<path d="M8069 2603 c-13 -16 -12 -17 4 -4 16 13 21 21 13 21 -2 0 -10 -8 -17
-17z"/>
<path d="M7037 2073 c18 -2 50 -2 70 0 21 2 7 4 -32 4 -38 0 -55 -2 -38 -4z"/>
<path d="M6166 1161 c-4 -5 -2 -12 3 -15 5 -4 12 -2 15 3 4 5 2 12 -3 15 -5 4
-12 2 -15 -3z"/>
</g>
</svg>
