<?xml version="1.0" standalone="no"?>
<!DOCTYPE svg PUBLIC "-//W3C//DTD SVG 20010904//EN"
 "http://www.w3.org/TR/2001/REC-SVG-20010904/DTD/svg10.dtd">
<svg version="1.0" xmlns="http://www.w3.org/2000/svg"
 width="1482.000000pt" height="834.000000pt" viewBox="0 0 1482.000000 834.000000"
 preserveAspectRatio="xMidYMid meet">

<g transform="translate(0.000000,834.000000) scale(0.100000,-0.100000)"
fill="#000000" stroke="none">
<path d="M2337 5603 c-4 -3 -7 -19 -7 -35 0 -17 -4 -27 -10 -23 -5 3 -10 -1
-10 -9 0 -8 5 -18 10 -21 6 -3 7 -18 4 -32 -5 -17 -3 -24 3 -20 6 4 13 -6 16
-22 4 -16 14 -38 25 -48 10 -10 23 -30 30 -45 6 -16 18 -28 27 -28 12 0 9 12
-14 59 -28 54 -30 64 -24 131 5 64 4 75 -12 86 -21 16 -29 17 -38 7z"/>
<path d="M6303 5580 c-10 -11 -23 -20 -30 -20 -25 0 -23 -21 6 -50 l29 -30
155 0 c125 0 163 -3 198 -18 35 -14 65 -17 142 -14 95 3 97 4 97 28 0 17 -6
24 -19 24 -11 0 -23 -4 -26 -10 -14 -23 -155 -2 -155 23 0 7 7 20 14 30 11 14
30 17 125 17 109 0 111 0 110 23 0 12 -3 16 -6 10 -3 -10 -38 -13 -123 -13
-85 0 -120 3 -123 13 -3 6 -6 0 -6 -15 -1 -24 -5 -28 -31 -28 -20 0 -30 -5
-30 -15 0 -10 -10 -15 -30 -15 -23 0 -30 5 -30 19 0 14 8 21 28 23 15 2 -34 7
-108 11 -74 5 -142 13 -152 18 -13 7 -22 5 -35 -11z"/>
<path d="M2171 5571 c-17 -30 -13 -51 8 -51 10 0 38 -9 62 -20 59 -26 82 -25
44 3 -16 12 -47 37 -67 55 -35 32 -37 32 -47 13z"/>
<path d="M2264 5566 c31 -25 46 -26 46 0 0 8 -9 14 -19 14 -11 0 -28 3 -38 6
-11 3 -7 -4 11 -20z"/>
<path d="M6128 5544 c-16 -8 -28 -21 -28 -29 0 -7 -8 -15 -17 -17 -16 -3 -18
-18 -18 -148 l0 -145 -43 -3 -43 -3 3 145 c2 80 0 146 -4 146 -5 0 -8 -11 -8
-25 0 -14 -5 -25 -11 -25 -5 0 -43 16 -82 35 -81 39 -150 54 -162 35 -12 -20
17 -60 62 -87 35 -20 53 -24 109 -22 52 2 70 -1 77 -13 13 -20 1 -68 -17 -68
-14 0 -162 53 -356 128 -58 22 -118 43 -135 47 l-30 7 30 -17 c70 -39 186
-147 233 -218 29 -43 21 -57 -30 -57 -15 0 -39 -5 -53 -10 -22 -9 -38 -6 -84
16 -34 17 -82 30 -123 33 -62 6 -72 10 -109 46 -22 22 -50 57 -61 77 l-21 37
-30 -17 c-16 -9 -33 -24 -37 -33 -11 -19 2 -81 24 -114 9 -13 16 -27 16 -30 0
-3 -56 -5 -124 -3 -68 2 -122 0 -120 -3 9 -14 -49 -28 -143 -34 l-103 -7 -2
119 -2 118 -3 -97 -4 -98 -44 0 -45 0 -2 58 c-1 31 -1 82 0 112 l1 55 -15 -60
c-8 -33 -17 -67 -20 -75 -12 -29 -20 20 -13 74 3 28 6 52 5 53 -1 1 -129 0
-283 -4 -320 -7 -292 2 -293 -98 0 -29 -7 -58 -16 -70 -15 -20 -16 -19 -54 23
-21 24 -46 65 -55 93 -10 28 -23 49 -31 49 -12 0 -11 -5 3 -27 l18 -26 -30 6
c-17 3 -38 9 -47 12 -32 12 -19 -12 20 -39 48 -33 108 -94 100 -102 -3 -3 -26
10 -51 29 -52 39 -95 54 -111 37 -8 -9 -6 -15 8 -24 10 -6 28 -19 40 -29 21
-18 20 -18 -24 -12 -24 3 -49 10 -56 16 -8 7 -18 -1 -33 -26 -11 -20 -21 -40
-21 -45 0 -14 -61 -60 -80 -60 -25 0 -36 -19 -15 -26 27 -11 46 -62 50 -136 4
-56 2 -68 -8 -60 -7 6 -52 12 -100 14 -75 2 -90 5 -108 24 -17 19 -20 32 -17
83 l3 61 -402 0 -403 0 0 23 c0 12 -11 30 -24 39 l-23 17 0 -47 c1 -119 -24
-192 -65 -192 -19 0 -22 13 -18 78 2 34 -10 41 -30 17 -14 -17 -36 -20 -45 -5
-10 16 12 47 50 70 20 12 34 24 32 27 -3 2 -33 -3 -67 -12 -67 -17 -96 -14
-86 10 3 8 1 17 -5 20 -5 4 -13 -4 -18 -17 -5 -15 -5 -25 2 -30 8 -5 6 -21 -6
-55 -9 -26 -18 -59 -20 -73 -3 -18 -11 -26 -30 -28 -45 -6 -60 19 -55 93 l4
65 -54 0 c-67 0 -105 -17 -170 -78 -44 -41 -50 -50 -42 -69 9 -22 15 -23 132
-24 103 -1 320 -13 366 -20 17 -3 15 -9 -9 -36 l-22 -22 32 12 c26 9 33 9 40
-2 10 -16 2 -53 -13 -63 -7 -5 -4 -8 7 -8 10 0 20 7 23 15 5 13 49 15 298 17
l291 3 -279 2 c-271 3 -279 4 -297 25 -32 36 -24 48 30 48 31 0 55 6 65 15 12
13 72 15 413 15 219 0 403 -4 409 -8 16 -10 5 -72 -12 -72 -8 0 -14 -4 -14
-10 0 -5 -39 -11 -87 -13 l-88 -3 103 -2 c95 -2 102 -3 102 -22 0 -18 7 -20
70 -20 63 0 70 2 70 20 0 17 7 20 53 22 l52 1 -45 4 c-48 5 -60 15 -60 51 0
22 1 22 149 22 120 0 151 3 161 15 11 13 60 15 330 15 273 0 319 -2 324 -15 3
-10 19 -15 46 -15 l40 0 0 64 c0 64 -13 94 -24 58 -7 -19 -70 -55 -80 -45 -3
4 -6 33 -6 65 l0 58 -316 0 -315 0 3 53 3 52 389 -2 c213 -1 390 -4 393 -7 7
-7 7 -41 -2 -138 -9 -103 -1 -158 23 -158 34 0 -24 -41 -66 -47 -23 -3 -39 -9
-37 -14 3 -4 -16 -10 -42 -12 -35 -2 -27 -4 28 -5 71 -2 76 -4 88 -28 11 -25
14 -26 67 -20 40 5 63 2 82 -8 15 -8 48 -19 74 -24 41 -8 47 -7 51 9 4 16 13
17 78 12 41 -3 76 -8 79 -10 3 -3 -4 -11 -15 -20 -19 -15 -19 -15 5 -8 14 4
27 12 28 16 2 5 22 9 44 9 33 0 39 -3 34 -16 -5 -13 -2 -14 11 -8 37 17 232 3
244 -18 6 -9 46 -13 138 -13 97 0 132 -3 136 -13 3 -8 22 -12 52 -12 85 2 266
-20 333 -40 36 -10 87 -21 113 -25 26 -3 62 -12 80 -19 18 -8 50 -12 72 -11
22 2 58 4 80 5 31 2 23 5 -35 12 -41 5 -85 9 -97 9 -31 -1 -36 24 -7 37 13 6
63 21 111 32 91 23 141 21 168 -6 13 -14 15 6 15 195 0 116 -2 211 -4 211 -2
0 -23 -30 -47 -66 -39 -58 -63 -78 -224 -191 -166 -116 -225 -149 -225 -126 0
14 30 55 75 103 24 25 81 91 127 147 49 60 117 128 166 167 72 57 86 64 104
55 11 -6 23 -20 25 -30 4 -15 15 -19 49 -19 l44 0 -2 -222 -3 -222 -43 -12
c-23 -7 -49 -20 -57 -28 -9 -8 -31 -18 -50 -22 -19 -3 -35 -10 -35 -16 0 -5 5
-6 11 -3 5 4 38 9 72 11 99 6 117 12 117 39 0 13 4 26 9 30 5 3 161 -4 347
-15 185 -11 353 -20 372 -20 34 0 34 0 27 -37 -18 -104 -72 -299 -107 -392
-62 -165 -164 -368 -235 -469 -96 -135 -155 -212 -164 -212 -5 0 -9 -6 -9 -12
0 -16 -193 -208 -271 -271 -31 -25 -82 -62 -113 -82 -31 -21 -56 -42 -56 -47
0 -5 -4 -7 -9 -4 -4 3 -16 0 -25 -7 -16 -12 -15 -18 22 -73 21 -32 88 -133
146 -224 59 -91 116 -176 127 -190 10 -14 38 -55 61 -93 43 -67 70 -82 76 -42
2 12 65 69 153 140 235 187 427 384 571 585 25 36 56 78 69 93 77 98 243 413
317 602 50 127 115 328 128 393 10 47 41 44 49 -5 10 -59 23 -110 24 -92 1 13
17 18 72 23 92 10 99 13 99 47 0 22 5 29 19 29 20 0 25 26 34 188 3 59 2 62
-20 62 -26 0 -32 27 -8 36 14 6 369 -11 472 -22 44 -4 52 -9 61 -32 17 -46 22
-89 12 -123 -13 -46 -6 -47 15 -2 10 21 17 55 17 77 -3 62 5 76 41 76 59 0 60
-5 51 -137 l-9 -119 23 4 c14 3 38 -6 63 -24 40 -28 65 -68 102 -169 33 -88
82 -215 113 -295 19 -47 34 -91 34 -98 0 -7 14 -45 32 -85 27 -61 33 -87 38
-177 l5 -104 100 -18 100 -18 73 35 c40 20 103 47 140 61 37 14 71 29 76 34 5
5 12 40 15 78 6 63 5 69 -11 64 -12 -3 -18 1 -18 12 0 10 5 13 16 9 9 -3 15
-2 13 3 -2 5 -11 26 -18 46 -9 23 -22 38 -35 40 -23 3 -35 28 -13 28 12 0 12
7 4 40 -8 27 -17 40 -28 40 -9 0 -19 7 -23 15 -3 9 0 15 10 15 12 0 15 6 10
23 -3 12 -6 25 -6 30 0 4 -9 7 -20 7 -18 0 -24 8 -17 27 1 5 6 7 11 5 5 -2 5
5 1 15 -4 10 -11 32 -16 49 -6 20 -15 31 -26 30 -9 0 -18 5 -20 12 -3 6 2 12
11 12 19 0 19 -2 0 51 -8 24 -19 68 -24 98 -8 47 -6 64 15 123 14 38 25 84 25
102 0 19 3 48 6 65 6 30 8 31 58 31 28 0 108 5 178 12 111 10 135 10 196 -5
39 -9 88 -17 111 -17 23 0 41 -5 41 -10 0 -6 6 -10 13 -8 6 1 30 -2 52 -7 22
-4 44 -8 48 -7 4 1 37 -5 73 -13 36 -8 77 -12 92 -9 21 4 24 3 12 -5 -13 -10
-13 -11 0 -11 18 0 46 17 40 24 -12 11 -235 56 -253 50 -13 -4 -17 -2 -13 5 5
7 -2 12 -16 13 -13 1 -30 2 -38 3 -8 0 -20 4 -25 7 -6 3 -36 11 -68 17 -32 6
-61 13 -65 15 -4 2 -51 -1 -104 -8 -80 -10 -101 -10 -122 1 l-26 14 0 229 0
230 -1299 0 c-1175 0 -1299 2 -1305 16 -3 9 -6 31 -6 50 l0 34 -223 0 c-161 0
-226 3 -235 12 -10 10 -11 2 -6 -35 l7 -47 -119 2 c-81 1 -96 3 -49 5 103 6
119 21 125 120 5 71 7 78 27 81 20 3 22 10 25 83 l3 79 -106 0 c-77 0 -110 4
-125 15 -15 11 -56 14 -189 15 -114 0 -178 4 -195 13 -14 6 -34 31 -45 55 -17
36 -24 42 -50 42 -16 -1 -42 -8 -57 -16z m-365 -232 c73 -54 147 -107 165
-117 41 -25 42 -51 1 -59 -17 -3 -109 -6 -204 -6 -172 0 -200 -4 -284 -42 -64
-28 -76 -20 -35 25 34 36 39 38 100 40 35 1 64 6 64 10 0 7 -65 6 -165 -2 -5
-1 -21 0 -34 1 -21 3 -25 -3 -37 -51 -15 -56 -105 -234 -156 -309 -28 -40 -32
-43 -61 -36 -18 4 -42 7 -54 6 -12 -1 -25 3 -29 9 -5 8 -8 8 -13 0 -10 -15
-141 -2 -141 14 0 21 30 87 57 124 15 20 60 69 101 109 63 61 80 72 109 72 19
0 44 6 56 13 19 10 4 13 -103 17 -117 5 -125 6 -125 25 0 20 7 20 325 22 179
1 390 2 469 2 126 1 142 3 131 16 -7 9 -29 15 -54 15 -36 0 -47 6 -92 53 -84
87 -137 147 -130 147 4 0 67 -44 139 -98z m-1255 49 l-3 -36 -240 -5 c-132 -3
-245 -4 -252 -2 -17 5 -23 29 -14 55 l9 24 252 0 251 0 -3 -36z m1676 -33 c14
-33 14 -33 15 -6 1 30 19 47 31 28 6 -9 12 -9 28 1 28 17 40 4 19 -19 -25 -28
-21 -34 21 -26 21 3 45 16 54 28 13 17 29 23 63 24 26 1 50 0 55 -3 11 -7 -29
-105 -42 -105 -10 0 -7 30 6 61 5 12 0 18 -19 22 -25 4 -26 3 -21 -27 3 -17 2
-37 -3 -45 -7 -11 -13 -11 -32 3 -30 20 -69 21 -69 1 0 -21 -10 -19 -37 7
l-23 21 0 -21 c0 -26 -31 -30 -50 -7 -16 20 -36 19 -44 -2 -4 -10 -10 -13 -16
-7 -14 14 18 104 36 104 8 0 20 -15 28 -32z m621 -88 c-16 -4 -41 -8 -55 -8
-22 0 -22 1 5 8 17 4 41 8 55 8 22 0 22 -1 -5 -8z m-88 -16 c-3 -3 -12 -4 -19
-1 -8 3 -5 6 6 6 11 1 17 -2 13 -5z m-2969 -58 c-18 -24 -41 -49 -51 -55 -16
-10 -15 -7 4 31 29 58 38 68 61 68 16 0 15 -5 -14 -44z m46 -63 c-5 -43 -8
-97 -7 -119 1 -35 -1 -41 -16 -37 -11 3 -24 -5 -35 -21 -9 -14 -25 -26 -36
-26 -16 0 -17 4 -10 30 5 17 22 53 39 79 16 27 33 71 36 97 8 51 23 89 32 80
3 -3 2 -40 -3 -83z m1998 -10 c57 -22 153 -89 175 -122 36 -54 45 -77 45 -127
1 -71 -27 -128 -65 -132 -16 -2 -34 2 -42 8 -7 6 -15 7 -17 2 -5 -15 -78 -2
-78 14 0 8 6 14 14 14 27 0 39 27 27 63 -21 63 -39 71 -127 58 -101 -15 -219
-55 -273 -92 -35 -24 -51 -29 -88 -27 l-45 3 21 26 c26 34 140 93 266 140
l100 37 -45 12 c-61 17 -167 7 -222 -21 -57 -29 -114 -92 -129 -145 -11 -36
-16 -41 -30 -33 -11 6 -19 5 -21 -2 -2 -6 -19 -9 -37 -7 l-34 3 44 52 c74 86
233 207 334 252 92 41 164 49 227 24z m-752 -7 c0 -2 -28 -22 -62 -45 -35 -22
-101 -67 -147 -101 -110 -80 -131 -74 -131 42 0 45 1 46 33 47 38 0 66 5 87
14 46 20 220 54 220 43z m-2700 -18 c0 -7 -4 -18 -8 -24 -7 -11 -45 -34 -56
-34 -12 0 -6 59 7 63 24 10 57 7 57 -5z m2317 -35 c-3 -10 -5 -4 -5 12 0 17 2
24 5 18 2 -7 2 -21 0 -30z m2128 -27 c9 -45 0 -70 -31 -87 -52 -27 -108 34
-85 94 9 24 15 27 60 27 49 0 50 -1 56 -34z m295 5 c9 -24 9 -34 -4 -59 -25
-48 -69 -56 -103 -19 -25 26 -29 43 -19 80 8 25 12 27 61 27 49 0 53 -2 65
-29z m2643 -9 c12 -3 17 -15 17 -44 0 -50 35 -88 80 -88 36 0 70 16 70 32 0 9
-3 9 -12 0 -7 -7 -29 -12 -50 -12 -31 0 -40 5 -53 29 -29 57 14 103 81 87 15
-4 30 -18 38 -37 12 -27 14 -29 21 -13 6 15 10 9 16 -26 11 -66 11 -348 -1
-355 -17 -10 -51 19 -77 66 -23 43 -56 69 -86 69 -21 0 -77 -58 -89 -91 -9
-25 -14 -29 -32 -24 -11 4 -75 10 -140 14 -129 7 -151 18 -94 47 18 9 72 43
121 76 48 32 87 54 87 48 0 -6 -23 -44 -50 -85 -38 -56 -46 -75 -34 -75 9 0
26 12 37 27 26 32 118 183 112 183 -7 0 -228 -90 -246 -100 -9 -5 -41 -6 -71
-3 -53 5 -56 4 -61 -20 -4 -13 -20 -39 -36 -56 -26 -28 -34 -31 -88 -30 -32 0
-78 4 -101 7 -39 6 -45 11 -57 42 -7 19 -16 43 -20 53 -6 15 1 17 83 17 50 0
92 4 94 10 2 5 55 11 120 12 l118 3 0 34 c0 34 -18 57 -72 95 -21 15 -16 16
82 17 129 0 176 14 172 49 -1 14 -7 27 -13 29 -7 2 -6 7 2 12 14 9 98 10 132
1z m-7393 -20 c0 -22 -34 -52 -60 -52 -25 0 -25 11 1 44 24 30 59 35 59 8z
m5529 -3 c25 -6 58 -12 73 -14 49 -7 108 -26 108 -35 0 -11 -80 -80 -94 -80
-5 0 -19 9 -30 20 -14 12 -44 22 -86 27 -82 10 -329 -2 -397 -20 -29 -8 -53
-11 -53 -8 0 3 -3 16 -6 28 -5 18 1 25 35 42 37 19 96 41 146 55 30 8 252 -3
304 -15z m-3202 -11 c-3 -8 -6 -5 -6 6 -1 11 2 17 5 13 3 -3 4 -12 1 -19z
m-2267 2 c0 -5 -5 -10 -11 -10 -5 0 -7 5 -4 10 3 6 8 10 11 10 2 0 4 -4 4 -10z
m6922 -92 c96 -92 96 -98 -5 -98 l-83 0 -13 35 c-12 35 -12 35 -74 35 l-62 -1
40 -24 c22 -14 46 -25 53 -25 6 0 12 -4 12 -10 0 -16 -180 -13 -180 3 -1 19
-37 57 -55 57 -12 0 -15 -5 -9 -22 3 -13 11 -29 16 -35 8 -10 -1 -13 -40 -13
-52 0 -62 -8 -62 -51 0 -18 -9 -19 -150 -19 l-150 0 0 32 c0 17 -7 39 -16 49
-18 20 -12 36 20 49 15 6 3 9 -44 9 -58 1 -66 -1 -75 -21 -8 -19 -29 -28 -130
-51 -148 -34 -176 -41 -291 -71 -34 -9 -65 -16 -68 -16 -3 0 -6 27 -6 59 l0
59 73 66 72 66 581 0 581 0 65 -62z m-2492 18 c0 -28 15 -42 66 -59 31 -11 40
-19 42 -42 4 -32 -14 -48 -39 -34 -10 5 -34 9 -53 9 -30 0 -36 -4 -36 -21 0
-12 -4 -17 -11 -13 -6 3 -9 19 -6 34 5 24 1 29 -37 48 -32 15 -46 18 -55 9 -8
-8 -11 -7 -11 5 0 9 26 31 63 51 75 43 77 43 77 13z m-3380 -11 c0 -9 -7 -18
-16 -22 -18 -7 -39 11 -30 26 11 17 46 13 46 -4z m3900 -40 c-19 -23 -30 -18
-30 14 0 34 21 46 34 20 6 -12 5 -24 -4 -34z m93 -6 c28 -15 37 -28 37 -58 0
-36 -28 -61 -64 -60 -29 2 -29 2 -4 6 35 5 50 25 46 59 -4 34 -27 49 -61 40
-32 -8 -44 -44 -26 -78 11 -21 11 -22 -4 -9 -28 22 -22 73 11 93 32 21 37 21
65 7z m-173 -29 c0 -19 -5 -30 -14 -30 -18 0 -27 35 -13 49 18 18 27 12 27
-19z m620 -20 c35 -42 35 -41 9 -74 -20 -26 -21 -26 -158 -26 -107 0 -141 3
-159 16 -49 34 -8 109 63 117 22 3 80 4 128 3 88 -1 89 -1 117 -36z m-892 -13
c4 -31 -12 -36 -28 -8 -15 29 -12 43 8 39 10 -2 18 -14 20 -31z m140 -4 c-4
-34 -19 -38 -46 -15 -32 28 -27 42 14 42 32 0 35 -2 32 -27z m1325 -119 c17 4
26 2 22 -4 -11 -17 -64 -11 -85 10 -31 31 -24 44 8 15 20 -20 34 -25 55 -21z
m127 16 c0 -20 -5 -30 -15 -30 -10 0 -15 10 -15 30 0 20 5 30 15 30 10 0 15
-10 15 -30z m264 22 c2 -4 1 -14 -3 -21 -5 -8 -11 -9 -15 -3 -3 6 -16 8 -29 5
-21 -4 -22 -4 -3 11 22 17 42 21 50 8z m125 -18 c12 -15 21 -36 21 -48 0 -24
-26 -66 -41 -66 -6 0 -1 12 10 26 28 35 26 56 -5 88 -15 14 -22 26 -16 26 6 0
20 -12 31 -26z m-3269 0 c0 -2 -7 -4 -15 -4 -8 0 -15 4 -15 10 0 5 7 7 15 4 8
-4 15 -8 15 -10z m2433 -54 l22 -24 -25 16 c-16 10 -26 25 -27 44 -1 18 0 22
4 9 3 -11 15 -31 26 -45z m611 41 c16 -18 16 -19 -10 -25 -14 -4 -47 -4 -72 0
l-46 7 23 18 c30 25 83 24 105 0z m1052 -9 c13 -9 34 -46 34 -62 0 -18 -47
-60 -67 -60 -14 1 -11 4 9 15 32 18 43 47 29 73 -15 28 -40 35 -67 17 -28 -18
-31 -51 -7 -77 18 -20 4 -25 -15 -6 -17 17 -15 74 4 92 16 17 61 21 80 8z
m-1801 -74 c16 -14 -26 -79 -65 -100 -19 -11 -53 -29 -75 -40 -54 -29 -37 -31
70 -9 l90 18 9 67 c8 60 10 66 32 66 30 0 30 -4 4 -157 -66 -383 -224 -794
-423 -1095 -177 -268 -396 -493 -685 -701 -75 -54 -97 -66 -118 -61 -33 8
-187 182 -180 203 2 9 14 47 25 85 l21 70 -40 -39 c-22 -22 -40 -46 -40 -55
-1 -33 -30 24 -30 59 0 32 9 45 81 113 45 43 86 78 90 78 17 0 9 21 -22 54
-35 39 -93 116 -87 116 9 0 78 -67 106 -103 l30 -37 51 46 51 46 -62 69 c-33
38 -58 72 -55 76 4 3 36 -23 72 -58 l64 -65 85 85 c47 47 88 82 91 79 15 -14
22 -115 11 -147 -18 -56 -55 -75 -149 -79 -45 -2 -86 -7 -90 -12 -8 -7 42 -52
154 -135 30 -22 80 -67 113 -100 l59 -59 103 109 c57 60 104 115 104 121 0 6
-24 26 -52 45 -69 44 -72 45 -58 19 10 -18 8 -25 -14 -47 -16 -16 -33 -24 -44
-21 -17 5 -19 0 -17 -31 1 -20 7 -47 14 -60 20 -36 4 -38 -33 -2 -31 30 -34
31 -39 12 -7 -27 -29 -26 -75 3 -54 34 -68 52 -52 71 7 9 19 14 26 11 8 -3 14
4 16 17 2 17 10 22 31 22 19 -1 26 3 22 12 -7 19 66 93 91 93 35 0 19 41 -46
117 -32 37 -56 72 -53 76 6 10 12 8 107 -27 84 -32 90 -32 108 -3 15 22 15 22
-32 19 -47 -4 -150 30 -150 49 0 14 23 23 55 21 42 -3 65 13 31 22 -17 4 -26
13 -26 25 0 26 15 29 74 18 43 -7 52 -6 63 9 19 26 17 32 -27 54 -36 18 -39
22 -27 41 8 13 20 19 35 16 22 -4 30 7 12 18 -15 9 -12 35 4 35 23 0 95 -89
108 -134 14 -45 38 -71 81 -87 44 -18 26 -65 -21 -52 -26 6 -28 -4 -6 -28 14
-16 13 -21 -16 -60 -25 -36 -28 -44 -16 -51 8 -5 18 -24 22 -43 3 -19 10 -35
14 -35 5 0 38 43 74 96 l65 97 -103 116 c-57 64 -111 123 -120 130 -9 8 -22
23 -27 33 -9 17 -8 18 8 9 10 -5 34 -21 53 -36 32 -23 35 -24 41 -8 9 23 4 27
-57 47 -92 30 -92 29 -43 129 48 97 42 93 149 77 65 -9 75 -2 83 57 5 46 13
39 -88 75 -44 16 -48 34 -20 91 8 17 15 38 15 48 0 23 17 33 57 35 29 1 83 41
83 60 0 20 -45 64 -64 64 -12 0 -25 2 -28 5 -7 8 28 173 41 189 32 38 341 67
376 34z m860 2 c10 -11 13 -20 7 -20 -6 0 -16 9 -22 20 -6 11 -9 20 -7 20 2 0
12 -9 22 -20z m-1346 -56 c39 -9 71 -19 71 -23 0 -8 -108 4 -142 15 -18 5 -25
24 -9 24 5 0 41 -7 80 -16z m1619 -86 c3 -32 10 -41 52 -68 63 -41 107 -91
133 -152 20 -49 39 -58 45 -22 4 25 -16 51 -123 157 -62 62 -85 91 -75 94 9 2
56 -9 105 -25 74 -25 93 -28 108 -17 15 11 10 15 -45 41 l-63 29 48 3 c43 3
52 0 88 -32 53 -49 75 -49 44 -2 -15 22 -14 24 7 28 13 2 49 2 82 0 47 -3 59
-8 63 -23 5 -16 7 -17 20 -4 8 9 19 12 25 9 12 -8 4 -62 -28 -179 -13 -49 -24
-107 -24 -127 0 -41 56 -178 148 -363 71 -142 104 -272 83 -324 -19 -44 -53
-70 -126 -97 -84 -31 -157 -32 -186 -3 -12 12 -18 27 -14 37 17 44 16 102 -4
177 -38 150 -179 542 -232 647 -26 52 -76 96 -131 116 -43 15 -48 20 -48 48 0
17 3 46 6 63 9 45 38 38 42 -11z m1369 36 c-3 -3 -12 -4 -19 -1 -8 3 -5 6 6 6
11 1 17 -2 13 -5z m80 -20 c-3 -3 -12 -4 -19 -1 -8 3 -5 6 6 6 11 1 17 -2 13
-5z m-3099 -86 c41 -12 68 -24 61 -28 -12 -8 -97 12 -150 35 -31 13 -32 14 -9
15 14 0 58 -10 98 -22z m-52 -148 c71 -25 95 -45 44 -37 -46 7 -152 55 -124
56 11 1 47 -8 80 -19z m1789 -40 c3 -5 2 -10 -4 -10 -5 0 -13 5 -16 10 -3 6
-2 10 4 10 5 0 13 -4 16 -10z m505 -61 c0 -6 -4 -7 -10 -4 -5 3 -10 11 -10 16
0 6 5 7 10 4 6 -3 10 -11 10 -16z m-2328 -56 c35 -15 55 -30 50 -35 -5 -5 -43
8 -93 32 -61 29 -75 39 -50 35 18 -3 60 -17 93 -32z m1868 7 c0 -5 -2 -10 -4
-10 -3 0 -8 5 -11 10 -3 6 -1 10 4 10 6 0 11 -4 11 -10z m40 -95 c0 -9 -6 -12
-15 -9 -8 4 -12 10 -9 15 8 14 24 10 24 -6z m-1994 -50 c42 -19 73 -39 69 -44
-5 -9 -105 35 -155 69 -34 22 14 9 86 -25z m2027 -44 c4 -17 2 -18 -14 -8 -13
8 -15 13 -6 19 7 4 13 8 13 8 1 0 4 -9 7 -19z m-2107 -92 c41 -22 72 -45 69
-50 -7 -10 -118 47 -142 73 -24 27 -8 22 73 -23z m2149 -19 c3 -5 -1 -10 -9
-10 -8 0 -18 5 -21 10 -3 6 1 10 9 10 8 0 18 -4 21 -10z m-2212 -129 c26 -19
47 -39 47 -44 0 -12 -69 29 -115 69 -38 32 -38 34 -10 22 17 -6 51 -28 78 -47z
m2247 19 c10 -19 9 -19 -15 -8 -19 8 -22 14 -13 20 17 10 16 11 28 -12z
m-2367 -130 c68 -51 86 -70 68 -70 -10 0 -151 109 -151 116 0 12 24 -2 83 -46z
m2414 3 c-8 -7 -37 9 -31 19 3 5 12 4 20 -3 8 -6 13 -14 11 -16z m-2493 -141
c25 -23 46 -45 46 -47 0 -23 -79 35 -121 89 l-22 28 25 -13 c14 -8 47 -33 72
-57z m2504 33 c-3 -3 -13 -2 -22 1 -14 5 -15 9 -4 15 13 8 36 -6 26 -16z
m-2864 -344 c54 -72 59 -81 47 -81 -11 0 -121 141 -121 155 0 13 30 -17 74
-74z"/>
<path d="M6698 5019 c-21 -12 -24 -59 -6 -77 18 -18 53 -15 71 6 42 47 -10
103 -65 71z"/>
<path d="M6986 5017 c-28 -20 -18 -69 16 -81 22 -8 32 -6 48 9 50 45 -9 112
-64 72z"/>
<path d="M9795 4980 c-23 -26 -13 -68 19 -76 32 -8 66 12 66 37 0 55 -49 78
-85 39z"/>
<path d="M9630 4956 c0 -15 36 -46 53 -46 4 0 0 14 -10 30 -18 31 -43 40 -43
16z"/>
<path d="M9860 4813 c0 -5 7 -17 15 -27 14 -19 15 -19 15 7 0 17 -5 27 -15 27
-8 0 -15 -3 -15 -7z"/>
<path d="M7675 4959 c-4 -6 -5 -12 -2 -15 2 -3 7 2 10 11 7 17 1 20 -8 4z"/>
<path d="M7738 4939 c-23 -24 -22 -29 0 -29 11 0 24 11 30 25 14 31 -4 33 -30
4z"/>
<path d="M7438 4933 c-14 -4 -33 -32 -26 -38 2 -2 17 0 34 2 25 4 31 9 27 24
-3 10 -8 18 -12 18 -3 -1 -13 -3 -23 -6z"/>
<path d="M8067 4897 c-4 -15 -5 -32 -3 -36 6 -9 -37 -31 -59 -31 -24 0 -45
-31 -45 -67 0 -34 1 -35 28 -27 15 4 42 8 60 8 18 1 32 6 32 13 0 12 17 16
120 31 35 5 54 13 52 20 -1 7 2 22 8 32 10 19 7 20 -80 20 l-90 0 -2 -32 c-1
-18 -4 -4 -7 32 -5 54 -7 60 -14 37z"/>
<path d="M8942 4913 c-23 -9 -1 -23 36 -23 l37 1 -25 14 c-27 16 -29 16 -48 8z"/>
<path d="M9250 4909 c0 -38 13 -109 20 -109 5 0 6 10 3 21 -4 15 0 27 13 36
17 13 17 14 -9 40 -20 20 -27 23 -27 12z"/>
<path d="M8285 4900 c-15 -6 -8 -9 27 -9 26 -1 50 4 53 9 8 12 -52 12 -80 0z"/>
<path d="M8505 4900 c-3 -5 3 -10 14 -10 12 0 21 5 21 10 0 6 -6 10 -14 10 -8
0 -18 -4 -21 -10z"/>
<path d="M8640 4900 c-11 -7 -6 -10 22 -10 20 0 40 5 43 10 8 13 -45 13 -65 0z"/>
<path d="M8725 4900 c-3 -5 1 -10 9 -10 9 0 16 5 16 10 0 6 -4 10 -9 10 -6 0
-13 -4 -16 -10z"/>
<path d="M8885 4900 c3 -5 13 -10 21 -10 8 0 12 5 9 10 -3 6 -13 10 -21 10 -8
0 -12 -4 -9 -10z"/>
<path d="M9100 4900 c0 -5 9 -10 21 -10 11 0 17 5 14 10 -3 6 -13 10 -21 10
-8 0 -14 -4 -14 -10z"/>
<path d="M8651 4814 c-27 -45 -27 -46 11 -42 26 2 33 9 44 41 13 36 12 37 -11
37 -16 0 -29 -11 -44 -36z"/>
<path d="M7675 4535 c-14 -13 -25 -35 -25 -49 0 -28 21 -47 29 -25 9 29 60 69
88 69 27 1 27 1 9 15 -30 23 -74 18 -101 -10z"/>
<path d="M7754 4455 l-39 -34 28 -1 c29 0 67 31 67 55 0 23 -13 18 -56 -20z"/>
<path d="M7960 4400 c-9 -6 -10 -10 -3 -10 6 0 15 5 18 10 8 12 4 12 -15 0z"/>
<path d="M7790 4175 c0 -10 135 -74 142 -67 11 11 -1 42 -16 42 -6 1 -37 7
-68 14 -32 8 -58 13 -58 11z"/>
<path d="M7720 4152 c0 -14 68 -47 77 -38 11 10 -34 46 -58 46 -10 0 -19 -4
-19 -8z"/>
<path d="M7707 4059 c7 -7 15 -10 18 -7 3 3 -2 9 -12 12 -14 6 -15 5 -6 -5z"/>
<path d="M7743 3962 c21 -23 21 -36 1 -56 -14 -15 -12 -18 23 -32 21 -9 46
-20 56 -26 23 -12 35 17 18 43 -9 16 -8 19 8 19 17 0 31 18 31 40 0 4 -28 13
-63 19 -88 15 -93 15 -74 -7z"/>
<path d="M7520 3880 c0 -5 14 -10 32 -10 36 0 35 4 -4 14 -17 4 -28 2 -28 -4z"/>
<path d="M7456 3851 c18 -17 103 -43 115 -35 8 4 -12 14 -52 25 -75 21 -76 22
-63 10z"/>
<path d="M7420 3799 c0 -29 53 -79 84 -79 19 0 26 5 26 18 0 22 -22 43 -67 66
-41 20 -43 20 -43 -5z"/>
<path d="M7706 3802 c-2 -4 4 -21 15 -38 37 -57 17 -124 -37 -124 -16 0 -38
-13 -58 -34 l-32 -35 44 -31 c52 -36 44 -42 104 77 37 74 40 86 29 109 -13 30
-8 42 12 26 14 -12 27 -7 27 9 0 18 -95 55 -104 41z"/>
<path d="M6786 3084 c-4 -11 4 -19 29 -29 18 -8 38 -21 42 -28 10 -17 63 -31
63 -18 0 6 -9 15 -19 21 -11 5 -35 24 -53 40 -36 34 -53 37 -62 14z"/>
<path d="M7016 2895 c4 -8 10 -15 15 -15 5 0 9 -9 9 -21 0 -11 -4 -17 -10 -14
-13 8 -13 -6 0 -39 5 -14 16 -26 25 -26 11 0 15 12 15 53 0 55 -12 77 -42 77
-11 0 -15 -5 -12 -15z"/>
<path d="M6964 2736 c-4 -9 -36 -18 -90 -26 l-86 -12 28 -29 c33 -35 42 -36
46 -6 3 19 9 22 48 23 60 2 62 3 84 19 16 12 17 17 6 30 -16 19 -29 19 -36 1z"/>
<path d="M9461 4103 c-56 -54 -69 -71 -61 -83 8 -12 18 -7 56 34 25 26 47 46
50 43 2 -2 -12 -45 -32 -95 l-36 -91 27 -80 c25 -77 27 -80 51 -71 29 12 62 0
90 -31 59 -66 61 -136 4 -245 -22 -43 -46 -81 -52 -85 -27 -17 6 -22 59 -11
64 13 145 51 151 70 6 21 -36 13 -99 -19 -33 -16 -65 -29 -71 -27 -16 6 93
128 114 128 11 0 28 -5 40 -11 11 -6 22 -9 24 -7 8 9 -27 122 -61 195 -36 78
-37 79 -90 57 -17 -7 -17 -3 7 27 19 26 24 39 17 52 -9 15 -14 15 -59 -8 -27
-14 -56 -25 -64 -25 -32 0 -34 58 -6 223 12 66 19 121 17 124 -3 2 -37 -27
-76 -64z"/>
<path d="M4865 5510 c-163 -12 -174 -17 -175 -84 0 -16 3 -15 21 8 27 35 69
56 121 60 60 5 100 -9 151 -54 71 -63 104 -49 95 41 -3 34 -3 34 -58 35 -30 1
-100 -2 -155 -6z"/>
<path d="M7075 5440 c-3 -5 3 -10 14 -10 11 0 23 5 26 10 3 6 -3 10 -14 10
-11 0 -23 -4 -26 -10z"/>
<path d="M7480 5407 c0 -27 -4 -37 -12 -34 -7 2 -13 18 -13 35 0 29 -3 32 -32
32 -34 0 -45 -12 -57 -65 -6 -24 -5 -28 5 -17 7 6 17 12 21 12 9 0 10 -55 2
-88 -5 -18 -9 -20 -20 -11 -11 9 -14 8 -14 -5 0 -9 -5 -16 -11 -16 -16 0 -4
-80 13 -91 16 -10 33 10 55 64 31 76 43 29 22 -90 -6 -35 -15 -63 -20 -63 -5
0 -9 -4 -9 -10 0 -6 40 -10 100 -10 55 0 100 2 100 5 0 19 -47 65 -67 65 -25
0 -30 -19 -11 -38 6 -6 9 -15 5 -18 -10 -11 -37 16 -37 37 0 11 -7 19 -15 19
-8 0 -15 9 -15 20 0 11 4 20 10 20 5 0 7 21 3 50 -4 31 -2 50 4 50 12 0 43
-60 43 -84 0 -11 9 -16 30 -16 30 0 30 0 30 58 0 67 -6 78 -29 55 -15 -16 -16
-13 -21 33 -5 49 5 69 21 43 12 -19 11 -6 -2 46 -10 39 -14 43 -45 47 -34 4
-34 3 -34 -35z m-30 -100 c0 -8 -9 -22 -20 -32 -23 -20 -24 -17 -10 19 10 27
30 35 30 13z m64 -17 c15 -31 9 -39 -12 -18 -11 11 -17 48 -8 48 3 0 11 -13
20 -30z"/>
<path d="M7630 5437 c0 -5 -11 -6 -24 -3 -24 6 -24 5 11 -49 38 -58 65 -74 88
-55 16 13 19 62 6 95 -6 14 -18 20 -44 21 -21 0 -37 -3 -37 -9z"/>
<path d="M7815 5440 c3 -5 15 -10 26 -10 11 0 17 5 14 10 -3 6 -15 10 -26 10
-11 0 -17 -4 -14 -10z"/>
<path d="M8321 5441 c-9 -6 -10 -11 -2 -15 6 -4 11 -3 11 3 0 5 10 12 23 14
19 4 19 4 2 5 -11 1 -26 -2 -34 -7z"/>
<path d="M8547 5434 c3 -8 -3 -21 -13 -28 -16 -12 -22 -11 -47 10 -16 13 -41
24 -55 23 l-27 -1 30 -10 c36 -13 55 -27 55 -40 0 -6 -22 -9 -55 -6 -30 3 -55
4 -55 3 0 -1 18 -15 40 -30 50 -35 45 -43 -8 -16 -32 16 -141 61 -149 61 -1 0
6 -14 15 -30 15 -28 16 -32 1 -43 -9 -7 -14 -17 -12 -23 2 -6 -5 -14 -17 -17
-33 -8 -23 -27 15 -27 23 0 33 -4 30 -12 -2 -7 11 -30 29 -51 l34 -38 73 3 73
3 -42 42 c-72 71 -57 76 89 33 48 -14 75 -29 93 -50 16 -20 34 -30 53 -30 26
0 24 3 -40 68 -65 65 -87 106 -87 159 0 31 22 29 72 -7 22 -16 45 -30 50 -30
16 0 68 61 68 79 0 14 -14 17 -109 18 -92 1 -109 -1 -104 -13z"/>
<path d="M8970 5415 c0 -37 10 -44 30 -20 7 8 20 15 30 15 56 0 11 -117 -83
-217 l-31 -33 32 0 c19 0 32 5 32 13 0 20 60 54 138 77 95 29 109 19 57 -44
l-37 -46 73 0 74 0 34 41 c27 33 31 43 20 50 -9 6 5 9 41 10 l55 0 -45 21 -45
20 30 14 c17 7 37 13 46 14 9 0 33 11 53 25 29 20 38 22 42 11 13 -33 -1 -51
-41 -57 -30 -5 -33 -7 -12 -8 32 -1 37 -21 5 -22 -13 0 -17 -3 -10 -6 12 -5
125 11 165 23 17 5 17 7 2 25 -16 17 -20 17 -46 4 -43 -23 -52 -18 -28 16 l21
30 -28 30 c-23 24 -35 29 -73 28 -44 -1 -45 -2 -18 -12 15 -6 27 -13 27 -16 0
-8 -119 -81 -131 -81 -19 0 -13 48 8 72 10 12 -12 6 -68 -18 -46 -20 -95 -40
-109 -45 l-25 -9 24 18 c69 48 69 49 7 44 -53 -4 -58 -3 -54 14 2 11 18 24 38
31 34 11 34 12 7 12 -17 1 -37 -8 -50 -23 -19 -20 -25 -22 -40 -11 -9 7 -17
20 -17 29 0 13 -10 16 -50 16 l-50 0 0 -35z"/>
<path d="M9263 5443 c11 -3 16 -11 13 -19 -4 -11 -2 -12 14 -1 18 11 19 12 2
19 -9 3 -24 6 -32 6 -9 0 -8 -2 3 -5z"/>
<path d="M5276 5431 c-10 -16 36 -63 83 -83 25 -11 64 -22 86 -25 22 -2 60
-11 84 -19 25 -7 46 -12 48 -10 3 2 -3 18 -11 35 -19 35 -67 74 -119 96 -39
16 -162 21 -171 6z"/>
<path d="M6959 5423 c-13 -17 -13 -17 6 -3 11 8 22 16 24 17 2 2 0 3 -6 3 -6
0 -17 -8 -24 -17z"/>
<path d="M8030 5426 c0 -2 7 -19 15 -37 l14 -34 1 38 c0 26 -4 37 -15 37 -8 0
-15 -2 -15 -4z"/>
<path d="M2217 5407 c-8 -21 8 -39 29 -35 27 5 25 42 -2 46 -12 2 -24 -3 -27
-11z"/>
<path d="M2300 5388 c0 -16 3 -19 9 -10 6 11 11 10 25 -3 18 -18 17 -36 -1
-42 -6 -2 -18 3 -26 11 -13 13 -17 13 -27 1 -11 -13 -50 -12 -74 2 -6 3 -8 3
-4 -2 4 -4 17 -13 30 -19 34 -17 34 -36 0 -36 -38 0 -49 -15 -47 -67 1 -40 18
-73 36 -73 4 0 9 28 11 63 l3 62 80 6 c44 3 72 6 63 7 -21 2 -24 28 -5 35 19
6 -27 81 -52 85 -16 3 -21 -2 -21 -20z m26 -83 c18 -14 17 -14 -13 -15 -31 0
-41 9 -26 23 10 10 17 9 39 -8z"/>
<path d="M7094 5368 c-30 -24 -74 -71 -70 -75 1 -2 21 6 43 17 28 13 44 29 51
50 13 36 13 36 -24 8z"/>
<path d="M7810 5369 c0 -16 56 -66 81 -72 17 -5 12 4 -22 39 -44 44 -59 53
-59 33z"/>
<path d="M6930 5325 c0 -19 4 -23 18 -18 48 17 55 43 12 43 -25 0 -30 -4 -30
-25z"/>
<path d="M7296 5334 c-9 -24 -7 -54 4 -54 6 0 10 16 10 35 0 38 -4 44 -14 19z"/>
<path d="M7940 5341 c0 -15 28 -32 75 -46 41 -13 45 -13 45 4 0 10 -15 24 -35
34 -38 18 -85 23 -85 8z"/>
<path d="M8870 5336 c0 -13 20 -26 41 -26 5 0 9 9 9 20 0 15 -7 20 -25 20 -15
0 -25 -6 -25 -14z"/>
<path d="M8148 5328 c5 -5 16 -8 23 -6 8 3 3 7 -10 11 -17 4 -21 3 -13 -5z"/>
<path d="M2440 5271 c24 -20 40 -26 40 -16 0 2 -15 12 -32 20 l-33 16 25 -20z"/>
<path d="M8700 5276 c0 -7 9 -25 20 -39 11 -14 20 -37 20 -51 0 -26 1 -26 80
-26 78 0 80 1 80 24 0 13 3 31 6 40 5 12 0 16 -17 16 -13 0 -42 11 -64 25 -45
28 -125 35 -125 11z"/>
<path d="M7674 5238 c11 -7 37 -29 59 -48 26 -22 36 -28 29 -15 -14 27 -51 65
-62 65 -4 0 -17 2 -27 5 -16 5 -16 5 1 -7z"/>
<path d="M6963 5233 c-35 -5 -38 -9 -23 -33 6 -9 5 -17 -3 -22 -7 -4 20 -8 59
-8 76 0 99 12 92 47 -2 14 -13 18 -48 19 -25 1 -60 -1 -77 -3z"/>
<path d="M7215 5232 c-14 -10 -49 -52 -43 -52 12 0 68 49 61 53 -5 3 -13 3
-18 -1z"/>
<path d="M7846 5231 c-4 -6 -5 -25 -1 -41 l7 -30 99 0 c64 0 98 4 94 10 -3 6
-20 10 -37 10 -30 0 -30 0 -14 25 16 24 15 25 -2 25 -11 0 -46 3 -79 6 -41 5
-63 3 -67 -5z"/>
<path d="M9685 5232 c-16 -1 -37 -5 -45 -8 -13 -5 -12 -7 3 -15 26 -15 20 -29
-12 -29 -37 0 -43 -10 -20 -32 15 -14 18 -14 23 -2 6 16 36 19 36 3 0 -6 -5
-19 -10 -30 -14 -26 -6 -24 55 11 73 42 80 52 52 77 -27 25 -43 30 -82 25z"/>
<path d="M6873 5185 c0 -22 2 -30 4 -17 2 12 2 30 0 40 -3 9 -5 -1 -4 -23z"/>
<path d="M8094 5194 c3 -9 6 -20 6 -25 0 -5 32 -9 72 -9 39 0 69 2 67 4 -2 3
-37 14 -78 25 -62 17 -72 18 -67 5z"/>
<path d="M9465 5185 l-70 -23 73 -1 c39 -1 72 3 72 8 0 5 3 16 6 25 8 20 5 20
-81 -9z"/>
<path d="M8527 5180 c4 -16 14 -20 47 -20 l41 1 -35 19 c-45 25 -59 25 -53 0z"/>
<path d="M9060 5180 l-35 -19 41 -1 c33 0 43 4 47 20 6 25 -8 25 -53 0z"/>
<path d="M4477 5143 c-18 -18 -5 -42 26 -48 17 -4 38 -12 45 -17 9 -8 12 -1
12 31 0 41 0 41 -38 41 -21 0 -42 -3 -45 -7z"/>
<path d="M7398 5143 c-19 -5 -23 -29 -9 -52 9 -14 15 -9 30 33 6 14 7 25 3 25
-4 -1 -15 -3 -24 -6z"/>
<path d="M2180 5130 c0 -5 7 -10 15 -10 8 0 15 5 15 10 0 6 -7 10 -15 10 -8 0
-15 -4 -15 -10z"/>
<path d="M2486 5121 c-4 -7 -5 -15 -2 -18 9 -9 19 4 14 18 -4 11 -6 11 -12 0z"/>
<path d="M7625 5110 c-3 -5 2 -21 11 -35 l16 -25 292 0 c288 0 291 1 266 20
-14 10 -22 22 -18 25 8 8 50 -13 61 -31 6 -11 113 -13 566 -14 l558 0 27 25
c15 14 31 25 37 25 14 0 -9 -39 -24 -42 -22 -4 418 -13 455 -9 l38 3 -21 29
c-16 22 -28 29 -55 29 -30 0 -146 -20 -209 -36 -16 -4 -17 -3 -5 5 12 9 9 11
-14 11 -21 0 -27 4 -22 15 5 13 -18 15 -165 15 -151 0 -174 -2 -212 -21 -42
-20 -42 -20 -17 0 l25 21 -62 0 c-45 0 -63 -4 -63 -13 0 -22 -26 -51 -39 -43
-9 6 -8 14 4 32 l15 24 -59 0 c-52 0 -67 -5 -106 -32 -46 -33 -68 -32 -47 2
18 29 16 30 -38 30 -47 0 -63 -11 -40 -25 16 -10 12 -25 -7 -25 -10 0 -31 11
-47 25 -24 21 -39 25 -93 25 l-63 0 15 -23 c14 -22 12 -37 -6 -37 -5 0 -15 14
-24 30 -15 28 -19 30 -73 30 l-57 0 25 -20 c20 -16 21 -19 5 -13 -11 3 -29 12
-40 20 -14 10 -65 13 -192 13 -149 0 -172 -2 -167 -15 8 -20 -25 -20 -54 1
-12 8 -28 14 -35 11 -6 -2 5 -12 26 -22 60 -28 36 -29 -66 -1 -72 20 -118 26
-195 26 -56 0 -104 -4 -107 -10z m229 -16 c32 -12 15 -24 -35 -24 -45 0 -50 2
-39 15 13 15 47 20 74 9z m2000 0 c32 -12 15 -24 -34 -24 -27 0 -50 4 -50 9 0
18 53 27 84 15z"/>
<path d="M12332 4950 l-334 -5 56 -29 c42 -22 62 -27 88 -22 18 4 157 7 309 6
152 0 279 3 283 7 10 10 -35 53 -53 51 -9 -2 -166 -5 -349 -8z"/>
<path d="M10227 4902 c81 -77 191 -220 237 -310 23 -45 38 -40 21 8 -8 21 -26
92 -40 157 -15 65 -29 121 -31 125 -8 12 -32 9 -36 -4 -3 -8 -15 -5 -36 11
-18 12 -62 30 -98 41 l-66 18 49 -46z"/>
<path d="M11588 4943 c-9 -5 -27 -21 -39 -37 l-23 -29 50 8 c27 4 115 7 196 6
82 0 148 1 148 3 0 3 -16 14 -35 26 -31 19 -54 23 -158 26 -67 2 -130 1 -139
-3z"/>
<path d="M12812 4933 c9 -10 27 -41 41 -69 l26 -51 2 -579 c1 -320 -3 -579 -7
-581 -15 -5 -47 74 -41 99 7 27 -6 53 -22 44 -6 -4 -11 -3 -11 3 0 5 9 13 21
16 14 5 18 12 13 23 -6 15 -10 92 -13 295 -1 33 -5 57 -12 57 -7 0 -9 -28 -6
-81 6 -119 2 -129 -43 -129 -86 0 -113 68 -67 172 35 78 95 168 113 168 9 0
14 6 11 13 -2 6 0 24 4 40 6 21 4 27 -7 27 -9 0 -12 5 -8 12 4 7 7 68 6 138
-1 69 -2 137 -2 153 0 15 -3 27 -7 27 -5 0 -7 -48 -6 -107 1 -60 -1 -100 -4
-90 -4 16 -11 17 -46 11 -57 -9 -66 -10 -114 -1 -84 14 -153 110 -176 245
l-11 62 -42 0 c-38 0 -46 -5 -76 -42 -18 -23 -37 -50 -43 -59 -5 -10 -26 -45
-45 -78 l-35 -61 -70 0 c-120 0 -462 -27 -577 -45 -42 -7 -34 10 23 45 28 17
56 35 62 41 7 5 26 20 43 32 58 40 195 149 192 151 -2 2 -65 1 -140 -2 -111
-3 -138 -7 -138 -19 0 -15 -45 -108 -76 -158 -44 -70 -114 -155 -191 -231 -46
-44 -83 -85 -83 -90 0 -5 4 -4 8 1 6 9 44 31 122 72 14 7 52 24 85 39 179 78
293 100 389 73 50 -14 144 -102 177 -166 46 -91 24 -189 -62 -267 -28 -27 -30
-31 -13 -37 11 -4 24 -8 30 -8 11 -1 269 168 363 237 24 17 48 32 52 32 12 0
289 134 347 168 l52 31 0 -31 c0 -17 -3 -29 -6 -25 -6 6 -59 -33 -140 -103
-22 -19 -51 -44 -65 -55 -13 -11 -50 -41 -80 -68 -42 -35 -79 -55 -140 -76
-127 -43 -329 -123 -329 -130 0 -4 33 -19 73 -34 60 -22 91 -27 163 -27 49 0
107 -5 129 -10 46 -10 85 -50 85 -86 0 -19 8 -28 34 -39 19 -8 37 -19 41 -25
3 -5 11 -10 17 -10 7 0 7 5 -1 14 -21 26 44 69 136 90 75 17 82 21 86 45 2 14
5 4 5 -24 1 -35 -1 -46 -8 -35 -8 12 -13 13 -30 2 -11 -6 -50 -28 -87 -48 -38
-20 -69 -37 -71 -39 -6 -5 161 -75 179 -75 4 0 9 8 11 18 3 10 6 5 9 -14 5
-28 3 -30 -20 -26 -15 2 -35 7 -46 12 -53 24 -203 82 -230 90 -16 5 -66 22
-110 39 -44 17 -86 31 -92 31 -7 0 -13 4 -13 8 0 5 -21 15 -47 24 -138 47
-229 81 -239 89 -6 5 -13 6 -17 3 -3 -3 -17 2 -31 11 -14 10 -26 14 -26 10 0
-4 -11 0 -25 9 -13 9 -31 16 -40 16 -8 0 -15 5 -15 11 0 6 -9 9 -20 6 -11 -3
-20 -2 -20 3 0 4 -29 17 -65 29 -36 11 -73 25 -83 30 -9 6 -53 22 -97 36 -44
15 -91 32 -105 40 -40 21 -374 148 -420 159 -8 2 -28 9 -44 15 -16 6 -49 16
-75 22 -50 12 -69 16 -103 25 -13 3 -34 7 -48 10 -14 2 -30 6 -37 9 -16 5 -24
-35 -10 -49 14 -14 99 -33 178 -41 57 -5 92 -16 189 -61 30 -15 64 -30 75 -35
54 -22 257 -104 313 -125 35 -13 76 -31 92 -39 16 -8 44 -15 62 -15 34 0 79
-19 48 -20 -8 0 17 -14 55 -31 39 -16 84 -36 100 -43 17 -8 41 -17 55 -21 14
-4 48 -18 75 -31 28 -12 86 -37 130 -54 44 -17 98 -40 120 -50 22 -10 51 -21
65 -25 14 -4 59 -22 100 -40 41 -18 111 -48 155 -65 44 -18 85 -36 90 -40 6
-4 37 -18 70 -31 87 -33 237 -38 293 -10 22 11 42 27 46 36 10 28 7 130 -19
645 -29 547 -27 537 -100 615 -37 40 -46 45 -85 45 -40 0 -42 -1 -28 -17z
m-2015 -529 c-3 -3 -12 -4 -19 -1 -8 3 -5 6 6 6 11 1 17 -2 13 -5z m83 -18
c25 -8 36 -15 25 -15 -11 0 -33 6 -50 14 -39 18 -31 18 25 1z m285 -94 c-5 -6
-74 18 -80 27 -2 5 15 1 40 -8 24 -8 42 -17 40 -19z m1642 -464 c-3 -7 -5 -2
-5 12 0 14 2 19 5 13 2 -7 2 -19 0 -25z"/>
<path d="M11070 4926 c-68 -20 -184 -66 -195 -78 -21 -22 128 0 159 23 20 15
28 17 24 7 -5 -13 0 -14 35 -7 23 5 95 8 160 9 l119 0 28 30 28 30 -156 -1
c-97 0 -174 -5 -202 -13z"/>
<path d="M2313 4862 c-58 -29 -69 -52 -25 -52 18 0 23 3 14 9 -9 5 -2 15 28
35 22 14 40 28 40 31 0 7 2 8 -57 -23z"/>
<path d="M2188 4873 c7 -3 16 -2 19 1 4 3 -2 6 -13 5 -11 0 -14 -3 -6 -6z"/>
<path d="M10060 4850 c0 -6 8 -13 18 -17 9 -3 58 -37 108 -74 83 -62 139 -116
172 -165 11 -16 12 -12 9 33 -8 101 -88 189 -200 219 -62 16 -107 18 -107 4z"/>
<path d="M12717 4853 c-24 -4 -33 -15 -54 -59 l-24 -54 27 -35 c14 -19 34 -35
43 -35 9 0 35 17 57 38 34 32 40 43 40 77 -1 22 -6 40 -12 40 -6 0 -18 8 -28
18 -10 9 -18 16 -19 16 -1 -1 -15 -4 -30 -6z"/>
<path d="M10700 4706 c32 -63 61 -134 65 -158 11 -64 20 -75 67 -83 24 -4 66
-14 95 -22 l51 -16 50 51 c71 73 232 172 337 208 14 4 -10 14 -78 30 -55 14
-129 40 -165 59 l-67 34 -100 -20 c-83 -16 -108 -17 -148 -8 -26 6 -50 10 -52
7 -2 -2 40 -27 95 -56 l98 -52 131 -1 c72 0 133 -4 136 -8 2 -5 -23 -19 -58
-31 -34 -12 -101 -38 -149 -56 -48 -19 -92 -34 -97 -34 -5 0 -60 61 -122 135
-145 172 -169 177 -89 21z"/>
<path d="M10010 4695 c0 -72 1 -76 26 -85 14 -6 53 -10 87 -10 34 0 79 -4 100
-9 46 -11 49 2 10 44 -35 38 -85 75 -146 109 -74 40 -77 38 -77 -49z"/>
<path d="M11520 4437 c-35 -12 -130 -95 -130 -115 0 -7 12 -6 37 4 55 23 225
54 298 54 39 0 65 4 65 11 0 5 -25 21 -55 35 -61 26 -151 31 -215 11z"/>
<path d="M10694 4431 c4 -5 0 -12 -6 -14 -8 -4 -9 -6 -2 -6 6 -1 17 6 24 14
10 12 9 15 -4 15 -10 0 -15 -4 -12 -9z"/>
<path d="M11630 4309 c-64 -7 -129 -28 -157 -51 -10 -8 5 -18 69 -44 123 -50
178 -59 265 -45 40 7 77 19 83 26 14 16 -4 93 -23 101 -29 10 -177 19 -237 13z"/>
<path d="M12808 4294 c-5 -4 -8 -28 -8 -53 0 -32 3 -42 11 -34 5 5 9 29 7 53
-2 23 -6 38 -10 34z"/>
</g>
</svg>
