<?xml version="1.0" standalone="no"?>
<!DOCTYPE svg PUBLIC "-//W3C//DTD SVG 20010904//EN"
 "http://www.w3.org/TR/2001/REC-SVG-20010904/DTD/svg10.dtd">
<svg version="1.0" xmlns="http://www.w3.org/2000/svg"
 width="2880.000000pt" height="1620.000000pt" viewBox="0 0 2880.000000 1620.000000"
 preserveAspectRatio="xMidYMid meet">

<g transform="translate(0.000000,1620.000000) scale(0.100000,-0.100000)"
fill="#000000" stroke="none">
<path d="M18462 9850 c-21 -9 -23 -14 -20 -87 3 -77 3 -78 31 -81 25 -3 27 -6
27 -53 0 -27 5 -49 10 -49 6 0 10 -9 10 -19 0 -16 -8 -20 -42 -23 -39 -3 -43
-6 -46 -31 -2 -18 -12 -31 -25 -37 -12 -4 -39 -24 -61 -44 l-39 -36 -148 0
-149 0 0 24 c0 13 -7 27 -16 30 -21 8 -318 8 -339 0 -9 -4 -20 -17 -25 -29 -8
-21 -16 -22 -172 -30 -89 -5 -188 -8 -218 -7 -52 1 -222 44 -245 61 -5 5 -77
23 -160 41 -82 18 -190 43 -240 56 -221 56 -584 134 -600 127 -13 -4 -16 -3
-11 6 6 9 2 12 -10 10 -11 -2 -26 1 -33 6 -8 5 -161 11 -340 13 -180 2 -327 8
-329 13 -2 5 -34 9 -72 9 l-67 0 -7 -31 c-10 -53 -7 -1245 4 -1273 9 -24 14
-26 70 -26 45 0 62 4 66 15 5 13 51 15 324 15 317 0 319 0 447 29 70 17 368
84 660 150 l533 121 201 0 202 0 -7 -31 c-3 -17 -6 -127 -7 -243 0 -154 -3
-204 -11 -183 -9 25 -14 27 -63 27 -50 0 -54 -2 -64 -30 -8 -25 -16 -30 -41
-30 -25 0 -33 5 -41 30 -10 28 -15 30 -60 30 -44 0 -50 -3 -64 -30 l-16 -30
-139 0 -140 0 0 -45 c0 -25 5 -45 10 -45 6 0 10 -4 10 -10 0 -6 -83 -10 -228
-10 -217 0 -232 -1 -302 -25 l-73 -25 -7048 -2 -7049 -3 -8 40 -8 40 -299 0
-299 0 -7 -33 c-4 -18 -9 -35 -11 -37 -3 -3 -213 -5 -469 -5 -255 0 -504 -3
-553 -7 l-88 -6 -15 -36 c-36 -84 -25 -407 14 -447 13 -13 49 -15 227 -14 116
1 362 1 547 1 l335 -1 10 -37 c8 -32 18 -42 79 -75 l70 -38 159 0 159 0 72 40
c72 40 85 54 85 90 0 18 10 20 102 22 57 2 2185 2 4731 0 l4627 -2 0 -370 0
-370 63 0 62 0 -1 -57 c-1 -44 -5 -57 -15 -54 -16 5 -24 4 -94 -5 -27 -4 -251
-8 -496 -11 l-447 -4 -6 35 c-8 44 -17 49 -66 41 -34 -6 -41 -11 -48 -38 l-8
-32 -216 -3 -217 -2 -3 22 c-3 23 -3 23 -207 26 -130 1 -208 -1 -215 -8 -5 -5
-20 -10 -33 -10 -16 0 -23 -6 -23 -20 0 -11 -6 -22 -12 -24 -7 -3 -403 -7
-880 -10 l-868 -6 -6 27 c-13 52 -16 53 -184 53 l-158 0 -6 25 c-9 36 -62 36
-78 0 -10 -22 -13 -23 -20 -10 -14 24 -67 19 -77 -7 -5 -13 -25 -39 -45 -57
l-36 -35 0 -89 0 -90 45 -48 c25 -26 45 -53 45 -59 0 -7 14 -10 33 -8 27 2 33
8 35 31 4 29 16 36 26 12 3 -9 18 -15 35 -15 16 0 31 6 35 15 4 12 27 15 119
15 62 0 117 4 123 9 5 5 27 11 49 13 31 2 42 8 50 26 l10 23 870 -6 c479 -4
876 -8 883 -10 6 -3 12 -18 12 -35 l0 -30 204 0 c126 0 207 4 211 10 3 6 17
10 30 10 12 0 25 7 29 15 4 13 39 15 225 15 l221 0 6 -25 c4 -16 13 -25 25
-25 23 0 61 20 72 38 6 8 39 12 107 12 l100 0 19 -39 c24 -46 44 -56 81 -38
18 10 33 11 44 5 11 -6 26 -5 44 5 15 7 44 12 64 9 20 -2 38 0 42 6 3 5 25 7
50 5 24 -3 46 -1 50 5 3 6 23 8 45 5 21 -3 41 -1 45 5 3 5 26 7 51 4 28 -3 45
-1 45 6 0 6 16 8 40 5 22 -3 45 -1 52 4 8 6 146 11 354 12 306 2 342 1 354
-14 16 -19 88 -57 140 -74 19 -6 57 -22 84 -36 78 -39 138 -32 203 25 19 17
40 30 48 30 8 0 41 22 74 50 105 87 201 246 201 332 l0 41 653 -7 c358 -3 830
-8 1047 -11 217 -3 616 -8 885 -11 l490 -6 210 -75 c116 -41 260 -92 320 -113
61 -21 175 -64 255 -95 80 -31 215 -82 300 -114 l155 -58 193 -13 c106 -7 194
-16 196 -19 8 -14 -16 -436 -24 -439 -6 -2 -10 -19 -10 -38 0 -27 5 -35 23
-39 22 -5 651 -60 1306 -115 201 -17 371 -28 378 -26 16 6 17 48 2 63 -8 8 -8
76 0 244 6 128 12 233 14 234 10 6 337 -17 354 -24 13 -6 38 -42 62 -88 49
-98 142 -195 204 -213 27 -8 197 -15 482 -21 380 -7 451 -6 517 7 103 20 160
54 216 126 65 83 77 79 119 -47 88 -262 189 -795 208 -1100 3 -55 9 -120 12
-144 l6 -44 262 6 c225 5 281 10 401 32 130 25 147 31 269 95 72 38 202 95
290 128 143 53 177 62 322 82 l163 22 192 -21 c307 -32 353 -34 424 -21 62 12
73 18 204 126 149 122 305 285 426 446 42 54 81 101 87 103 21 8 1147 46 1158
40 21 -13 52 -92 65 -164 7 -42 13 -146 14 -231 0 -178 4 -188 74 -215 43 -17
48 -16 113 4 65 19 93 20 557 21 336 1 492 -2 499 -9 7 -7 85 -11 221 -11 307
0 452 -21 715 -104 225 -71 235 -72 247 -10 12 64 -4 801 -25 1139 -12 194
-25 582 -31 940 -12 659 -19 749 -62 791 l-23 23 -225 -20 c-188 -17 -274 -20
-523 -16 l-297 5 -20 -25 c-11 -14 -20 -35 -20 -45 0 -18 -5 -16 -37 12 -42
38 -111 71 -198 97 -56 17 -139 18 -1205 21 -1272 3 -1224 5 -1366 -63 -85
-41 -115 -75 -138 -157 -23 -79 -21 -97 11 -109 51 -19 9 -32 -111 -33 -64 0
-116 1 -116 4 0 3 -19 5 -42 6 -24 0 -92 8 -153 18 -60 10 -153 19 -205 20
-86 3 -107 -1 -225 -36 -71 -22 -148 -42 -170 -45 -40 -6 -56 -6 -307 -3 -154
2 -197 -8 -273 -58 -27 -18 -61 -35 -75 -38 -39 -9 -72 -23 -104 -43 l-28 -19
57 5 c31 2 71 12 88 22 18 9 52 23 77 30 25 7 52 16 60 19 8 3 31 6 51 7 19 1
40 4 46 8 6 4 22 3 34 -2 22 -8 21 -9 -21 -31 -25 -12 -54 -31 -65 -41 -23
-21 -100 -50 -109 -42 -3 3 -11 1 -19 -5 -20 -17 -98 -41 -152 -47 -28 -3 -81
-9 -120 -14 -38 -4 -73 -6 -78 -4 -4 2 -43 6 -87 7 -58 2 -86 8 -106 22 -15
10 -41 27 -58 36 -30 17 -29 17 89 14 66 -2 130 1 142 5 13 5 42 5 66 0 24 -4
52 -4 62 0 11 4 16 8 10 8 -5 1 -3 6 5 11 13 8 12 10 -3 10 -32 0 -13 22 45
54 30 17 73 45 94 63 34 28 37 33 24 46 -51 48 -164 61 -370 42 -94 -8 -121
-18 -170 -60 -14 -12 -63 -45 -110 -74 -47 -28 -96 -60 -110 -71 -28 -23 -210
-94 -218 -86 -3 3 1 12 8 21 25 30 2 24 -51 -13 -30 -21 -92 -60 -139 -86 -55
-30 -91 -57 -102 -77 -20 -34 -41 -30 -32 7 l6 24 -106 -7 c-89 -5 -107 -4
-104 8 2 10 -7 14 -29 14 -17 0 -35 3 -39 8 -8 8 -6 8 71 12 198 12 269 29
380 89 68 37 156 73 230 96 67 21 229 113 265 150 27 28 84 44 205 57 48 6
-44 10 -295 13 -350 5 -367 6 -412 27 -34 16 -48 28 -48 43 0 16 -6 20 -30 20
l-30 0 -2 243 -3 242 -377 3 -378 2 0 45 0 45 -111 0 -110 0 -10 30 c-10 29
-13 30 -69 30 -56 0 -59 -1 -69 -30 -8 -23 -16 -30 -36 -30 -20 0 -28 7 -36
30 -10 29 -13 30 -69 30 -56 0 -59 -1 -69 -30 -7 -22 -16 -30 -34 -30 -18 0
-28 8 -37 30 -12 28 -16 30 -66 30 -48 0 -55 -3 -68 -27 -14 -27 -15 -23 -16
63 0 50 -3 159 -7 241 l-6 151 119 7 c108 7 149 4 454 -36 l335 -44 520 -8
c286 -4 589 -9 674 -10 111 -1 158 1 167 10 27 27 39 156 38 428 0 264 -11
382 -36 413 -9 10 -93 11 -412 6 -221 -3 -415 -9 -431 -13 -17 -5 -55 -5 -85
0 -135 19 -322 10 -642 -31 -172 -22 -320 -42 -328 -44 -8 -2 18 -4 58 -5 39
0 72 -5 72 -11 0 -18 -49 -22 -147 -10 -54 7 -155 14 -225 17 -111 5 -128 8
-128 22 0 37 -20 41 -181 41 -168 0 -203 -7 -214 -39 -5 -18 -15 -21 -63 -22
l-57 -1 40 -12 c22 -7 39 -18 38 -24 -2 -7 2 -12 8 -12 5 0 8 -4 5 -9 -3 -4
-31 4 -63 19 -32 15 -81 31 -109 35 -42 5 -59 14 -90 46 -21 21 -47 39 -59 39
-44 0 -64 12 -67 39 -3 24 -7 26 -50 29 -39 3 -48 7 -48 21 0 11 7 21 15 25
10 4 15 20 15 50 0 41 2 45 28 48 27 3 27 4 30 81 3 75 2 77 -23 87 -33 13
-452 12 -483 0z m-3202 -190 c10 -8 -5 -9 -50 -4 -36 4 -67 8 -69 10 -10 9
106 3 119 -6z m740 -42 c63 -21 127 -44 141 -49 14 -6 36 -10 50 -11 36 0 159
-27 181 -39 20 -11 40 -16 98 -26 19 -3 69 -23 110 -44 41 -20 91 -44 110 -52
20 -8 57 -33 83 -56 27 -22 53 -41 58 -41 6 0 34 -15 62 -33 74 -46 89 -54
125 -62 18 -3 32 -11 32 -16 0 -5 7 -9 15 -9 9 0 40 -13 71 -29 70 -38 129
-48 168 -28 16 9 35 13 42 10 8 -3 20 0 28 6 7 6 33 13 57 16 24 2 48 10 54
17 12 16 29 21 75 24 19 1 35 3 35 4 0 1 10 3 22 4 14 2 23 -4 27 -18 7 -27
-11 -46 -42 -46 -14 0 -33 -7 -43 -16 -10 -9 -32 -20 -51 -24 -40 -10 -127
-40 -150 -51 -22 -11 -98 -13 -123 -4 -17 6 -17 5 -5 -5 12 -9 9 -10 -15 -4
-16 4 -47 8 -68 9 -21 2 -41 5 -44 9 -4 3 -15 6 -26 6 -11 0 -36 9 -56 19 -44
23 -98 46 -130 56 -16 5 -20 10 -11 15 8 5 -5 20 -41 48 -30 23 -67 57 -82 77
-16 19 -32 33 -37 30 -12 -8 -70 35 -70 51 0 7 -8 10 -18 7 -25 -6 -80 16 -63
26 18 12 -20 25 -184 66 -172 42 -286 80 -390 131 -79 39 -82 39 -230 46 -82
3 -179 7 -214 7 -94 1 -69 11 45 18 55 3 101 7 102 9 2 1 45 0 95 -3 71 -4
118 -14 207 -45z m181 -35 c13 -15 12 -15 -11 -3 -34 17 -36 20 -18 20 9 0 22
-7 29 -17z m4317 -180 c-10 -2 -26 -2 -35 0 -10 3 -2 5 17 5 19 0 27 -2 18 -5z
m-44 -28 c-5 -12 -34 -28 -56 -30 -4 0 -16 -7 -27 -16 -27 -24 -66 -36 -55
-18 7 12 5 12 -9 1 -9 -8 -21 -11 -26 -7 -6 3 -18 -2 -28 -12 -10 -10 -32 -20
-48 -22 -17 -1 -33 -8 -36 -13 -4 -6 -16 -8 -28 -5 -12 3 -24 1 -27 -4 -7 -12
-101 -11 -109 1 -3 6 -16 10 -27 10 -44 0 -6 13 44 15 82 4 171 17 191 27 10
5 31 12 45 14 15 3 39 14 54 24 15 11 35 20 45 21 10 0 34 6 53 13 47 18 50
18 44 1z m-2869 -65 c-3 -5 -13 -10 -21 -10 -8 0 -12 5 -9 10 3 6 13 10 21 10
8 0 12 -4 9 -10z m-110 -20 c-3 -5 -10 -10 -16 -10 -5 0 -9 5 -9 10 0 6 7 10
16 10 8 0 12 -4 9 -10z m65 6 c0 -2 -7 -6 -15 -10 -8 -3 -15 -1 -15 4 0 6 7
10 15 10 8 0 15 -2 15 -4z m2735 -6 c-3 -5 -12 -10 -18 -10 -7 0 -6 4 3 10 19
12 23 12 15 0z m420 -50 c24 -26 4 -70 -32 -71 -16 -1 -37 -2 -48 -3 -24 -1
-68 29 -71 50 -1 8 9 17 22 20 13 3 24 10 24 14 0 24 82 16 105 -10z m-2905
-44 c0 -3 -4 -8 -10 -11 -5 -3 -10 -1 -10 4 0 6 5 11 10 11 6 0 10 -2 10 -4z
m170 -6 c0 -5 -2 -10 -4 -10 -3 0 -8 5 -11 10 -3 6 -1 10 4 10 6 0 11 -4 11
-10z m-1375 -90 c3 -5 1 -10 -4 -10 -6 0 -11 5 -11 10 0 6 2 10 4 10 3 0 8 -4
11 -10z m278 -174 c24 -19 25 -23 8 -21 -21 1 -51 22 -51 36 0 14 13 10 43
-15z m212 -66 c3 -6 -1 -7 -9 -4 -18 7 -21 14 -7 14 6 0 13 -4 16 -10z m2210
-11 c11 -17 -1 -21 -15 -4 -8 9 -8 15 -2 15 6 0 14 -5 17 -11z m-925 -165 l36
-34 334 0 334 0 39 38 38 37 124 4 125 3 0 -221 0 -221 -54 0 c-50 0 -54 -2
-66 -30 -8 -19 -20 -30 -32 -30 -12 0 -23 11 -29 30 -10 28 -14 30 -65 30 -50
0 -55 -2 -69 -31 -21 -39 -63 -38 -83 4 -12 24 -18 27 -67 27 -50 0 -54 -2
-64 -30 -8 -25 -15 -30 -41 -30 -26 0 -34 5 -43 30 -11 28 -15 30 -64 30 -48
0 -54 -2 -68 -31 -21 -39 -63 -38 -83 4 -12 24 -18 27 -67 27 -50 0 -54 -2
-64 -31 -9 -25 -15 -30 -38 -27 -19 2 -32 12 -41 31 -12 24 -18 27 -62 27 -45
0 -51 -3 -65 -30 -11 -21 -23 -30 -41 -30 -19 0 -29 7 -37 30 -11 28 -15 30
-62 30 -28 0 -56 -5 -63 -12 -9 -9 -12 38 -12 214 l0 227 43 4 c23 3 94 3 157
0 l115 -4 35 -35z m-2540 -64 c0 -5 -8 -10 -17 -10 -15 0 -16 2 -3 10 19 12
20 12 20 0z m-14389 -640 c17 -10 19 -22 19 -111 0 -107 -14 -152 -48 -164
-57 -17 -82 33 -82 164 0 85 3 102 18 110 22 13 68 14 93 1z m11835 -148 c15
-9 7 -10 -36 -5 -30 3 -59 9 -64 14 -13 12 78 4 100 -9z m68 3 c16 -12 17 -15
4 -15 -24 0 -48 11 -48 21 0 13 23 10 44 -6z m99 -1 c26 -9 49 -19 52 -24 7
-11 -115 16 -128 29 -16 16 20 14 76 -5z m1182 1 c51 -19 56 -19 48 1 -5 14
-3 15 15 5 12 -7 22 -17 22 -23 0 -6 7 -20 17 -30 26 -29 6 -33 -35 -6 -42 28
-121 50 -90 25 23 -18 98 -110 98 -119 0 -18 -17 -5 -50 39 -19 25 -53 64 -74
85 -37 36 -38 38 -15 38 13 -1 42 -7 64 -15z m164 -35 c33 -27 63 -55 66 -61
4 -6 25 -19 47 -29 37 -16 38 -19 18 -25 -14 -4 -28 -1 -40 10 -14 13 -19 13
-22 3 -4 -11 -9 -11 -29 0 -36 19 -78 55 -56 48 29 -9 19 13 -23 51 -22 21
-40 41 -40 45 0 17 22 6 79 -42z m4701 41 c0 -5 20 -4 45 1 37 8 48 7 61 -6
18 -18 30 -20 39 -6 3 6 14 10 23 9 11 0 12 -3 5 -6 -7 -2 -13 -9 -13 -15 0
-12 52 -2 96 17 21 10 39 12 60 5 28 -8 28 -8 4 -10 -14 0 -38 -7 -55 -15
l-30 -15 30 5 c97 16 100 17 85 6 -8 -6 -27 -11 -42 -11 -15 0 -29 -4 -32 -9
-3 -5 -18 -12 -33 -16 -14 -3 -49 -21 -77 -38 -78 -49 -117 -70 -123 -63 -3 3
8 13 26 23 17 10 31 23 31 28 1 6 31 24 68 42 l67 32 -47 -3 c-51 -4 -98 -29
-138 -71 -14 -15 -40 -33 -57 -40 -18 -8 -33 -18 -33 -24 0 -13 47 -18 88 -10
29 6 31 5 20 -9 -11 -14 -10 -15 7 -8 11 5 29 10 40 13 20 4 20 4 1 -11 -15
-12 -16 -16 -5 -17 31 -3 53 4 78 22 14 10 42 21 61 24 l35 5 -30 -12 c-51
-22 -68 -35 -61 -47 8 -12 36 -9 132 15 34 8 65 14 70 13 17 -4 104 13 110 22
3 5 14 9 25 9 11 0 47 12 82 26 47 20 83 26 150 28 48 2 87 2 87 0 0 -1 2 -8
5 -16 3 -8 -3 -14 -17 -15 -13 -1 -34 -3 -48 -4 -14 -2 -37 0 -52 4 -22 6 -26
4 -22 -8 4 -8 2 -15 -2 -15 -25 -1 -91 -12 -104 -17 -11 -4 -7 -9 15 -18 l30
-13 -25 -6 c-14 -2 -59 -12 -100 -20 -41 -8 -65 -15 -52 -15 25 -1 31 -21 6
-21 -9 0 -22 -7 -29 -16 -8 -12 -18 -14 -34 -9 -23 7 -22 9 23 51 42 41 43 44
18 38 -15 -4 -34 -10 -42 -14 -8 -5 -18 -8 -23 -8 -8 -1 -97 -15 -109 -18 -5
-1 -17 -2 -28 -3 -29 -2 -25 -18 10 -36 27 -14 34 -14 82 4 53 20 53 20 28 0
-40 -31 -212 -109 -240 -109 -14 1 -33 7 -43 14 -15 12 -12 13 27 9 36 -4 53
0 95 23 28 16 51 32 51 36 0 10 -76 68 -82 62 -3 -2 -19 -9 -36 -13 -24 -7
-30 -6 -26 4 4 9 -12 15 -53 20 -32 4 -61 12 -64 17 -9 14 -127 44 -169 43
-19 0 -46 -5 -60 -9 -23 -8 -22 -6 9 23 18 17 39 31 46 31 7 0 15 7 19 15 3 9
19 15 38 16 18 1 25 3 16 6 -22 6 -24 23 -3 23 9 0 29 7 45 15 17 9 57 17 91
19 33 2 66 9 72 16 10 10 1 11 -38 6 -132 -18 -170 -29 -205 -62 -42 -39 -79
-57 -145 -73 -55 -14 -85 -35 -85 -61 0 -18 -27 -45 -75 -75 -16 -10 -41 -29
-55 -42 -14 -12 -47 -41 -74 -64 -41 -34 -51 -38 -56 -25 -5 14 -7 14 -23 -4
-10 -12 -22 -18 -27 -15 -5 3 -15 -3 -22 -15 -7 -11 -17 -20 -22 -20 -6 0 -23
-12 -39 -27 -17 -16 -27 -22 -22 -14 6 10 2 11 -16 6 -21 -7 -22 -6 -10 9 23
27 7 28 -29 1 -40 -29 -60 -33 -37 -7 10 10 17 29 16 43 0 22 -1 22 -8 4 -16
-37 -47 -56 -96 -58 -39 -2 -50 2 -62 21 -18 26 -33 29 -33 5 0 -15 -2 -14
-17 3 -38 41 -46 69 -30 100 30 57 87 90 212 123 41 11 108 49 243 138 144 95
216 122 341 124 52 1 109 6 125 10 44 10 176 11 176 0z m398 2 c-10 -2 -26 -2
-35 0 -10 3 -2 5 17 5 19 0 27 -2 18 -5z m112 -3 c-8 -5 -23 -10 -32 -10 -9 0
-40 -12 -68 -26 -60 -30 -73 -28 -29 5 36 27 71 39 114 40 23 1 26 -2 15 -9z
m-5700 -15 c14 -8 21 -14 15 -14 -5 0 -21 6 -35 14 -14 8 -20 14 -15 14 6 0
21 -6 35 -14z m5830 -17 c8 -3 -9 -6 -38 -6 -40 -1 -62 -7 -85 -25 -18 -13
-52 -36 -77 -51 l-45 -27 45 41 c25 23 62 50 83 61 20 11 37 24 37 29 0 5 15
3 33 -4 17 -7 39 -16 47 -18z m-6175 12 c3 -6 -1 -7 -9 -4 -18 7 -21 14 -7 14
6 0 13 -4 16 -10z m6013 -20 c-14 -11 -38 -24 -52 -30 -29 -11 -154 -14 -143
-4 3 3 27 6 54 6 29 0 67 9 98 23 62 29 75 31 43 5z m-6717 -10 c19 -15 20
-19 8 -20 -9 0 -27 9 -40 20 -19 15 -20 19 -8 20 9 0 27 -9 40 -20z m1086 -35
c33 -30 68 -55 77 -55 9 0 16 -5 16 -10 0 -6 -29 -9 -72 -7 -62 2 -77 7 -100
29 -38 35 -35 42 10 20 20 -11 53 -22 72 -26 l35 -6 -57 55 c-73 71 -61 71 19
0z m-1020 39 c-3 -3 -12 -4 -19 -1 -8 3 -5 6 6 6 11 1 17 -2 13 -5z m833 -16
c54 -18 60 -22 42 -29 -23 -9 -98 10 -142 36 l-25 14 31 1 c16 0 59 -10 94
-22z m-615 -18 c23 0 43 -10 69 -33 20 -18 36 -36 36 -40 0 -17 -49 -5 -76 18
-33 29 -44 31 -44 10 0 -8 7 -15 15 -15 8 0 15 -5 15 -11 0 -6 -22 -10 -57 -8
-55 2 -112 25 -138 55 -5 6 -19 16 -30 22 -18 10 -15 11 17 12 20 0 39 -4 43
-10 3 -5 14 -1 25 10 19 19 23 19 56 5 20 -8 51 -15 69 -15z m6595 10 c-36 -3
-72 -10 -80 -15 -13 -8 -13 -6 -1 8 10 13 28 17 80 16 l66 -2 -65 -7z m-4430
-5 c0 -11 -75 -75 -88 -75 -8 0 8 18 34 40 49 40 54 44 54 35z m4561 -10 c43
-18 16 -18 -31 0 -19 7 -28 14 -19 14 9 1 32 -6 50 -14z m-1817 -11 c9 -23 7
-36 -3 -30 -12 8 -21 46 -11 46 4 0 11 -7 14 -16z m1909 9 c-7 -2 -19 -2 -25
0 -7 3 -2 5 12 5 14 0 19 -2 13 -5z m122 -8 c-44 -19 -125 -30 -125 -16 0 6
15 11 33 12 17 0 41 4 52 9 11 5 31 9 45 8 24 0 24 0 -5 -13z m73 5 c-14 -4
-32 -11 -40 -16 -10 -6 -10 -4 1 9 7 9 25 17 40 16 l26 -1 -27 -8z m162 6 c0
-3 -4 -8 -10 -11 -5 -3 -10 -1 -10 4 0 6 5 11 10 11 6 0 10 -2 10 -4z m-5697
-38 c53 -28 58 -33 37 -36 -21 -2 -140 51 -140 64 0 13 49 0 103 -28z m3401 6
c3 -8 2 -12 -4 -9 -6 3 -10 10 -10 16 0 14 7 11 14 -7z m-3829 -20 c28 -20 15
-17 -31 6 -22 12 -28 18 -14 14 14 -4 34 -13 45 -20z m5175 16 c-20 -13 -93
-13 -85 0 3 6 27 10 53 10 34 0 43 -3 32 -10z m-2273 -6 c-3 -3 -12 -4 -19 -1
-8 3 -5 6 6 6 11 1 17 -2 13 -5z m172 -15 c24 -5 89 -35 145 -66 110 -61 290
-140 473 -209 40 -15 70 -31 67 -35 -19 -32 -135 -12 -269 48 -33 14 -60 22
-62 16 -3 -7 -21 -7 -54 -1 -28 5 -98 8 -155 6 -140 -4 -132 15 10 23 58 3
109 9 112 12 3 3 0 14 -7 25 -18 28 -136 48 -268 44 -58 -1 -102 1 -98 4 3 4
46 10 94 15 99 10 123 16 123 30 0 27 -97 71 -195 88 l-50 9 45 1 c25 0 65 -4
89 -10z m2848 5 c-3 -3 -12 -4 -19 -1 -8 3 -5 6 6 6 11 1 17 -2 13 -5z m-122
-25 c-10 -15 -25 -10 -19 6 4 8 10 12 15 9 5 -3 7 -10 4 -15z m-1880 -7 c-3
-3 -11 0 -18 7 -9 10 -8 11 6 5 10 -3 15 -9 12 -12z m1975 -17 c16 -19 0 -19
-26 0 -16 12 -16 14 -3 15 9 0 22 -7 29 -15z m-3025 -35 c25 -16 27 -20 11
-26 -23 -9 -66 11 -66 31 0 20 19 19 55 -5z m-100 0 c3 -5 -1 -10 -9 -10 -9 0
-16 5 -16 10 0 6 4 10 9 10 6 0 13 -4 16 -10z m-644 -41 c103 -33 230 -100
285 -150 29 -26 81 -61 116 -78 34 -16 75 -45 89 -63 14 -18 48 -44 75 -57 61
-29 143 -83 144 -94 1 -28 -122 7 -134 39 -8 21 17 17 48 -7 15 -12 29 -19 32
-16 6 5 -43 42 -66 49 -8 3 -19 -1 -25 -9 -8 -11 -16 -11 -42 -1 -18 7 -33 18
-33 25 0 7 -7 10 -15 7 -10 -4 -15 0 -15 11 0 15 -1 15 -16 1 -18 -18 -36 -12
-28 9 9 22 -19 44 -51 41 -21 -3 -36 6 -68 40 -23 24 -46 44 -51 44 -6 0 -28
18 -51 39 -50 49 -158 111 -193 111 -15 0 -43 10 -62 22 -21 13 -48 21 -69 19
-31 -2 -50 10 -51 32 0 15 119 6 181 -14z m3316 -5 c-3 -3 -12 -4 -19 -1 -8 3
-5 6 6 6 11 1 17 -2 13 -5z m-2893 -26 c22 -7 68 -28 101 -48 33 -20 67 -39
75 -42 9 -3 46 -27 83 -53 65 -45 67 -48 67 -91 l0 -43 -32 6 c-77 15 -83 18
-80 46 2 24 -1 27 -28 27 -34 0 -99 30 -119 54 -8 9 -18 16 -24 16 -18 0 -46
31 -41 45 3 7 1 16 -5 20 -6 3 -11 -1 -11 -10 0 -14 -6 -12 -31 9 -17 14 -41
26 -55 26 -15 0 -24 6 -24 15 0 8 -4 15 -10 15 -5 0 -10 5 -10 10 0 14 94 13
144 -2z m3121 -26 c-8 -9 -35 20 -28 31 4 6 11 3 19 -8 8 -10 12 -21 9 -23z
m4440 28 c-11 -5 -36 -8 -55 -8 l-35 0 30 8 c17 4 41 8 55 8 23 1 23 0 5 -8z
m-6477 -14 c15 -8 38 -26 51 -40 16 -16 40 -28 70 -32 45 -7 45 -7 17 -17 -39
-13 -101 7 -123 40 -9 14 -31 34 -48 44 -37 23 -9 27 33 5z m1389 -2 c-3 -3
-12 -4 -19 -1 -8 3 -5 6 6 6 11 1 17 -2 13 -5z m-2157 -44 c-33 -42 -40 -47
-40 -29 0 11 54 69 65 69 4 0 -8 -18 -25 -40z m2110 -14 c0 -5 -6 -4 -12 1 -7
6 -25 13 -40 17 -16 3 -28 13 -28 20 0 11 9 9 40 -7 22 -12 40 -26 40 -31z
m4140 44 c0 -5 -12 -10 -27 -9 -25 0 -26 1 -8 9 27 12 35 12 35 0z m50 0 c0
-5 -6 -10 -14 -10 -8 0 -18 5 -21 10 -3 6 3 10 14 10 12 0 21 -4 21 -10z
m-3835 -16 c-5 -1 -22 -5 -37 -8 -14 -3 -54 -29 -88 -57 -63 -54 -85 -60 -50
-16 11 14 20 29 20 34 0 4 21 19 46 33 33 19 57 24 83 21 20 -2 32 -5 26 -7z
m488 -4 c-3 -12 -8 -19 -11 -16 -5 6 5 36 12 36 2 0 2 -9 -1 -20z m3157 10 c0
-5 -7 -10 -15 -10 -8 0 -19 -17 -26 -40 -7 -22 -16 -40 -21 -40 -11 0 -121
-86 -163 -127 -18 -18 -35 -29 -39 -26 -3 4 -6 0 -6 -9 0 -24 -81 -57 -156
-63 -27 -2 -65 -10 -84 -19 -19 -8 -54 -20 -77 -26 -38 -10 -71 -32 -130 -87
-13 -13 -30 -23 -38 -23 -8 0 -17 -5 -20 -10 -14 -23 -107 -90 -117 -84 -5 3
-18 -3 -29 -15 -11 -12 -24 -21 -29 -21 -6 0 -10 -6 -10 -14 0 -8 -15 -24 -34
-35 -38 -24 -61 -28 -32 -6 48 37 136 121 136 131 0 17 128 135 190 176 30 19
80 43 110 52 30 9 69 21 85 26 17 5 53 12 81 14 59 6 84 14 84 28 0 5 5 6 10
3 6 -3 13 0 16 8 3 9 18 20 34 27 15 6 36 21 47 33 11 12 39 38 62 57 24 19
55 45 69 57 14 12 29 20 34 17 4 -3 8 2 8 10 0 13 16 22 48 25 6 0 12 -3 12
-9z m236 -5 c10 -8 15 -14 9 -14 -5 0 -19 6 -29 14 -11 8 -15 15 -10 15 6 0
19 -7 30 -15z m2847 -20 c20 -8 22 -25 5 -48 -11 -14 -21 -15 -78 -5 -79 13
-206 18 -188 7 19 -12 -2 -16 -112 -25 -144 -11 -204 -11 -218 -1 -16 12 23
35 61 35 44 0 140 13 166 24 62 24 313 33 364 13z m-9013 -22 c25 -8 59 -23
76 -32 63 -37 134 -54 204 -49 37 3 75 1 84 -4 10 -6 16 -5 16 2 0 17 101 12
121 -6 11 -9 47 -19 87 -24 75 -8 92 -14 92 -34 0 -7 11 -18 25 -24 14 -7 25
-20 25 -31 0 -12 7 -19 18 -19 9 0 26 -3 37 -8 18 -7 18 -6 6 9 -13 16 -2 25
13 10 7 -8 11 -9 39 -12 9 -1 8 -4 -2 -10 -11 -7 -9 -10 8 -16 11 -3 25 -4 30
-1 12 8 34 -21 26 -34 -3 -5 2 -10 13 -10 10 0 27 -9 37 -20 20 -22 35 -26 35
-10 0 6 -7 10 -15 10 -9 0 -12 6 -9 15 7 18 17 18 84 4 31 -7 50 -16 50 -25 0
-8 -4 -14 -10 -14 -5 0 -9 -3 -8 -7 1 -5 -2 -23 -6 -41 -6 -24 -12 -32 -23
-27 -13 4 -14 3 -4 -9 10 -11 9 -16 -3 -23 -19 -10 -8 -28 22 -37 20 -7 21 -5
12 18 -5 14 -8 26 -7 27 1 0 17 2 36 5 40 5 54 14 23 14 -33 0 -36 19 -6 45
39 33 103 45 159 30 27 -7 29 -7 17 8 -8 9 -26 18 -40 20 -26 4 -26 4 4 6 18
0 39 -7 52 -19 35 -32 28 -43 -23 -38 -39 5 -44 3 -34 -9 7 -7 19 -11 27 -8
19 7 38 -5 21 -15 -8 -5 1 -12 27 -19 21 -6 44 -11 50 -11 7 0 11 -8 10 -17 0
-12 6 -17 17 -17 13 2 15 -1 7 -10 -16 -21 -1 -25 30 -9 30 14 50 11 50 -9 0
-6 -12 -8 -30 -4 -16 3 -30 2 -30 -3 0 -8 84 -23 128 -23 50 0 34 30 -18 33
-24 2 -24 2 -2 6 12 2 22 8 22 12 0 11 -85 22 -105 15 -8 -4 -15 -2 -15 3 0 5
19 10 42 12 23 1 45 4 49 6 4 3 12 -2 19 -10 14 -17 45 -21 34 -4 -5 8 12 10
62 5 98 -9 106 -8 115 5 5 9 13 7 30 -6 15 -11 18 -15 7 -12 -10 4 -18 2 -18
-3 0 -6 -17 -10 -37 -10 -35 0 -36 -1 -17 -15 22 -17 60 -20 69 -5 3 6 12 10
20 10 10 0 7 -7 -8 -24 -40 -44 -48 -56 -42 -66 8 -14 65 -13 65 1 0 6 6 9 14
6 8 -3 44 2 79 12 35 11 77 16 93 13 37 -7 84 -41 84 -61 0 -11 -4 -10 -14 5
-19 26 -71 29 -106 7 -15 -10 -48 -17 -85 -18 -98 -2 -115 -4 -115 -15 0 -6
15 -18 34 -27 21 -10 32 -21 29 -29 -3 -9 2 -14 12 -14 10 0 15 -5 12 -14 -7
-18 12 -36 37 -36 12 0 32 -14 45 -30 13 -17 28 -30 33 -30 5 0 21 -9 35 -20
14 -11 34 -20 44 -20 11 0 19 -6 19 -14 0 -8 12 -19 28 -25 54 -22 -14 -2 -93
27 -45 16 -93 37 -108 47 -15 10 -30 15 -34 12 -3 -4 -25 7 -49 23 -42 30 -71
39 -59 20 10 -16 -11 -12 -25 5 -7 9 -21 13 -31 10 -10 -4 -27 -2 -37 4 -23
13 -36 3 -21 -16 17 -20 1 -16 -33 8 -22 16 -43 21 -85 20 -30 0 -60 -4 -65
-8 -7 -3 -8 -1 -4 6 4 6 2 19 -5 27 -10 13 -6 12 24 -2 42 -20 60 -12 60 29 0
28 17 27 51 -5 11 -10 30 -18 42 -18 13 0 26 -5 29 -11 4 -6 13 -8 20 -5 7 2
16 2 20 -2 13 -13 95 -8 107 6 10 11 8 18 -11 33 -27 22 -42 24 -39 7 4 -20
-33 -9 -72 22 -37 30 -105 52 -142 48 -13 -1 -47 1 -75 6 -42 6 -57 14 -73 36
-14 19 -27 27 -38 24 -12 -4 -13 -3 -4 3 29 22 -92 93 -158 93 -22 0 -40 -3
-40 -7 1 -9 85 -73 95 -73 3 0 3 4 0 10 -3 6 1 7 9 4 26 -10 18 -22 -13 -20
-16 1 -47 14 -70 29 -22 15 -53 27 -68 27 l-26 0 23 -25 c13 -14 29 -25 37
-25 7 0 13 -6 13 -12 0 -10 2 -10 8 -1 5 8 12 7 27 -4 13 -10 16 -17 8 -20
-24 -9 29 -77 54 -68 6 2 13 -6 16 -17 4 -14 11 -19 22 -15 15 7 65 -11 65
-22 0 -13 59 -41 74 -35 9 3 16 2 16 -4 0 -28 -42 -17 -158 39 -70 34 -131 64
-137 67 -5 3 4 -10 20 -28 l30 -33 -32 19 c-18 10 -33 24 -33 30 0 7 -11 21
-25 32 -14 11 -25 24 -25 30 0 24 -93 30 -149 11 l-32 -11 50 -29 c27 -16 52
-33 56 -39 3 -5 18 -11 33 -11 23 -2 24 -2 5 -6 -14 -3 -20 -9 -16 -19 8 -21
-8 -17 -36 10 -28 26 -189 101 -198 92 -12 -12 41 -60 104 -93 81 -41 145 -63
193 -63 19 -1 49 -7 65 -15 l30 -13 -45 -1 c-67 -1 -209 36 -255 67 -22 14
-43 26 -47 25 -10 -3 -23 16 -66 98 -39 74 -39 76 -16 71 65 -12 96 26 52 64
-19 15 -20 16 -9 2 18 -24 13 -23 -53 12 -55 30 -57 30 -46 8 8 -18 5 -16 -14
7 -14 17 -26 36 -26 43 0 19 28 26 45 12 19 -15 19 -1 1 23 -12 16 -111 53
-102 39 2 -4 -2 -13 -10 -20 -12 -11 -21 -6 -53 29 -21 23 -41 37 -44 31 -4
-5 5 -17 18 -26 14 -9 23 -20 21 -25 -3 -4 8 -18 24 -30 38 -28 39 -45 3 -36
-22 5 -15 -5 40 -55 37 -35 66 -65 63 -67 -3 -3 -30 16 -61 41 -74 60 -96 60
-27 0 28 -25 52 -52 52 -60 0 -8 7 -17 15 -20 29 -12 15 -25 -20 -18 -34 6
-49 -6 -25 -21 6 -3 10 -11 10 -16 0 -5 -19 9 -41 33 -27 27 -43 38 -46 30 -6
-15 15 -42 32 -42 7 0 25 -30 39 -66 26 -65 30 -98 5 -52 -7 12 -36 50 -66 83
-29 33 -53 67 -53 77 0 11 -6 15 -19 11 -18 -5 -18 -7 -4 -41 8 -21 33 -58 55
-84 44 -54 40 -60 -13 -23 -37 24 -89 101 -89 129 0 9 -7 16 -16 16 -9 0 -25
11 -35 24 -11 14 -28 28 -39 31 -11 4 -20 12 -20 20 0 8 -7 11 -19 8 -22 -6
-78 43 -83 72 -5 29 48 23 82 -10 24 -23 28 -24 39 -11 11 13 9 17 -13 27 -14
7 -26 16 -26 20 0 4 -12 10 -26 13 -31 8 -27 28 7 37 22 6 22 7 5 14 -14 6
-24 3 -35 -12 -9 -11 -21 -18 -27 -16 -6 2 -25 -12 -43 -32 -25 -28 -38 -35
-59 -33 l-27 4 26 11 c37 16 169 133 169 151 0 19 -48 10 -103 -18 -44 -24
-56 -24 -90 -7 -25 13 -25 15 -9 31 16 15 15 16 -17 10 -31 -6 -33 -5 -27 14
7 19 4 21 -21 16 -24 -4 -31 0 -49 32 -16 28 -31 40 -70 53 -54 18 -59 30 -23
48 25 13 43 10 119 -14z m4673 20 c-7 -2 -19 -2 -25 0 -7 3 -2 5 12 5 14 0 19
-2 13 -5z m-5641 -46 c31 -13 64 -30 73 -38 10 -8 61 -37 113 -65 97 -52 133
-85 76 -69 -16 4 -48 11 -71 15 -24 4 -52 15 -63 25 -13 11 -20 14 -20 6 0
-16 -38 -5 -65 19 -11 10 -39 24 -62 31 -53 15 -109 60 -99 78 5 7 17 11 27 8
10 -3 22 -1 25 4 7 11 -1 13 66 -14z m3202 -8 c-10 -12 -32 -28 -49 -36 -35
-18 -24 -4 25 31 44 30 48 31 24 5z m-6077 -19 c7 -10 25 -21 40 -25 16 -3 37
-15 48 -25 11 -10 45 -30 75 -46 68 -34 63 -30 55 -45 -6 -8 -10 -7 -17 5 -5
9 -14 16 -20 16 -6 0 -63 25 -127 56 -64 31 -126 61 -138 66 -33 16 -20 24 29
20 26 -3 48 -11 55 -22z m498 12 c11 -5 41 -19 67 -31 26 -13 50 -21 55 -18
20 12 236 -52 285 -85 15 -10 59 -26 98 -37 42 -12 87 -33 110 -51 24 -19 38
-25 34 -16 -7 19 -4 19 30 6 14 -5 28 -5 30 -1 3 5 -16 14 -42 22 -26 7 -67
29 -92 49 -25 20 -62 47 -82 60 -20 14 -35 27 -32 29 2 3 -12 22 -33 43 -31
32 -34 38 -18 38 12 0 59 -40 113 -94 84 -85 97 -95 155 -111 34 -9 75 -24 92
-32 16 -9 52 -18 79 -22 l50 -6 1 -41 c2 -83 79 -133 156 -101 31 12 38 12 81
-8 25 -12 63 -34 83 -49 20 -16 39 -26 41 -23 3 3 -13 29 -35 58 -23 30 -41
57 -41 61 0 4 -10 12 -22 19 -21 11 -21 11 2 -21 20 -28 21 -31 4 -22 -41 23
-57 40 -51 54 5 13 13 14 54 6 26 -6 59 -18 73 -26 18 -11 21 -12 13 -2 -38
42 20 26 80 -21 l38 -30 -5 25 c-4 25 -2 26 38 26 65 0 256 -75 256 -100 0
-14 -2 -13 -66 15 -52 23 -56 24 -39 5 33 -36 2 -26 -120 39 -21 11 -46 21
-54 21 -24 0 17 -38 49 -45 42 -9 110 -65 110 -91 0 -19 10 -25 53 -38 77 -23
91 -36 40 -36 -24 0 -43 5 -43 10 0 6 -6 10 -13 10 -8 0 -22 9 -33 21 -22 25
-48 40 -78 45 -62 10 -86 20 -132 55 -56 43 -77 51 -48 17 19 -21 19 -21 -4
-15 -17 4 -21 2 -14 -6 53 -70 77 -96 93 -100 19 -5 28 -47 9 -47 -5 0 -28 18
-50 39 -46 44 -72 58 -63 35 8 -20 -3 -18 -61 15 -28 17 -69 34 -91 40 -22 5
-65 16 -95 25 -30 8 -72 18 -93 21 -28 5 -37 10 -33 21 3 8 1 14 -4 14 -16 0
-89 54 -90 66 0 14 -60 57 -68 49 -4 -4 6 -17 23 -30 16 -13 26 -27 23 -31 -4
-4 -30 12 -57 35 -28 24 -55 40 -60 36 -6 -3 -29 4 -52 15 -63 33 -57 17 14
-33 69 -50 110 -97 82 -97 -8 0 -15 5 -15 10 0 6 -11 10 -24 10 -14 0 -37 10
-53 23 -27 23 -111 67 -127 67 -10 0 32 -61 58 -83 21 -19 21 -19 -8 -12 -16
3 -41 15 -54 26 -14 10 -30 19 -37 19 -7 0 -24 9 -39 21 -30 24 -125 61 -137
54 -4 -3 -9 0 -11 5 -3 11 -55 27 -113 36 -45 6 -94 24 -150 52 l-50 26 30 6
c27 6 26 7 -20 14 -77 11 -137 27 -175 48 l-35 19 34 -5 c28 -5 32 -4 21 9 -6
8 -22 18 -33 22 -17 6 -11 9 28 13 67 7 185 2 210 -8z m-360 -27 c39 -19 66
-34 62 -35 -5 0 -18 5 -29 11 -14 8 -23 8 -27 1 -4 -7 -23 2 -50 23 -55 44
-45 44 44 0z m73 18 c12 -3 22 -9 22 -14 0 -14 -12 -11 -55 12 -23 12 -29 18
-15 14 14 -4 35 -9 48 -12z m1322 -5 c32 -23 51 -19 29 8 -31 37 94 -1 144
-44 9 -8 17 -12 17 -8 0 11 53 -20 74 -43 13 -15 22 -18 27 -10 8 14 91 -66
135 -132 22 -31 51 -57 95 -82 62 -34 123 -87 102 -87 -7 0 -25 11 -41 25 -17
14 -37 25 -47 25 -9 0 -31 11 -48 24 -18 14 -45 30 -62 36 -22 8 -26 13 -16
20 11 6 8 15 -17 39 -37 38 -55 41 -43 7 l9 -23 -36 18 c-43 23 -62 39 -43 39
11 0 11 3 1 15 -13 15 -35 11 -25 -6 13 -20 -8 -7 -27 17 -11 14 -28 23 -37
21 -9 -2 -29 6 -46 18 -74 53 -107 68 -115 55 -7 -11 -11 -10 -24 3 -9 9 -31
18 -49 21 -18 3 -49 8 -69 11 -21 3 -57 17 -80 30 l-43 25 103 0 c90 0 106 -3
132 -22z m488 -6 c20 -16 54 -41 75 -56 21 -16 37 -29 35 -31 -7 -8 -122 38
-170 67 -29 18 -73 35 -98 39 -37 5 -30 7 38 8 77 1 86 -1 120 -27z m127 9
c19 -10 32 -21 29 -23 -3 -3 2 -8 11 -12 9 -3 13 -2 10 4 -10 15 20 12 86 -10
33 -11 77 -21 97 -21 20 0 80 0 132 0 52 1 122 -4 155 -10 64 -12 173 -46 190
-58 6 -5 32 -14 60 -20 27 -7 55 -17 61 -22 9 -8 95 -19 254 -35 25 -2 63 -10
85 -18 22 -8 56 -16 75 -19 31 -4 122 -44 215 -94 36 -19 85 -63 85 -76 0 -6
-5 -5 -12 0 -7 6 -30 14 -52 17 -21 4 -55 16 -75 27 -20 10 -43 19 -52 19 -9
0 -22 6 -28 14 -6 7 -40 16 -78 19 -56 4 -71 9 -88 30 -11 13 -32 27 -47 29
-38 7 -36 -8 2 -15 17 -4 30 -11 30 -17 0 -16 -40 -2 -66 22 -18 16 -36 19
-100 18 -100 -1 -143 6 -164 25 -10 9 -35 19 -56 22 -22 3 -43 9 -49 13 -5 4
-32 11 -60 14 -27 4 -74 16 -103 27 -30 10 -58 17 -62 14 -5 -3 -60 2 -122 11
-62 9 -124 16 -137 15 -14 -1 -34 5 -45 12 -12 8 -42 19 -68 25 -25 7 -83 30
-129 52 -71 34 -78 40 -51 40 18 0 48 -8 67 -19z m170 9 c7 -12 -38 -12 -75 0
-20 7 -16 8 22 9 26 1 50 -3 53 -9z m9195 1 c-19 -6 -10 -9 39 -14 87 -9 271
-69 271 -88 0 -15 -72 -21 -110 -10 -21 6 -44 9 -52 6 -7 -3 -49 -1 -93 3 -44
5 -81 5 -83 1 -2 -5 -13 -9 -23 -9 -11 0 -17 5 -14 10 9 15 -7 12 -29 -5 -11
-8 -32 -15 -46 -15 -15 0 -41 -5 -58 -11 -23 -8 -46 -8 -83 0 -44 10 -54 9
-77 -8 -15 -10 -58 -24 -97 -31 -38 -7 -92 -23 -119 -36 -38 -18 -52 -21 -58
-11 -6 9 -8 9 -8 0 0 -7 -7 -10 -16 -6 -9 3 -19 1 -23 -6 -4 -6 -26 -13 -50
-15 -23 -2 -48 -9 -54 -15 -18 -18 -29 -13 -17 8 13 25 13 41 0 41 -5 0 -7 -6
-5 -12 4 -11 -50 -58 -67 -58 -4 0 -9 19 -13 43 -4 23 -11 47 -16 53 -7 8 0
15 20 22 16 6 32 8 35 5 7 -8 99 27 108 41 4 6 42 14 85 18 105 11 116 13 203
38 41 12 91 24 110 27 19 3 40 12 48 19 17 17 54 18 70 2 9 -9 12 -9 12 -1 0
15 35 20 145 21 52 0 79 -3 65 -7z m-5755 -27 c-17 -13 -18 -16 -5 -24 20 -13
90 -12 129 1 18 6 35 9 38 5 3 -3 -8 -11 -25 -17 -37 -13 -41 -26 -9 -32 12
-2 -4 -2 -36 0 -31 3 -84 5 -116 5 -47 0 -58 3 -54 14 3 8 16 14 29 14 13 0
23 3 22 8 -3 16 15 42 31 42 13 -1 13 -3 -4 -16z m155 12 c0 -2 -7 -7 -16 -10
-8 -3 -12 -2 -9 4 6 10 25 14 25 6z m1115 -6 c-3 -5 -12 -10 -18 -10 -7 0 -6
4 3 10 19 12 23 12 15 0z m3738 -10 c-10 -38 -147 -100 -222 -100 -24 0 -69
-6 -100 -14 -115 -29 -295 -21 -356 15 -16 11 -37 19 -45 19 -18 0 -120 52
-120 62 0 3 19 5 43 3 23 -1 52 -3 65 -4 14 -1 22 -7 22 -18 0 -14 2 -15 9 -5
7 11 9 11 14 -1 9 -25 210 -26 376 -2 58 8 122 18 141 20 59 8 95 17 105 25 6
5 24 10 40 13 17 2 31 5 32 6 0 0 -1 -8 -4 -19z m-9853 -20 c8 -5 10 -10 4
-10 -7 0 -22 9 -35 21 -19 16 -20 18 -4 10 11 -6 27 -15 35 -21z m4930 20 c0
-5 -4 -10 -9 -10 -6 0 -13 5 -16 10 -3 6 1 10 9 10 9 0 16 -4 16 -10z m4051
-11 l24 -20 -25 7 c-14 3 -36 13 -50 20 l-25 13 26 1 c15 0 37 -9 50 -21z
m-8724 -65 c37 -19 59 -32 48 -28 -11 3 -29 9 -40 12 l-20 5 20 -23 20 -24
-35 24 c-46 31 -90 71 -90 83 0 5 7 4 15 -3 8 -6 45 -27 82 -46z m6 49 c-7 -2
-19 -2 -25 0 -7 3 -2 5 12 5 14 0 19 -2 13 -5z m3975 -15 c6 -7 13 -29 17 -48
5 -28 2 -41 -15 -63 -41 -52 -90 -24 -85 48 3 53 5 55 28 65 31 12 43 12 55
-2z m6772 2 c-20 -13 -47 -13 -55 0 -4 6 9 10 32 10 28 0 34 -3 23 -10z
m-5975 -10 c-3 -5 -12 -10 -18 -10 -7 0 -6 4 3 10 19 12 23 12 15 0z m2540
-30 c3 -5 -1 -10 -10 -10 -9 0 -13 5 -10 10 3 6 8 10 10 10 2 0 7 -4 10 -10z
m1338 -15 c-6 -16 67 -65 97 -65 12 0 30 -5 40 -10 16 -9 18 -8 14 5 -6 14 -3
14 20 4 16 -8 25 -18 22 -26 -4 -9 -1 -11 6 -7 16 10 90 6 102 -6 6 -6 19 -10
31 -10 12 0 26 -5 33 -12 9 -9 12 -9 12 0 0 18 40 15 47 -4 5 -13 8 -13 27 4
11 11 41 22 66 24 l45 5 2 -40 c0 -22 10 -52 21 -67 l21 -27 -25 -12 c-14 -6
-34 -11 -46 -11 -21 0 -21 0 -3 21 19 20 19 20 -9 9 -21 -7 -32 -7 -42 1 -8 6
-22 8 -31 4 -16 -6 -15 -8 7 -18 l25 -10 -24 -5 c-38 -6 -91 7 -91 23 0 20
-26 19 -34 0 -4 -10 1 -15 14 -15 13 0 20 -7 20 -18 0 -10 6 -24 13 -31 16
-18 0 -9 -76 43 -65 43 -90 40 -37 -6 l35 -29 -37 17 c-21 10 -38 23 -38 29 0
13 -55 56 -78 60 -10 2 -19 4 -22 6 -3 1 -12 2 -20 3 -8 1 -15 8 -15 16 -1 29
-29 71 -61 91 -18 11 -40 34 -49 51 -19 39 -19 37 4 31 11 -3 17 -11 14 -18z
m-7658 -3 c-3 -3 -11 0 -18 7 -9 10 -8 11 6 5 10 -3 15 -9 12 -12z m6030 9
l40 -7 -32 -8 c-18 -4 -35 -12 -38 -17 -8 -12 -52 -12 -60 0 -3 5 3 12 12 14
10 3 3 5 -15 6 -19 1 -31 5 -27 11 7 12 62 12 120 1z m-7214 -12 c-16 -6 -28
-6 -35 1 -7 7 1 10 25 9 32 0 33 -1 10 -10z m1146 -23 c4 -3 -17 -6 -46 -6
-35 0 -50 4 -46 11 7 11 80 7 92 -5z m-1789 -5 c9 -5 36 -14 60 -21 28 -7 42
-16 39 -24 -3 -9 4 -11 24 -8 21 3 42 -4 72 -24 67 -46 228 -179 272 -224 l40
-42 -42 21 c-24 12 -43 26 -43 31 0 6 -6 10 -14 10 -8 0 -31 16 -52 35 -21 20
-49 38 -63 40 -66 9 -108 30 -141 70 -7 8 -17 15 -22 15 -6 0 -5 -7 2 -15 21
-25 2 -30 -33 -10 -52 30 -167 128 -167 142 0 15 42 17 68 4z m5520 -8 c-10
-2 -28 -2 -40 0 -13 2 -5 4 17 4 22 1 32 -1 23 -4z m-5565 -53 c21 -12 35 -25
31 -31 -4 -6 -14 -3 -26 8 -11 10 -22 17 -24 16 -11 -8 -22 0 -44 30 l-24 32
24 -17 c14 -10 42 -27 63 -38z m6162 10 c-10 -11 -21 -17 -24 -14 -3 3 3 12
13 20 28 20 32 17 11 -6z m-5035 -10 c0 -5 -4 -10 -10 -10 -5 0 -10 5 -10 10
0 6 5 10 10 10 6 0 10 -4 10 -10z m803 3 c-7 -2 -19 -2 -25 0 -7 3 -2 5 12 5
14 0 19 -2 13 -5z m1582 -45 c8 -21 11 -38 6 -38 -5 0 -14 12 -19 28 -5 15
-13 36 -17 47 -14 36 13 3 30 -37z m5785 39 c14 -7 25 -21 25 -32 0 -12 8 -21
20 -23 11 -3 23 -10 27 -17 4 -7 40 -35 80 -61 40 -27 76 -54 81 -61 4 -6 33
-17 65 -23 31 -7 74 -22 96 -34 21 -11 49 -27 62 -34 28 -15 117 -22 154 -12
23 7 24 8 5 14 -49 18 -60 26 -30 20 l30 -6 -24 20 c-16 13 -20 21 -12 26 7 5
25 -7 45 -28 29 -33 40 -37 112 -47 64 -8 99 -7 184 6 125 19 200 25 200 16 0
-4 75 -5 168 -3 232 4 298 22 395 109 35 31 118 73 144 73 11 0 40 7 66 16 57
19 168 15 247 -10 30 -10 96 -25 145 -34 102 -18 105 -19 85 -33 -17 -12 -157
-4 -196 11 -33 13 -116 24 -169 22 -111 -2 -134 -5 -132 -15 1 -6 -18 -16 -42
-22 -26 -7 -51 -21 -59 -33 -8 -12 -20 -22 -26 -22 -12 0 -116 -98 -116 -110
0 -4 7 -13 15 -20 8 -7 15 -19 15 -26 0 -8 17 -21 37 -29 21 -9 48 -26 60 -37
13 -12 23 -18 23 -14 0 4 15 -1 33 -12 17 -10 59 -29 92 -42 108 -42 112 -56
16 -58 -39 -1 -88 5 -109 12 -22 8 -42 12 -45 10 -3 -3 -19 2 -36 10 -17 9
-34 16 -38 15 -4 -1 -15 -1 -23 0 -13 1 -13 2 0 11 10 6 11 10 3 10 -7 0 -15
0 -18 1 -2 0 -34 16 -70 35 -37 19 -73 34 -80 34 -8 0 -29 8 -47 18 -40 23
-113 34 -188 31 -30 -2 -103 -3 -162 -4 -60 0 -108 -3 -108 -7 0 -5 -22 -8
-49 -8 -28 0 -53 -4 -56 -10 -3 -5 -16 -10 -27 -10 -21 0 -21 0 -2 -21 18 -20
18 -20 -9 -15 -15 2 -32 8 -39 13 -11 6 -117 13 -210 13 -16 0 -28 4 -28 9 0
5 -17 12 -37 15 -85 13 -98 17 -107 26 -6 6 -20 10 -33 10 -22 0 -54 12 -148
55 -27 13 -71 29 -97 35 -26 7 -53 18 -59 26 -6 8 -19 14 -28 14 -22 0 -63 29
-56 40 12 20 -14 20 -281 1 -120 -9 -194 -35 -258 -91 -36 -31 -93 -63 -107
-58 -16 5 101 117 160 152 71 42 128 56 263 61 60 2 113 7 119 11 7 4 -1 19
-21 39 -20 21 -30 40 -27 49 9 22 20 20 47 -9 13 -14 28 -25 33 -25 6 0 1 10
-11 23 -23 24 -21 40 4 30 8 -3 14 1 14 11 0 19 16 20 50 3z m-9355 -7 c3 -5
2 -10 -4 -10 -5 0 -13 5 -16 10 -3 6 -2 10 4 10 5 0 13 -4 16 -10z m4640 0 c3
-5 1 -10 -4 -10 -6 0 -11 5 -11 10 0 6 2 10 4 10 3 0 8 -4 11 -10z m85 1 c0
-13 -37 -24 -50 -16 -6 4 -8 11 -5 16 8 12 55 12 55 0z m790 -1 c18 -12 2 -12
-25 0 -13 6 -15 9 -5 9 8 0 22 -4 30 -9z m67 4 c-3 -3 -12 -4 -19 -1 -8 3 -5
6 6 6 11 1 17 -2 13 -5z m-827 -14 c0 -5 -5 -10 -11 -10 -5 0 -7 5 -4 10 3 6
8 10 11 10 2 0 4 -4 4 -10z m575 0 c0 -1 19 -2 43 -3 23 -1 42 1 42 6 0 4 7 7
15 7 8 0 15 -3 15 -8 0 -4 27 -18 60 -30 33 -13 60 -29 60 -37 0 -25 78 -85
111 -85 37 0 90 -24 115 -51 16 -18 16 -19 -1 -19 -10 0 -15 3 -12 7 4 3 -18
15 -49 26 -87 30 -88 5 -2 -39 60 -31 58 -42 -3 -15 -26 11 -79 53 -130 105
-82 81 -90 87 -153 101 -37 9 -70 13 -75 11 -10 -7 -79 12 -86 24 -3 5 7 7 22
5 16 -2 28 -4 28 -5z m3075 -5 c-19 -7 -44 -16 -55 -21 -11 -4 -23 -7 -27 -6
-4 1 -29 -11 -55 -26 -122 -71 -144 -76 -318 -77 -141 0 -164 2 -190 19 -27
18 -28 19 -9 33 11 8 28 11 39 7 11 -3 54 -10 95 -14 41 -4 87 -11 102 -15 19
-5 42 -1 75 15 236 107 208 98 303 98 73 1 74 0 40 -13z m-4140 -16 c0 -6 -4
-7 -10 -4 -5 3 -10 11 -10 16 0 6 5 7 10 4 6 -3 10 -11 10 -16z m1950 2 c-20
-39 -94 -71 -87 -39 1 7 -8 14 -20 16 -25 4 -32 22 -8 22 8 0 26 -6 41 -12 24
-11 29 -10 43 9 21 29 46 31 31 4z m3445 9 c3 -5 -1 -10 -9 -10 -8 0 -18 5
-21 10 -3 6 1 10 9 10 8 0 18 -4 21 -10z m-9160 -11 c4 -6 13 -8 20 -5 17 6
123 -47 150 -75 l20 -21 -25 7 -25 7 23 -24 c17 -18 30 -23 52 -20 24 3 35 -1
51 -22 12 -15 24 -25 26 -22 3 3 17 -4 31 -14 13 -11 31 -20 38 -20 7 0 15 -4
19 -9 3 -6 -10 -8 -29 -5 -24 3 -38 -1 -43 -11 -7 -12 -17 -9 -58 18 -27 18
-61 44 -75 58 -26 27 -99 69 -122 69 -20 1 -71 47 -64 58 3 5 -1 12 -9 16 -8
3 -15 10 -15 16 0 13 27 13 35 -1z m-372 -13 c4 -10 1 -13 -8 -9 -8 3 -12 9
-9 14 7 12 11 11 17 -5z m6137 4 c12 -7 12 -12 2 -22 -9 -9 -12 -9 -12 0 0 7
-7 12 -16 12 -8 0 -12 5 -9 10 8 12 16 12 35 0z m-5417 -65 c36 -27 64 -51 62
-53 -6 -7 -145 89 -145 100 0 14 7 10 83 -47z m1845 39 c14 -3 20 -9 16 -16
-5 -7 2 -9 20 -6 14 3 26 1 26 -3 0 -5 3 -8 8 -7 4 1 17 -3 29 -10 19 -11 22
-10 17 3 -5 11 1 15 26 15 40 0 71 -16 64 -34 -5 -13 23 -26 56 -26 13 0 13 1
0 10 -8 5 -10 10 -5 10 6 0 17 -5 25 -10 10 -6 11 -10 3 -10 -7 0 -13 -5 -13
-11 0 -6 9 -8 20 -4 12 4 40 -4 72 -20 29 -14 60 -24 70 -22 10 3 22 -1 26 -9
4 -8 44 -31 87 -53 44 -21 92 -52 107 -69 14 -16 40 -38 57 -48 17 -10 31 -22
31 -25 0 -4 -36 12 -80 37 -44 24 -84 44 -89 44 -5 0 -16 6 -24 14 -21 21
-126 72 -198 96 -35 11 -90 35 -123 52 -42 22 -75 31 -120 34 -33 1 -71 6 -83
10 -13 3 -23 2 -23 -3 0 -11 -90 -25 -175 -29 -27 -1 -51 -7 -53 -13 -2 -6
-11 -11 -20 -11 -13 0 -13 2 2 13 17 12 14 15 -29 27 -37 10 -49 11 -54 1 -9
-14 -71 -30 -114 -31 -16 0 -26 4 -22 9 3 6 -16 11 -42 13 -27 2 -47 8 -46 13
1 6 -14 10 -35 9 -20 -2 -27 0 -14 2 19 5 21 8 11 20 -11 13 3 15 112 10 68
-2 131 -5 139 -6 29 -3 155 7 185 15 17 4 34 14 38 21 8 13 43 13 115 -2z
m9043 -1 c13 -16 12 -17 -3 -4 -17 13 -22 21 -14 21 2 0 10 -8 17 -17z m-5394
1 c-3 -3 -12 -4 -19 -1 -8 3 -5 6 6 6 11 1 17 -2 13 -5z m2288 -4 c3 -5 -3
-10 -15 -10 -12 0 -18 5 -15 10 3 6 10 10 15 10 5 0 12 -4 15 -10z m-5014 -43
c-8 -8 -11 -3 -11 19 1 25 2 27 11 11 8 -14 8 -22 0 -30z m221 6 c33 -35 118
-164 118 -180 0 -3 8 -15 17 -25 25 -28 4 -43 -39 -29 -27 9 -39 23 -63 73
-16 34 -47 88 -67 119 -21 31 -38 62 -38 68 0 23 37 10 72 -26z m1239 -19 c15
-19 9 -25 -19 -17 -12 3 -22 13 -22 23 0 20 -33 37 -38 21 -2 -6 -8 -9 -13 -6
-5 4 -3 12 3 19 10 10 18 9 44 -6 18 -11 38 -26 45 -34z m1156 50 c-3 -3 -12
-4 -19 -1 -8 3 -5 6 6 6 11 1 17 -2 13 -5z m-2552 -55 c20 -28 39 -57 42 -65
9 -23 -16 -16 -42 12 -14 15 -25 22 -25 17 0 -6 18 -27 41 -48 47 -42 47 -50
3 -29 -37 18 -76 81 -57 92 8 5 9 13 3 22 -10 15 -14 50 -6 50 2 0 21 -23 41
-51z m70 18 c35 -36 78 -137 73 -171 -3 -17 -9 -11 -33 29 -16 28 -33 52 -37
53 -4 2 -8 10 -8 18 0 8 -13 28 -30 46 -16 17 -30 37 -30 44 0 24 32 15 65
-19z m1879 18 c-6 -16 15 -23 80 -27 28 -2 40 -8 42 -20 2 -14 -1 -16 -16 -8
-10 6 -33 10 -50 10 -34 0 -86 26 -94 47 -4 8 3 13 19 13 17 0 23 -4 19 -15z
m79 8 c-13 -2 -33 -2 -45 0 -13 2 -3 4 22 4 25 0 35 -2 23 -4z m4005 -13 c7
-11 9 -20 4 -20 -4 0 -13 9 -20 20 -7 11 -9 20 -4 20 4 0 13 -9 20 -20z
m-4353 0 c3 -5 0 -10 -9 -10 -8 0 -23 -3 -33 -6 -16 -6 -16 -5 2 9 24 19 32
21 40 7z m3230 0 c-3 -5 -13 -10 -21 -10 -8 0 -12 5 -9 10 3 6 13 10 21 10 8
0 12 -4 9 -10z m-3168 -19 c10 -16 9 -20 -7 -24 -20 -5 -40 10 -40 30 0 20 34
16 47 -6z m4368 -1 c10 -11 14 -20 8 -20 -5 0 -18 9 -28 20 -10 11 -14 20 -8
20 5 0 18 -9 28 -20z m-4298 -10 c13 0 13 -3 3 -15 -10 -12 -9 -16 2 -20 21
-8 18 -35 -4 -35 -10 0 -18 5 -18 10 0 6 -10 10 -22 11 -22 0 -22 1 2 10 23
10 24 11 8 23 -22 16 -23 30 -2 22 9 -3 23 -6 31 -6z m-357 -10 c0 -5 -7 -7
-15 -4 -8 4 -15 8 -15 10 0 2 7 4 15 4 8 0 15 -4 15 -10z m94 -1 c-4 -7 -44 0
-44 7 0 2 11 3 24 2 14 -1 23 -5 20 -9z m3201 1 c-3 -5 -14 -10 -23 -9 -14 0
-13 2 3 9 27 11 27 11 20 0z m-6417 -52 c19 -19 14 -30 -8 -18 -11 6 -20 15
-20 20 0 14 14 12 28 -2z m1954 -13 c36 -24 105 -126 113 -165 4 -20 2 -19
-27 5 -17 14 -48 52 -69 83 -21 31 -46 67 -55 80 -21 29 -8 28 38 -3z m-2017
5 c3 -5 1 -10 -4 -10 -6 0 -11 5 -11 10 0 6 2 10 4 10 3 0 8 -4 11 -10z m6041
-14 c18 -14 18 -15 -6 -20 -14 -4 -43 -8 -65 -10 -22 -2 -74 -17 -115 -34 -86
-34 -141 -43 -147 -25 -3 7 13 21 34 30 21 10 40 21 43 25 12 15 92 40 113 35
12 -4 29 -2 37 3 23 14 84 12 106 -4z m-6701 -36 c7 -11 -6 -13 -29 -4 -9 3
-16 13 -16 20 0 11 4 12 19 4 11 -5 23 -15 26 -20z m923 -13 c11 2 30 -1 42
-7 20 -11 22 -10 17 4 -8 20 2 20 30 1 12 -8 50 -19 85 -25 107 -17 157 -29
180 -44 13 -8 41 -18 63 -22 22 -4 62 -21 90 -38 48 -30 49 -31 23 -34 -28 -3
-36 -16 -18 -27 5 -3 23 2 40 12 30 17 30 17 105 -20 42 -20 81 -37 89 -37 18
0 67 -40 61 -49 -2 -5 39 -25 93 -46 53 -21 126 -56 162 -78 81 -49 136 -68
224 -77 49 -6 74 -14 89 -29 13 -13 16 -21 9 -21 -7 0 -10 -4 -7 -10 11 -18
-47 -10 -82 11 -22 14 -42 19 -58 15 -13 -3 -27 -2 -30 4 -3 5 -11 10 -16 10
-6 0 -8 -4 -4 -10 6 -10 -41 -6 -107 10 -24 6 -53 13 -65 15 -11 3 -47 18 -80
34 -32 16 -59 26 -61 21 -6 -15 -83 24 -79 40 3 11 -6 15 -38 16 -28 1 -54 9
-76 25 l-33 23 34 9 c48 11 52 11 83 3 38 -9 35 14 -6 40 -26 17 -40 20 -77
14 -25 -4 -35 -8 -23 -9 25 -1 40 -19 21 -25 -7 -3 -34 -6 -61 -9 -44 -4 -50
-2 -87 34 -26 25 -49 39 -66 39 -33 0 -27 -24 7 -28 38 -6 47 -22 12 -22 -17
0 -42 9 -56 20 -14 11 -38 20 -54 21 -23 0 -25 2 -9 8 17 7 16 9 -12 30 -26
18 -48 23 -121 26 -97 3 -135 11 -126 26 4 5 -1 9 -10 9 -16 0 -75 57 -75 72
0 15 27 8 45 -12 19 -21 60 -27 70 -11 3 5 -5 13 -17 17 -13 4 -35 16 -50 27
-20 15 -45 21 -97 22 -61 2 -70 -1 -75 -18 -2 -10 -1 -30 4 -43 8 -21 7 -24
-14 -24 -20 0 -23 4 -20 32 6 45 14 68 25 68 22 0 6 19 -26 30 -70 23 -42 27
35 5 43 -13 88 -21 98 -18z m3352 34 c0 -5 -15 -14 -32 -19 -43 -13 -129 -22
-123 -12 2 4 30 10 61 13 31 3 62 11 67 16 13 13 27 14 27 2z m2960 -6 c0 -11
-90 -43 -140 -50 -30 -3 -64 -9 -75 -12 -16 -4 -15 -2 6 15 15 13 57 27 105
35 96 17 104 18 104 12z m-6610 -22 c17 -7 30 -7 42 0 13 9 21 7 36 -6 10 -9
29 -17 41 -17 20 0 22 -3 16 -32 -12 -54 -21 -65 -34 -40 -8 14 -21 22 -39 22
-30 1 -155 59 -159 76 -4 13 63 11 97 -3z m1776 0 c24 -10 33 -18 23 -20 -21
-5 -69 14 -69 27 0 13 1 13 46 -7z m-2292 -14 c8 -9 1 -10 -34 -5 -59 9 -73
24 -19 20 23 -1 47 -8 53 -15z m2235 -9 c23 -6 41 -15 41 -20 0 -6 -4 -10 -9
-10 -13 0 -101 40 -101 47 0 3 6 3 14 0 8 -3 33 -11 55 -17z m686 -10 c8 -13
-1 -13 -26 0 -10 6 -19 15 -19 21 0 11 35 -5 45 -21z m4878 13 c-7 -2 -19 -2
-25 0 -7 3 -2 5 12 5 14 0 19 -2 13 -5z m-5663 -13 c0 -5 -6 -10 -14 -10 -8 0
-18 5 -21 10 -3 6 3 10 14 10 12 0 21 -4 21 -10z m1371 0 c14 -8 19 -7 19 1 0
6 15 -2 33 -18 18 -16 58 -40 90 -53 56 -25 82 -49 31 -30 -33 13 -34 13 -28
-5 9 -21 -10 -19 -31 5 -10 11 -24 20 -30 20 -7 0 -18 7 -26 16 -7 8 -34 27
-61 40 -26 13 -48 27 -48 29 0 9 31 5 51 -5z m4222 3 c-7 -2 -19 -2 -25 0 -7
3 -2 5 12 5 14 0 19 -2 13 -5z m-8210 -30 c6 -31 -4 -36 -41 -18 -46 23 -46
40 -2 41 33 1 39 -2 43 -23z m864 -16 c3 -4 -13 -6 -36 -5 -40 1 -71 18 -71
38 0 9 94 -21 107 -33z m7257 34 c7 -11 -14 -20 -71 -30 -46 -9 -50 -7 -30 13
24 24 90 35 101 17z m-5262 -30 c4 -4 -3 -8 -16 -9 -14 -1 -27 5 -30 14 -5 12
-1 14 17 9 12 -4 25 -10 29 -14z m-1598 -16 c13 -19 13 -23 2 -19 -8 3 -16 14
-19 25 -7 25 -3 24 17 -6z m5466 5 c0 -5 -4 -10 -9 -10 -5 0 -17 -3 -27 -7
-16 -6 -17 -5 -4 10 17 18 40 22 40 7z m-2070 -10 c12 -8 12 -10 -3 -16 -17
-6 -16 -8 3 -21 12 -8 27 -12 35 -9 7 2 15 2 17 -2 2 -4 19 -15 38 -25 l35
-17 -32 6 c-27 4 -33 2 -33 -12 0 -13 -5 -10 -21 10 -13 16 -30 26 -43 25 -11
0 -34 -1 -51 0 -28 2 -29 3 -12 15 10 8 20 23 22 33 2 10 4 19 4 21 2 5 27 1
41 -8z m3237 -6 c-3 -3 -12 -4 -19 -1 -8 3 -5 6 6 6 11 1 17 -2 13 -5z m-937
-14 c0 -5 -5 -10 -11 -10 -5 0 -7 5 -4 10 3 6 8 10 11 10 2 0 4 -4 4 -10z
m1469 1 c11 -7 8 -16 -15 -46 l-28 -37 -65 5 c-57 4 -62 3 -41 -8 13 -7 36
-11 52 -8 30 4 40 -13 11 -19 -11 -2 19 -26 80 -66 53 -34 97 -65 97 -68 0 -3
-5 -2 -12 2 -15 10 26 -49 47 -66 9 -7 31 -38 49 -69 100 -172 112 -369 30
-532 -66 -132 -238 -241 -433 -274 -98 -16 -108 -16 -194 0 -249 48 -437 160
-577 346 -49 66 -60 76 -60 55 0 -51 -17 -33 -23 23 -2 32 -9 66 -15 77 -14
26 -36 85 -38 103 -1 9 -7 40 -13 70 -6 29 -11 72 -11 95 0 38 -1 39 -14 20
-10 -15 -27 -21 -55 -22 -23 -1 -41 3 -41 8 0 6 12 10 28 10 43 1 78 38 100
107 46 140 166 239 326 267 139 26 269 29 401 10 211 -29 243 -29 305 -1 59
27 87 32 109 18z m2425 -7 c29 -4 46 -12 46 -20 0 -8 7 -14 14 -14 8 0 49 -16
92 -35 42 -19 80 -33 84 -30 14 9 39 -6 34 -20 -4 -10 6 -13 41 -13 26 0 49
-3 53 -6 3 -3 -4 -6 -16 -6 -11 0 -24 -4 -27 -10 -3 -5 -16 -10 -28 -10 -12 0
-31 -7 -41 -15 -23 -17 -56 -20 -56 -5 0 6 5 10 12 10 6 0 8 3 5 6 -4 4 -13 1
-22 -6 -12 -10 -15 -10 -15 1 0 10 -14 14 -44 15 -55 2 -168 54 -218 102 -44
42 -48 56 -13 50 14 -3 25 -1 25 3 0 11 12 11 74 3z m-9537 -10 c-3 -3 -12 -4
-19 -1 -8 3 -5 6 6 6 11 1 17 -2 13 -5z m2478 -4 c3 -5 1 -10 -4 -10 -6 0 -11
5 -11 10 0 6 2 10 4 10 3 0 8 -4 11 -10z m-913 -33 c7 -7 26 -22 42 -35 16
-12 23 -22 14 -22 -8 0 -23 7 -34 15 -25 19 -40 19 -24 0 7 -8 10 -30 8 -50
-2 -19 0 -36 5 -38 5 -1 3 -16 -5 -32 -9 -17 -13 -35 -11 -41 2 -7 -5 -10 -22
-6 -29 5 -44 22 -20 22 13 0 15 6 9 32 -11 53 -13 117 -3 124 5 3 9 14 9 25 0
22 13 25 32 6z m512 -57 c32 -39 77 -81 104 -97 76 -44 116 -73 101 -73 -28 0
-125 65 -179 119 -48 49 -100 121 -87 121 3 0 30 -31 61 -70z m3669 42 c18
-16 24 -38 8 -28 -5 4 -11 1 -13 -5 -2 -6 -14 -8 -32 -3 -20 5 -24 9 -14 15 9
6 4 11 -19 20 -18 6 -33 15 -33 19 0 13 84 -1 103 -18z m1566 21 c-4 -23 3
-32 18 -26 12 5 15 2 10 -10 -4 -12 1 -17 21 -19 20 -2 32 -13 45 -40 9 -21
20 -38 22 -38 3 0 1 9 -5 20 -12 23 2 27 20 5 7 -8 32 -24 55 -36 24 -12 47
-30 52 -40 4 -10 33 -31 63 -47 30 -16 59 -38 64 -49 6 -12 28 -25 55 -32 25
-7 58 -16 72 -21 16 -5 31 -4 37 2 6 6 20 7 33 2 13 -4 45 -8 71 -8 26 -1 53
-7 60 -14 7 -7 29 -12 50 -12 20 0 47 -4 60 -9 13 -5 53 -16 90 -25 85 -19
211 -90 308 -173 138 -117 159 -138 162 -158 2 -11 8 -20 15 -20 6 0 15 -4 20
-9 5 -5 3 -6 -4 -2 -7 4 -13 5 -13 2 0 -9 39 -46 48 -46 17 0 65 -68 79 -111
18 -53 33 -72 25 -32 l-5 28 20 -25 c12 -14 19 -34 17 -47 -3 -15 2 -26 16
-33 11 -6 20 -14 20 -19 0 -14 -48 0 -66 20 -9 10 -26 19 -36 19 -10 0 -22 8
-25 17 -4 9 -14 24 -22 34 -31 34 -39 46 -45 67 -4 12 -13 22 -20 22 -7 0 -27
14 -45 30 -17 17 -37 28 -43 24 -7 -4 -8 -3 -4 4 4 8 0 12 -11 12 -19 1 -75
29 -58 29 6 1 17 -3 25 -8 8 -6 18 -7 23 -4 16 10 -112 125 -141 127 -15 0
-33 9 -41 19 -7 10 -44 38 -82 63 -38 24 -69 48 -69 54 0 5 -7 10 -15 10 -9 0
-28 6 -44 14 -15 8 -49 17 -77 20 -27 4 -50 11 -52 16 -2 6 -10 10 -18 10 -8
0 -22 4 -32 9 -9 5 -38 16 -64 24 -41 12 -48 12 -53 0 -5 -16 -59 -10 -82 9
-7 5 -17 7 -23 3 -5 -3 -25 -2 -43 4 -17 6 -44 13 -58 16 -15 2 -37 14 -50 25
l-24 20 34 -7 c26 -5 32 -3 27 6 -5 7 -14 10 -22 7 -7 -3 -27 6 -44 20 -16 14
-34 23 -40 19 -5 -3 -14 5 -20 19 -5 14 -14 26 -19 26 -5 0 -24 14 -42 31 -19
17 -40 32 -47 33 -7 1 -34 25 -61 53 -26 28 -54 52 -61 55 -6 2 -18 20 -25 41
-11 31 -10 37 1 37 8 0 13 -3 13 -7z m-5805 -17 c-21 -15 -30 -14 -19 3 3 6
14 11 23 11 13 0 13 -2 -4 -14z m246 4 c0 -5 -4 -10 -9 -10 -5 0 -18 -3 -28
-7 -16 -6 -16 -5 -4 10 15 19 41 23 41 7z m61 -16 c12 -15 11 -16 -11 -9 -35
10 -49 25 -23 25 11 0 27 -7 34 -16z m472 -20 c10 -19 13 -33 7 -29 -14 9 -42
65 -32 65 5 0 16 -16 25 -36z m-324 -11 c2 -2 0 -3 -6 -3 -6 0 -21 9 -34 21
l-24 20 30 -17 c17 -10 32 -19 34 -21z m3948 16 c13 -5 25 -4 28 1 8 13 35 13
35 0 0 -22 -176 -38 -197 -17 -3 4 0 7 8 7 12 0 12 2 0 9 -19 12 95 12 126 0z
m-3490 -11 c15 -7 42 -23 59 -35 17 -13 45 -28 62 -34 18 -6 30 -15 27 -20
-10 -15 -107 31 -180 85 -24 18 -6 20 32 4z m-617 -18 c8 -16 7 -26 -7 -45
-18 -24 -53 -34 -53 -15 0 6 -7 10 -16 10 -11 0 -14 5 -10 16 3 9 6 20 6 25 0
5 14 9 30 9 17 0 30 -4 30 -10 0 -5 5 -10 11 -10 16 0 0 20 -25 30 l-21 9 22
0 c13 1 27 -8 33 -19z m4095 -20 c3 -5 -3 -10 -15 -10 -12 0 -18 5 -15 10 3 6
10 10 15 10 5 0 12 -4 15 -10z m-1321 -17 c13 -46 28 -221 24 -276 -10 -124
-76 -196 -215 -236 -43 -12 -84 -24 -90 -26 -18 -6 -16 -42 3 -49 29 -11 116
-6 172 10 88 26 162 84 208 162 l39 67 0 183 0 182 126 0 c140 0 162 -8 196
-73 20 -39 42 -212 43 -332 0 -80 -3 -97 -30 -154 -50 -105 -100 -153 -194
-184 -43 -15 -103 -17 -455 -17 -402 0 -406 1 -446 23 -128 72 -187 304 -135
532 27 122 40 147 87 180 l38 25 312 0 c288 0 312 -1 317 -17z m-2633 -32 c-7
-12 -16 -21 -21 -21 -14 0 -12 34 2 48 18 18 32 -2 19 -27z m-10284 -48 c-3
-10 -5 -2 -5 17 0 19 2 27 5 18 2 -10 2 -26 0 -35z m10090 15 c-3 -8 -6 -5 -6
6 -1 11 2 17 5 13 3 -3 4 -12 1 -19z m870 16 c-3 -3 -12 -4 -19 -1 -8 3 -5 6
6 6 11 1 17 -2 13 -5z m938 -54 c3 -6 -1 -7 -9 -4 -18 7 -21 14 -7 14 6 0 13
-4 16 -10z m-1161 -16 c3 -8 2 -12 -4 -9 -6 3 -10 10 -10 16 0 14 7 11 14 -7z
m3392 -63 c-23 -26 -174 -103 -186 -96 -27 16 -6 42 58 72 57 28 69 30 78 18
10 -13 14 -12 29 5 10 11 23 20 28 20 6 0 2 -9 -7 -19z m3397 -95 c38 -11 45
-11 40 0 -4 11 4 13 38 9 100 -10 159 -26 239 -63 180 -84 405 -99 658 -46 59
13 79 14 103 4 l29 -12 -34 -33 c-33 -31 -51 -40 -126 -63 -32 -10 -384 -8
-490 3 -52 5 -120 27 -162 52 -20 12 -65 32 -100 44 -34 13 -77 33 -94 46 -17
13 -38 23 -47 23 -9 0 -18 4 -22 9 -3 6 -26 13 -50 17 -25 3 -48 10 -51 15 -8
13 16 11 69 -5z m-7688 -7 c45 -11 70 -39 35 -39 -10 0 -22 5 -25 10 -3 6 -28
10 -56 10 -61 0 -66 20 -6 29 5 0 28 -4 52 -10z m-275 -29 c0 -5 -7 -10 -15
-10 -8 0 -15 5 -15 10 0 6 7 10 15 10 8 0 15 -4 15 -10z m380 -6 c0 -2 -9 -4
-20 -4 -11 0 -20 4 -20 9 0 5 9 7 20 4 11 -3 20 -7 20 -9z m4320 10 c0 -18
-23 -44 -40 -44 -37 0 -33 33 5 43 30 7 35 7 35 1z m-3933 -40 c-9 -9 -28 6
-21 18 4 6 10 6 17 -1 6 -6 8 -13 4 -17z m3759 1 c18 -13 17 -14 -20 -15 -30
0 -37 -3 -32 -15 7 -19 -1 -19 -20 -1 -19 19 -18 34 4 39 33 9 48 7 68 -8z
m156 -36 c9 -5 23 -6 32 -3 8 3 19 -3 25 -15 16 -30 15 -30 -36 -14 -27 8 -65
17 -86 19 -45 4 -60 12 -51 26 7 11 88 2 116 -13z m-172 -59 c0 -5 -2 -10 -4
-10 -3 0 -8 5 -11 10 -3 6 -1 10 4 10 6 0 11 -4 11 -10z m249 -29 c16 -28 -7
-49 -66 -59 -44 -8 -55 -7 -68 8 -30 34 -19 50 34 50 28 0 53 5 56 10 10 16
33 12 44 -9z m-3258 -114 c-1 -4 -1 -17 -1 -29 0 -19 -2 -20 -10 -8 -13 20
-13 53 1 48 6 -2 10 -7 10 -11z m6222 -51 c37 -15 87 -26 111 -26 35 0 97 -9
176 -25 8 -2 25 -4 37 -4 12 -1 28 -8 37 -16 8 -8 22 -15 31 -15 28 0 55 -19
49 -35 -4 -9 0 -15 10 -15 20 0 21 -14 1 -30 -10 -8 -31 -11 -59 -7 -27 4 -46
2 -48 -4 -3 -10 -19 -8 -138 22 -25 6 -63 14 -85 19 -22 4 -58 14 -80 22 -22
8 -58 18 -79 22 -30 6 -54 23 -103 72 -36 35 -62 68 -59 73 6 9 94 -14 199
-53z m-6226 -38 c-3 -8 -6 -5 -6 6 -1 11 2 17 5 13 3 -3 4 -12 1 -19z m6188
-198 c3 -5 2 -10 -4 -10 -5 0 -13 5 -16 10 -3 6 -2 10 4 10 5 0 13 -4 16 -10z
m1185 -4 c0 -3 -4 -8 -10 -11 -5 -3 -10 -1 -10 4 0 6 5 11 10 11 6 0 10 -2 10
-4z m50 0 c0 -3 -4 -8 -10 -11 -5 -3 -10 -1 -10 4 0 6 5 11 10 11 6 0 10 -2
10 -4z m-1305 -46 c3 -6 -1 -7 -9 -4 -18 7 -21 14 -7 14 6 0 13 -4 16 -10z
m220 -40 c3 -5 -1 -10 -9 -10 -8 0 -18 5 -21 10 -3 6 1 10 9 10 8 0 18 -4 21
-10z m1133 -62 c-2 -5 -16 -17 -31 -26 -24 -15 -29 -15 -38 -2 -9 13 -10 13
-6 -2 4 -11 -3 -20 -24 -28 -36 -15 -50 -6 -23 15 19 14 19 14 -1 15 -32 1 4
18 49 23 20 2 39 6 41 9 9 9 36 5 33 -4z m-173 -58 c-3 -5 -16 -10 -28 -10
-18 0 -19 2 -7 10 20 13 43 13 35 0z m-130 -38 c-3 -3 -11 0 -18 7 -9 10 -8
11 6 5 10 -3 15 -9 12 -12z"/>
<path d="M19527 7781 c-10 -4 -18 -11 -18 -16 1 -6 -12 -14 -29 -18 -33 -8
-39 -24 -14 -34 11 -4 28 7 51 32 37 40 38 46 10 36z"/>
<path d="M19105 7709 c-11 -17 1 -21 15 -4 8 9 8 15 2 15 -6 0 -14 -5 -17 -11z"/>
<path d="M19205 7710 c-3 -5 -1 -10 4 -10 6 0 11 5 11 10 0 6 -2 10 -4 10 -3
0 -8 -4 -11 -10z"/>
<path d="M19390 7710 c-21 -13 -10 -18 27 -13 18 3 30 9 27 14 -7 12 -35 11
-54 -1z"/>
<path d="M18953 7635 c-8 -23 0 -24 20 -3 14 15 15 18 2 18 -9 0 -18 -7 -22
-15z"/>
<path d="M19085 7641 c-3 -5 -1 -12 5 -16 5 -3 10 1 10 9 0 18 -6 21 -15 7z"/>
<path d="M18888 7603 c-10 -2 -18 -9 -18 -14 0 -13 12 -11 34 6 20 15 16 17
-16 8z"/>
<path d="M18834 7558 l-19 -23 23 19 c21 18 27 26 19 26 -2 0 -12 -10 -23 -22z"/>
<path d="M18710 7539 c0 -5 5 -7 10 -4 6 3 10 8 10 11 0 2 -4 4 -10 4 -5 0
-10 -5 -10 -11z"/>
<path d="M18748 7520 c-14 -11 -28 -30 -31 -42 -2 -13 -8 -31 -12 -40 -4 -10
-3 -18 3 -18 6 0 15 12 21 28 6 15 21 42 32 60 24 37 21 40 -13 12z"/>
<path d="M18657 7499 c-18 -11 -24 -39 -7 -39 6 0 10 6 10 14 0 8 6 16 13 19
6 2 10 7 7 10 -3 3 -13 1 -23 -4z"/>
<path d="M18666 7434 c-3 -9 -6 -25 -6 -37 1 -22 1 -22 15 -3 17 22 20 56 6
56 -5 0 -12 -7 -15 -16z"/>
<path d="M18615 7430 c3 -5 8 -10 11 -10 2 0 4 5 4 10 0 6 -5 10 -11 10 -5 0
-7 -4 -4 -10z"/>
<path d="M18700 7380 c0 -5 4 -10 9 -10 6 0 13 5 16 10 3 6 -1 10 -9 10 -9 0
-16 -4 -16 -10z"/>
<path d="M18560 7350 c-27 -15 -30 -19 -14 -20 21 0 63 25 54 33 -3 3 -21 -3
-40 -13z"/>
<path d="M18470 7351 c0 -5 9 -11 20 -14 24 -6 27 8 4 17 -21 8 -24 8 -24 -3z"/>
<path d="M13400 7735 c0 -6 56 -35 67 -35 4 0 -5 9 -22 20 -29 19 -45 25 -45
15z"/>
<path d="M16668 7548 c5 -5 16 -8 23 -6 8 3 3 7 -10 11 -17 4 -21 3 -13 -5z"/>
<path d="M17065 7300 c3 -5 8 -10 11 -10 2 0 4 5 4 10 0 6 -5 10 -11 10 -5 0
-7 -4 -4 -10z"/>
<path d="M17920 7275 c-11 -13 -10 -14 4 -9 9 3 16 10 16 15 0 13 -6 11 -20
-6z"/>
<path d="M18078 7223 c6 -2 18 -2 25 0 6 3 1 5 -13 5 -14 0 -19 -2 -12 -5z"/>
<path d="M18205 7210 c3 -5 10 -10 16 -10 5 0 9 5 9 10 0 6 -7 10 -16 10 -8 0
-12 -4 -9 -10z"/>
<path d="M18369 7200 c34 -22 56 -24 43 -4 -4 6 -23 15 -42 18 l-35 7 34 -21z"/>
<path d="M18060 7180 c8 -5 24 -10 35 -10 11 0 31 -7 43 -16 22 -15 23 -15 20
2 -3 22 -28 32 -78 33 -26 0 -31 -2 -20 -9z"/>
<path d="M18030 7145 c7 -9 15 -13 17 -11 7 7 -7 26 -19 26 -6 0 -6 -6 2 -15z"/>
<path d="M18430 7126 c0 -2 7 -9 15 -16 12 -10 15 -10 15 4 0 9 -7 16 -15 16
-8 0 -15 -2 -15 -4z"/>
<path d="M17975 7100 c-3 -5 -2 -10 4 -10 5 0 13 5 16 10 3 6 2 10 -4 10 -5 0
-13 -4 -16 -10z"/>
<path d="M18510 7101 c0 -5 5 -13 10 -16 6 -3 10 -2 10 4 0 5 -4 13 -10 16 -5
3 -10 2 -10 -4z"/>
<path d="M18008 7084 c-3 -3 13 -23 35 -44 23 -21 44 -37 46 -35 5 5 -59 85
-68 85 -4 0 -10 -3 -13 -6z"/>
<path d="M18590 7051 c0 -5 5 -13 10 -16 6 -3 10 -2 10 4 0 5 -4 13 -10 16 -5
3 -10 2 -10 -4z"/>
<path d="M18120 7041 c0 -4 10 -16 21 -27 22 -19 22 -19 15 6 -6 23 -5 23 6 6
27 -41 58 -66 83 -66 14 0 25 2 25 4 0 3 -26 22 -57 43 -56 37 -93 51 -93 34z"/>
<path d="M18485 6993 c-42 -22 -42 -23 -21 -39 25 -18 87 -18 111 0 18 13 17
14 -13 21 -18 3 -32 13 -32 21 0 18 -7 17 -45 -3z"/>
<path d="M19255 6970 c3 -5 11 -10 16 -10 6 0 7 5 4 10 -3 6 -11 10 -16 10 -6
0 -7 -4 -4 -10z"/>
<path d="M18618 6963 c7 -3 16 -2 19 1 4 3 -2 6 -13 5 -11 0 -14 -3 -6 -6z"/>
<path d="M19349 6955 c42 -19 47 -19 31 0 -7 8 -24 15 -39 15 -25 -1 -25 -1 8
-15z"/>
<path d="M19245 6940 c-9 -14 35 -39 75 -42 25 -2 35 1 38 13 5 27 -98 54
-113 29z"/>
<path d="M19114 6909 c29 -16 44 -18 60 -11 20 10 20 10 -7 21 -16 6 -43 11
-60 11 l-32 -1 39 -20z"/>
<path d="M19320 6865 c0 -2 9 -9 20 -15 16 -9 20 -8 20 5 0 8 -9 15 -20 15
-11 0 -20 -2 -20 -5z"/>
<path d="M19205 6780 c3 -5 10 -10 16 -10 5 0 9 5 9 10 0 6 -7 10 -16 10 -8 0
-12 -4 -9 -10z"/>
<path d="M19450 6731 c0 -10 61 -41 81 -41 9 0 7 7 -6 19 -22 21 -75 37 -75
22z"/>
<path d="M19577 6659 c7 -7 15 -10 18 -7 3 3 -2 9 -12 12 -14 6 -15 5 -6 -5z"/>
<path d="M14160 7401 c0 -5 7 -11 15 -15 8 -3 15 -1 15 3 0 5 -7 11 -15 15 -8
3 -15 1 -15 -3z"/>
<path d="M14100 7370 c20 -13 40 -13 40 0 0 6 -12 10 -27 10 -22 0 -25 -2 -13
-10z"/>
<path d="M14298 7303 c7 -3 16 -2 19 1 4 3 -2 6 -13 5 -11 0 -14 -3 -6 -6z"/>
<path d="M15145 7410 c3 -5 13 -10 21 -10 8 0 12 5 9 10 -3 6 -13 10 -21 10
-8 0 -12 -4 -9 -10z"/>
<path d="M24562 7208 c-19 -19 -14 -30 8 -18 11 6 20 15 20 20 0 14 -14 12
-28 -2z"/>
<path d="M18871 7312 c-14 -34 3 -98 19 -72 12 19 13 100 1 100 -5 0 -14 -13
-20 -28z"/>
<path d="M14615 7090 c10 -11 23 -20 28 -20 6 0 2 9 -8 20 -10 11 -23 20 -28
20 -6 0 -2 -9 8 -20z"/>
<path d="M16637 7083 c-36 -19 -29 -26 17 -18 21 4 36 13 36 21 0 17 -16 16
-53 -3z"/>
<path d="M16328 7063 c6 -2 18 -2 25 0 6 3 1 5 -13 5 -14 0 -19 -2 -12 -5z"/>
<path d="M16405 6850 c3 -5 11 -10 16 -10 6 0 7 5 4 10 -3 6 -11 10 -16 10 -6
0 -7 -4 -4 -10z"/>
<path d="M16520 6841 c0 -6 5 -13 10 -16 6 -4 8 -11 4 -16 -13 -21 19 -39 70
-39 l51 1 -24 19 c-13 11 -34 20 -47 20 -13 0 -28 9 -34 20 -11 21 -30 27 -30
11z"/>
<path d="M16391 6800 c-96 -9 -20 -38 83 -32 23 2 26 5 17 16 -16 19 -36 22
-100 16z"/>
<path d="M16666 6795 c10 -8 26 -14 34 -14 11 0 10 3 -4 14 -11 8 -27 15 -35
15 -11 0 -10 -4 5 -15z"/>
<path d="M16613 6753 c-13 -3 -23 -8 -23 -12 0 -4 10 -12 23 -18 25 -11 95 3
81 16 -13 12 -55 19 -81 14z"/>
<path d="M16780 6670 c8 -5 20 -10 25 -10 6 0 3 5 -5 10 -8 5 -19 10 -25 10
-5 0 -3 -5 5 -10z"/>
<path d="M17054 6581 c3 -5 15 -7 26 -4 28 7 25 13 -6 13 -14 0 -23 -4 -20 -9z"/>
<path d="M24085 6380 c3 -5 10 -10 16 -10 5 0 9 5 9 10 0 6 -7 10 -16 10 -8 0
-12 -4 -9 -10z"/>
<path d="M24956 5941 c12 -14 29 -40 38 -58 18 -37 36 -52 29 -24 -2 10 -23
38 -46 63 -23 24 -32 33 -21 19z"/>
<path d="M26460 6270 c-12 -8 -11 -10 7 -10 12 0 25 5 28 10 8 13 -15 13 -35
0z"/>
<path d="M26308 6223 c7 -3 16 -2 19 1 4 3 -2 6 -13 5 -11 0 -14 -3 -6 -6z"/>
<path d="M25500 5860 c8 -5 20 -10 25 -10 6 0 3 5 -5 10 -8 5 -19 10 -25 10
-5 0 -3 -5 5 -10z"/>
<path d="M22570 7542 c70 -32 692 -25 750 8 9 6 -142 9 -385 9 -376 -1 -398
-2 -365 -17z"/>
</g>
</svg>
