<?xml version="1.0" standalone="no"?>
<!DOCTYPE svg PUBLIC "-//W3C//DTD SVG 20010904//EN"
 "http://www.w3.org/TR/2001/REC-SVG-20010904/DTD/svg10.dtd">
<svg version="1.0" xmlns="http://www.w3.org/2000/svg"
 width="1920.000000pt" height="667.000000pt" viewBox="0 0 1920.000000 667.000000"
 preserveAspectRatio="xMidYMid meet">

<g transform="translate(0.000000,667.000000) scale(0.100000,-0.100000)"
fill="#000000" stroke="none">
<path d="M11250 6279 c-44 -18 -79 -60 -110 -135 -34 -82 -36 -99 -15 -108 20
-7 20 -116 1 -155 -10 -18 -17 -76 -20 -172 l-6 -144 -32 -7 c-44 -10 -98 15
-98 45 -1 51 -17 57 -159 57 l-131 0 -20 -32 c-14 -23 -20 -51 -20 -90 l0 -57
133 -3 c72 -2 156 -1 185 2 28 3 52 3 52 -1 0 -4 10 -9 22 -13 16 -4 20 -8 12
-16 -8 -8 -32 -8 -77 -2 -44 6 -68 5 -70 -2 -2 -7 -29 -7 -84 0 -63 7 -83 6
-92 -4 -7 -7 -20 -10 -29 -8 -43 14 -142 22 -145 12 -2 -7 -29 -7 -83 -1 -71
9 -83 8 -99 -7 -19 -19 -71 -25 -60 -8 8 13 19 13 -300 14 -211 1 -283 -2
-293 -11 -15 -14 -66 -18 -58 -4 9 13 -87 19 -256 16 -87 -2 -158 -1 -158 3 0
4 -36 3 -81 -2 -63 -8 -82 -7 -88 3 -5 8 -11 9 -15 3 -3 -5 -46 -9 -95 -8 -57
1 -89 -2 -88 -9 1 -6 -57 -11 -163 -12 -111 -2 -160 0 -150 7 10 6 11 10 3 10
-7 0 -13 8 -14 18 0 10 -3 12 -6 5 -2 -7 -10 -13 -18 -13 -7 0 -18 -7 -25 -15
-10 -13 -51 -15 -254 -14 -221 1 -236 2 -181 14 l60 12 -72 2 -73 1 0 -90 0
-90 -50 0 c-37 0 -50 4 -50 14 0 8 -25 44 -56 80 l-56 66 -159 0 c-154 0 -159
1 -159 20 0 12 -8 35 -17 53 l-17 32 -9 -40 c-6 -22 -15 -43 -21 -47 -8 -6 -6
-11 4 -19 11 -8 8 -9 -15 -4 -16 4 -33 12 -37 18 -4 7 -12 19 -17 27 -7 11
-36 17 -98 20 -76 5 -85 7 -63 17 34 16 17 15 -65 -3 -47 -10 -122 -15 -225
-15 -206 1 -260 -5 -260 -30 0 -25 -17 -24 -25 1 -7 22 -55 29 -55 8 0 -10 -2
-10 -9 0 -6 10 -25 13 -65 10 -92 -7 -63 8 37 19 l92 10 -107 1 c-72 2 -108 6
-110 14 -3 9 -12 9 -36 -1 -19 -8 -54 -11 -95 -8 -39 3 -97 -1 -148 -12 -97
-19 -279 -15 -245 5 10 6 16 16 12 23 -12 18 -25 13 -32 -13 -5 -23 -10 -24
-117 -31 -62 -3 -155 -5 -207 -3 l-95 3 65 11 c59 10 49 11 -97 9 -90 -2 -207
1 -260 5 -76 6 -107 4 -138 -8 -42 -15 -116 -17 -125 -3 -3 5 -16 11 -30 15
-14 4 -35 12 -48 19 -19 9 -25 8 -32 -3 -7 -11 -33 -15 -102 -16 -105 -1 -198
-19 -198 -39 0 -7 -7 -15 -15 -19 -9 -3 -15 0 -15 9 0 8 -8 15 -17 16 -10 1 0
7 22 14 l40 13 -37 1 c-20 1 -66 -6 -101 -14 -35 -8 -88 -14 -117 -14 -31 1
-55 -3 -60 -11 -5 -9 -9 -8 -13 4 -5 12 6 16 51 21 31 3 77 8 102 11 l45 6
-34 14 c-41 17 -62 18 -93 1 -16 -8 -61 -12 -129 -11 -57 1 -127 0 -156 -3
l-51 -5 9 -31 c5 -18 9 -35 9 -39 0 -5 -49 -8 -110 -8 -85 0 -110 3 -110 13 0
25 39 49 92 57 30 4 40 8 23 8 -16 1 -74 -4 -127 -12 -97 -12 -195 -8 -170 7
6 5 12 14 12 21 0 21 -150 13 -162 -8 -7 -13 -3 -16 24 -16 28 -1 31 -2 17
-13 -9 -7 -21 -22 -28 -34 -11 -21 -19 -23 -101 -23 -61 0 -90 4 -93 13 -3 6
-6 0 -6 -14 -1 -15 6 -29 14 -33 29 -11 15 -136 -15 -136 -6 0 -10 17 -10 38
0 38 -14 65 -90 167 -20 28 -119 166 -219 308 -241 338 -277 379 -371 431 -68
37 -81 41 -145 40 -85 -1 -146 -28 -171 -77 -12 -23 -20 -74 -25 -177 -11
-197 -39 -852 -39 -917 l0 -53 -133 0 c-73 0 -137 4 -143 9 -24 23 -266 39
-301 20 -19 -10 -28 -10 -43 -1 -29 18 -100 15 -122 -5 -17 -15 -19 -15 -36 0
-17 15 -62 17 -435 17 l-417 0 -20 -32 c-36 -59 -54 -213 -37 -310 11 -63 48
-147 70 -163 18 -13 82 -15 429 -15 361 0 408 2 423 16 15 15 17 15 34 0 22
-20 94 -21 125 -1 21 14 24 14 36 0 18 -22 179 -21 223 2 25 12 70 17 205 21
168 5 174 4 188 -17 14 -19 24 -21 109 -21 84 0 95 2 105 20 10 19 21 20 280
20 259 0 270 -1 280 -20 9 -17 21 -20 86 -20 41 0 73 4 70 9 -3 5 -7 40 -8 79
-2 71 10 115 44 163 l18 27 37 -38 c21 -20 44 -39 51 -41 9 -3 15 -28 18 -69
10 -129 10 -130 54 -130 33 0 37 -3 33 -20 -5 -18 -14 -20 -90 -20 l-86 0 7
-41 c4 -22 16 -59 27 -81 17 -34 20 -55 17 -117 l-3 -76 38 -12 c29 -10 450
-13 1930 -15 1041 -1 1898 2 1905 6 18 11 71 16 76 8 4 -7 100 -7 486 -4 l165
1 40 43 c71 76 76 84 86 154 6 42 15 72 24 77 8 4 15 17 15 27 0 15 7 20 26
20 23 0 26 -3 21 -26 -3 -15 1 -41 8 -58 17 -38 135 -164 135 -143 0 8 17 31
37 51 21 20 31 36 24 36 -7 0 -26 -14 -42 -31 -32 -34 -45 -34 -34 0 9 28 56
52 122 60 52 8 74 -2 30 -13 -12 -3 -39 -27 -59 -53 -20 -26 -47 -58 -61 -71
-36 -33 -26 -69 23 -83 25 -8 40 -19 44 -32 3 -12 8 -18 12 -14 12 11 44 -24
44 -48 0 -13 7 -28 15 -35 13 -11 20 -9 43 13 35 33 40 33 40 2 0 -14 5 -32
12 -40 10 -13 17 -11 46 12 55 41 61 21 25 -83 -16 -48 -28 -91 -25 -96 13
-21 49 -3 106 53 l63 60 18 -23 c31 -37 68 -118 88 -188 24 -82 24 -102 -1
-118 -11 -7 -20 -21 -20 -33 0 -33 -19 -11 -31 37 -7 25 -22 53 -35 63 -14 11
-25 32 -28 52 -4 43 -29 60 -53 36 -15 -15 -18 -35 -17 -122 l1 -105 -26 0
c-15 0 -48 -11 -74 -25 -41 -22 -53 -24 -84 -16 -66 18 -85 -24 -33 -74 41
-39 40 -79 -2 -122 -27 -28 -29 -34 -18 -48 9 -11 26 -15 54 -13 l41 3 3 -45
c5 -71 33 -90 72 -48 11 12 21 20 23 17 2 -2 11 -16 20 -31 10 -16 33 -32 54
-38 21 -7 53 -25 72 -42 l33 -30 -38 -39 c-36 -37 -62 -48 -77 -32 -4 3 -2 12
4 19 8 10 8 15 -2 18 -8 3 -31 10 -51 16 -20 6 -42 18 -49 26 -7 9 -40 28 -74
43 -75 34 -159 87 -202 128 l-33 31 0 -42 c0 -23 -9 -59 -20 -81 -30 -60 -27
-74 20 -81 22 -4 42 -10 45 -14 6 -10 -43 -604 -59 -710 -8 -52 -18 -115 -21
-140 -3 -25 -8 -63 -11 -85 -30 -218 -316 -1186 -367 -1243 -9 -10 -17 -23
-17 -29 0 -5 96 -36 213 -67 116 -32 295 -82 397 -111 102 -29 286 -81 410
-115 124 -34 277 -76 340 -95 l115 -33 11 37 c19 64 0 75 -153 86 -29 2 -55 0
-58 -6 -9 -14 -81 -11 -143 7 -32 9 -59 18 -61 20 -2 2 19 30 47 63 28 32 79
100 113 150 l61 92 54 -7 c46 -5 59 -3 100 20 26 14 48 26 50 26 2 0 -1 -12
-6 -27 -16 -51 -21 -89 -11 -73 8 12 13 11 32 -5 l23 -20 -18 30 c-19 29 -19
30 0 13 29 -25 59 -27 59 -3 0 11 3 22 7 25 4 3 18 44 32 90 14 47 47 159 74
250 45 155 65 230 126 490 55 230 97 536 129 925 l12 150 38 0 c20 -1 332 -2
692 -3 545 -2 655 -4 655 -16 0 -8 21 -17 56 -25 66 -13 160 -64 169 -91 3
-11 44 -92 91 -181 46 -88 84 -166 84 -172 0 -7 -20 -37 -45 -67 -25 -30 -45
-58 -45 -61 0 -12 25 -27 55 -34 17 -4 58 -23 93 -42 61 -33 94 -71 125 -141
6 -15 89 -178 183 -362 153 -298 173 -342 177 -395 5 -57 4 -61 -34 -106 l-39
-47 17 -32 c18 -32 18 -32 83 -26 36 3 148 21 250 41 102 20 196 39 210 41 14
3 84 18 155 35 72 16 164 37 205 45 117 23 373 96 388 109 12 11 4 30 -43 111
-68 120 -75 127 -75 88 0 -20 -9 -39 -27 -56 -25 -23 -65 -48 -76 -48 -3 0 -8
33 -11 73 -4 39 -14 113 -22 162 -31 182 -48 231 -145 400 -121 212 -111 200
-162 200 l-42 0 -3 63 c-2 43 0 62 7 57 20 -12 11 6 -71 148 -44 78 -93 162
-107 187 -28 49 -40 38 -23 -22 10 -37 6 -58 -11 -58 -7 0 -21 -12 -31 -27
l-19 -26 36 -34 c40 -36 44 -56 26 -129 -11 -42 -14 -45 -38 -40 -182 37 -294
28 -380 -33 -56 -40 -66 19 -19 117 19 41 29 49 98 77 23 9 53 28 78 50 44 38
77 66 87 74 9 7 24 25 105 123 l31 36 -46 77 c-25 42 -45 79 -45 82 0 3 -8 17
-19 31 -10 15 -29 47 -43 72 -14 25 -54 95 -88 155 -81 142 -106 198 -115 262
-4 29 -10 55 -15 58 -12 7 14 114 39 165 34 67 88 118 161 152 58 27 78 30
193 35 99 5 127 9 127 20 0 7 11 18 24 22 13 5 26 17 30 26 11 29 26 244 29
395 l2 145 54 5 c51 5 55 7 66 40 l12 34 131 2 c109 2 132 0 132 -12 0 -11 24
-14 130 -14 l131 0 73 -40 73 -40 389 0 390 0 27 -56 c33 -67 139 -230 196
-301 38 -49 45 -53 84 -53 l43 0 71 -128 c39 -71 73 -141 75 -158 l3 -29 157
-3 157 -3 3 -57 3 -57 133 -3 132 -3 0 -79 0 -80 120 0 120 0 0 80 0 80 155 0
155 0 367 -262 c203 -144 387 -277 411 -295 45 -34 80 -41 126 -23 21 8 26 16
26 46 0 29 3 35 16 30 9 -3 123 -77 253 -163 947 -626 1261 -837 1261 -849 0
-7 10 -34 22 -58 31 -65 64 -79 168 -75 101 5 172 35 208 88 32 49 62 155 63
223 1 32 5 61 10 64 12 7 12 2651 0 2658 -5 3 -17 38 -27 78 -22 91 -79 159
-149 177 -31 8 -669 11 -2258 11 l-2215 0 -16 -34 c-9 -19 -16 -41 -16 -50 0
-18 28 -17 -339 -17 -162 1 -260 -3 -273 -10 -15 -8 -19 -8 -14 0 5 7 -10 11
-46 11 -52 0 -54 -1 -130 -75 -42 -41 -91 -96 -108 -122 -18 -27 -30 -41 -27
-32 8 23 -9 47 -23 33 -12 -12 -60 -7 -60 7 0 5 -8 9 -17 9 -13 0 -7 11 22 37
53 49 75 82 75 116 0 31 -22 36 -46 12 -9 -8 -23 -14 -32 -14 -15 1 -15 2 1 6
9 2 17 9 17 13 0 5 -75 11 -167 12 l-167 3 -8 33 c-9 32 -9 32 -72 32 -44 0
-67 5 -76 15 -7 8 -18 15 -25 15 -7 0 -15 7 -19 15 -4 12 -24 15 -86 15 -44 0
-80 4 -80 8 0 5 9 17 20 27 11 10 20 24 20 31 0 7 -9 16 -20 19 -13 4 -20 15
-20 31 0 13 9 29 20 36 23 15 28 79 8 95 -19 15 -196 25 -492 29 -209 2 -266
0 -294 -12 -19 -7 -46 -14 -61 -15 -23 0 -24 -1 -6 -9 19 -7 19 -8 2 -15 -11
-5 -25 -1 -37 10 -11 10 -20 14 -21 9 0 -5 -8 10 -17 33 -10 26 -31 51 -52 65
-28 19 -36 31 -38 61 -2 20 -8 37 -13 37 -7 0 -8 12 -4 31 7 31 7 31 -31 27
-30 -2 -39 1 -42 14 -4 18 15 38 68 72 21 13 50 48 72 86 20 36 46 74 57 85
20 19 20 61 1 75 -4 3 -10 34 -14 69 -4 35 -13 76 -21 90 l-14 26 -1 -32 c0
-39 -17 -43 -48 -10 -15 16 -22 36 -22 64 0 34 -4 42 -22 47 -32 8 -69 6 -98
-5z m-8553 -546 c28 -43 97 -145 153 -228 108 -160 117 -188 70 -212 -18 -9
-104 -13 -327 -13 l-302 0 -20 26 c-18 23 -21 41 -21 140 l0 114 50 0 c68 0
83 19 104 133 10 51 19 98 21 105 3 8 35 12 113 12 l108 0 51 -77z m2126 -250
c-7 -2 -19 -2 -25 0 -7 3 -2 5 12 5 14 0 19 -2 13 -5z m2422 -14 c25 -6 50
-17 56 -25 10 -12 -11 -14 -132 -14 -133 0 -142 1 -127 16 30 30 130 41 203
23z m-1655 -9 c0 -5 -4 -10 -10 -10 -5 0 -10 5 -10 10 0 6 5 10 10 10 6 0 10
-4 10 -10z m75 0 c3 -5 1 -10 -4 -10 -6 0 -11 5 -11 10 0 6 2 10 4 10 3 0 8
-4 11 -10z m995 0 c0 -5 -7 -10 -15 -10 -8 0 -15 5 -15 10 0 6 7 10 15 10 8 0
15 -4 15 -10z m5220 -55 c-11 -13 -3 -15 66 -16 67 -1 74 -2 44 -10 -19 -5
-65 -8 -101 -7 -36 0 -72 -2 -80 -6 -8 -4 -3 2 11 13 14 11 33 23 43 27 9 3
17 10 17 16 0 6 3 8 6 5 4 -4 1 -13 -6 -22z m-2224 -25 c22 0 17 -25 -12 -59
-21 -25 -33 -31 -65 -31 l-39 0 17 28 c29 46 56 73 71 67 7 -3 20 -5 28 -5z
m198 -44 c-13 -32 -25 -46 -38 -46 -19 0 -19 1 2 23 11 12 26 35 32 51 6 16
13 26 16 23 4 -3 -2 -26 -12 -51z m436 45 c0 -11 -93 -51 -120 -51 -11 0 -38
-9 -60 -20 -22 -11 -54 -20 -72 -19 -20 0 -27 3 -18 7 8 4 34 20 57 36 55 37
213 72 213 47z m-1932 -6 c-3 -3 -51 -21 -108 -40 -113 -38 -127 -37 -179 19
l-24 26 158 0 c87 0 156 -2 153 -5z m1432 -15 c0 -6 -10 -24 -22 -40 -15 -21
-30 -30 -50 -30 -15 0 -28 3 -28 6 0 17 43 63 63 67 12 2 25 5 30 6 4 0 7 -4
7 -9z m1500 -9 c-14 -27 -64 -61 -77 -53 -6 4 -14 22 -18 40 l-7 32 57 0 c52
0 55 -1 45 -19z m-1370 -1 c0 -5 -4 -10 -10 -10 -5 0 -10 5 -10 10 0 6 5 10
10 10 6 0 10 -4 10 -10z m966 -46 c-3 -9 -19 -14 -43 -14 -34 1 -36 2 -18 12
11 7 29 23 40 37 l20 26 3 -23 c2 -13 1 -30 -2 -38z m-441 12 c-10 -14 -27
-26 -38 -26 -18 0 -17 4 13 29 41 34 48 33 25 -3z m220 4 c-11 -21 -23 -30
-40 -30 -25 0 -25 0 7 30 42 38 53 38 33 0z m475 16 c0 -34 -13 -46 -49 -46
l-36 1 35 29 c38 33 50 37 50 16z m-2470 -61 c0 -3 -23 -42 -51 -88 -58 -93
-108 -150 -126 -143 -7 3 -10 -1 -7 -8 3 -7 -1 -16 -8 -18 -9 -4 -14 6 -15 32
-2 26 2 40 13 44 8 3 12 2 9 -4 -3 -6 -2 -10 3 -10 14 0 23 43 11 55 -7 7 -8
4 -4 -7 6 -14 2 -18 -14 -18 -23 0 -27 10 -10 27 9 9 9 20 1 40 -5 15 -10 45
-10 66 l0 37 104 0 c57 0 104 -2 104 -5z m368 -54 c51 -48 62 -64 62 -91 0
-24 -4 -31 -15 -26 -8 3 -34 -3 -57 -13 -47 -20 -158 -100 -158 -113 0 -14
-16 -9 -40 12 -27 24 -43 25 -59 6 -10 -11 -8 -16 5 -24 31 -18 9 -41 -43 -44
-41 -3 -48 -6 -51 -25 -4 -29 -33 -30 -126 -4 -81 22 -100 37 -71 53 32 19
111 96 140 138 42 61 113 103 208 124 15 4 27 11 27 16 0 14 -50 12 -105 -5
-27 -8 -51 -12 -53 -10 -2 2 6 18 18 34 l21 31 117 0 117 -1 63 -58z m572 50
c0 -5 -18 -40 -39 -77 l-40 -68 -69 -16 -70 -17 26 41 c15 22 34 48 42 57 8 9
28 33 43 53 24 31 34 36 67 36 22 0 40 -4 40 -9z m215 -13 c-10 -31 -14 -35
-59 -41 l-38 -6 18 22 c29 35 46 47 67 47 14 0 17 -5 12 -22z m235 18 c0 -2
-18 -34 -40 -70 -22 -36 -40 -70 -40 -75 0 -23 -54 -71 -91 -81 -22 -6 -39
-17 -39 -25 0 -16 20 -11 57 13 13 8 37 18 55 22 18 4 40 11 49 14 12 5 18 1
22 -15 5 -18 11 -20 32 -15 27 7 71 34 113 70 32 28 28 1 -4 -29 -15 -14 -24
-25 -20 -25 4 0 1 -7 -8 -15 -10 -10 -43 -17 -98 -20 -65 -4 -96 -12 -143 -35
-33 -16 -84 -35 -113 -42 -49 -11 -54 -10 -73 9 -29 28 -18 57 33 89 42 27
114 95 189 182 40 45 52 52 83 52 20 0 36 -2 36 -4z m360 -4 c0 -4 -6 -17 -14
-28 -14 -20 -30 -22 -120 -15 -27 2 -2 29 38 40 39 12 96 13 96 3z m110 -2 c0
-5 -20 -33 -44 -63 -24 -29 -49 -64 -56 -77 -7 -13 -44 -54 -82 -93 l-70 -69
-31 30 c-18 16 -38 32 -46 34 -8 2 16 19 54 36 67 32 226 157 246 193 10 20
29 26 29 9z m110 1 c0 -9 -30 -83 -36 -90 -3 -3 -11 5 -20 17 -8 12 -22 22
-30 22 -17 0 -18 14 -4 41 8 14 21 19 50 19 22 0 40 -4 40 -9z m130 1 c0 -16
-58 -64 -69 -58 -19 12 -12 26 22 46 35 22 47 25 47 12z m88 -4 c-7 -19 -38
-22 -38 -4 0 10 9 16 21 16 12 0 19 -5 17 -12z m202 1 c0 -15 -87 -51 -113
-46 -18 3 -11 9 33 30 60 28 80 33 80 16z m50 1 c0 -13 -31 -62 -44 -72 -5 -3
-15 -4 -23 -1 -7 3 -13 -1 -13 -8 0 -7 -3 -10 -6 -6 -7 6 66 97 78 97 4 0 8
-5 8 -10z m200 1 c0 -20 -43 -103 -56 -108 -24 -9 -27 3 -9 31 21 31 11 33
-33 6 -33 -20 -86 -27 -80 -11 4 11 147 88 166 90 6 1 12 -3 12 -8z m50 -32
c-6 -11 -15 -17 -20 -14 -6 4 -5 14 2 25 16 24 31 15 18 -11z m-7340 -18 c30
-6 35 -11 38 -38 4 -37 -21 -101 -42 -109 -22 -9 -90 31 -124 73 -18 21 -38
46 -47 56 -8 9 -15 19 -15 21 0 15 109 13 190 -3z m563 2 c75 -3 137 -9 137
-13 0 -5 -11 -18 -25 -31 -13 -13 -25 -30 -25 -36 0 -7 -9 -18 -20 -25 -11 -7
-20 -18 -20 -24 0 -41 -114 -89 -257 -109 -72 -9 -77 -25 -9 -25 43 0 56 -3
56 -15 0 -8 -4 -15 -10 -15 -5 0 -10 -7 -10 -15 0 -11 -12 -15 -51 -15 -54 0
-150 42 -185 81 -15 17 -13 21 35 77 55 64 72 75 141 93 28 8 38 14 27 17 -10
2 -31 -1 -47 -7 -44 -15 -49 6 -9 38 35 28 81 42 114 34 11 -2 82 -7 158 -10z
m403 7 c13 0 24 -4 24 -10 0 -6 -35 -10 -85 -10 -47 0 -85 4 -85 9 0 12 54 20
94 15 16 -2 39 -4 52 -4z m537 -10 c4 -4 1 -13 -8 -20 -8 -7 -15 -18 -15 -26
0 -36 -162 -158 -203 -153 -32 4 -40 -1 -27 -16 11 -13 10 -18 -6 -30 -34 -25
-45 6 -39 110 4 68 3 83 -5 60 -9 -26 -17 -93 -19 -162 -1 -13 -5 -23 -11 -23
-6 0 -10 40 -11 98 -1 88 -2 92 -10 47 -5 -27 -10 -73 -11 -102 -2 -51 -3 -52
-30 -46 -28 5 -39 -9 -18 -22 19 -12 -9 -34 -41 -33 -21 1 -29 6 -29 20 0 21
-32 38 -38 20 -2 -7 -15 -12 -28 -12 -23 0 -24 3 -24 63 1 77 31 126 105 170
44 26 63 31 155 36 58 4 112 11 120 16 36 22 170 26 193 5z m470 10 c15 0 27
-4 27 -10 0 -6 -35 -10 -85 -10 -47 0 -85 4 -85 9 0 11 63 20 95 15 11 -2 32
-4 48 -4z m575 -7 c81 -6 82 -6 65 -26 -10 -10 -52 -36 -93 -57 -41 -21 -102
-63 -135 -94 -33 -30 -68 -57 -77 -60 -22 -5 -22 -2 -2 18 14 15 14 16 0 16
-12 0 -16 11 -16 47 0 44 4 50 51 95 48 45 50 48 25 48 -14 0 -26 4 -26 9 0
12 55 20 95 14 17 -2 67 -7 113 -10z m1604 -5 c-7 -7 -12 -8 -12 -2 0 14 12
26 19 19 2 -3 -1 -11 -7 -17z m1718 15 c-1 -18 -19 -35 -29 -28 -9 5 -9 10 0
21 12 15 29 19 29 7z m-1753 -17 c0 -8 -6 -12 -14 -9 -8 3 -21 -1 -31 -9 -27
-24 -46 -33 -37 -19 7 13 65 51 76 51 3 0 6 -6 6 -14z m-4503 -11 c-4 -8 -9
-15 -13 -15 -9 0 -34 -59 -57 -134 -14 -46 -15 -62 -6 -77 7 -10 12 -24 12
-31 0 -6 12 -25 27 -40 20 -21 23 -28 11 -28 -9 0 -19 7 -22 16 -3 8 -11 12
-17 8 -16 -9 -30 18 -17 33 7 9 7 17 0 26 -6 7 -12 25 -14 40 -3 16 -10 32
-16 36 -14 8 -19 66 -8 96 4 11 25 35 48 53 43 34 82 43 72 17z m656 9 c0 -10
-144 -164 -153 -164 -5 0 -7 15 -5 34 2 19 0 32 -4 30 -4 -3 -8 -18 -8 -34 0
-35 -9 -60 -22 -60 -19 0 -3 122 21 163 l23 37 74 0 c41 0 74 -3 74 -6z m1775
-14 c-23 -26 -8 -26 25 0 20 16 41 20 110 20 l85 0 -40 -38 c-22 -21 -56 -50
-75 -64 -34 -25 -176 -78 -209 -78 -9 0 -47 -16 -85 -35 -54 -29 -71 -34 -82
-24 -8 7 -12 20 -9 30 4 11 2 19 -4 19 -6 0 -11 21 -11 50 0 43 3 50 20 50 11
0 28 4 38 9 9 5 44 14 76 20 33 6 80 22 105 35 58 32 81 34 56 6z m1288 1 c7
-7 11 -35 9 -69 -2 -31 -4 -81 -5 -110 -3 -82 -14 -61 -23 46 -4 53 -10 86
-12 72 -5 -32 -30 -60 -54 -60 -10 0 -18 -7 -18 -15 0 -8 -7 -15 -16 -15 -8 0
-12 5 -8 11 4 7 -1 10 -12 7 -14 -2 -19 -13 -20 -38 -2 -52 -3 -56 -14 -40
-15 22 -12 50 11 122 28 90 49 112 106 105 25 -2 50 -10 56 -16z m4220 -31
c13 0 36 9 50 20 20 16 25 17 23 5 -3 -22 -41 -46 -63 -39 -16 5 -16 4 2 -11
17 -14 18 -17 5 -25 -13 -9 -63 -5 -82 7 -19 11 -6 23 13 13 11 -7 23 -9 26
-6 9 9 -27 57 -37 51 -6 -4 -10 4 -10 16 0 21 1 21 25 -5 13 -14 35 -26 48
-26z m-3591 5 c0 -19 1 -41 2 -47 1 -7 -11 -14 -26 -16 -23 -3 -28 1 -28 18 0
13 -8 24 -20 27 -19 5 -27 33 -13 46 3 4 24 7 45 7 37 0 38 -1 40 -35z m3898
19 c0 -8 -4 -12 -10 -9 -5 3 -10 10 -10 16 0 5 5 9 10 9 6 0 10 -7 10 -16z
m-4907 0 c44 -8 45 -16 12 -60 -14 -18 -25 -36 -25 -40 0 -19 -63 -102 -87
-115 -16 -8 -32 -20 -36 -26 -4 -7 -15 -13 -22 -13 -8 0 -15 -7 -15 -15 0 -8
-20 -26 -45 -40 -64 -38 -95 -78 -95 -124 0 -53 28 -76 91 -75 31 0 55 7 67
17 10 9 22 14 25 10 4 -3 7 -1 7 5 0 6 26 38 58 70 31 32 83 94 115 138 52 71
57 83 52 117 -7 51 18 92 46 74 10 -6 19 -19 19 -27 0 -19 -52 -159 -93 -251
-20 -44 -87 -105 -153 -139 -27 -14 -52 -29 -55 -33 -16 -22 -72 -39 -173 -52
-145 -19 -150 -19 -141 3 20 47 43 148 35 156 -9 9 -33 -32 -43 -75 -10 -39
-44 -78 -84 -94 -33 -14 -41 -14 -99 6 -35 12 -64 25 -64 29 0 4 -19 6 -42 5
-66 -4 -70 4 -41 98 25 82 48 121 64 111 5 -3 9 4 9 15 0 34 137 111 197 111
14 0 17 2 153 97 113 80 143 95 220 109 79 15 95 16 143 8z m1178 -13 c10 -2
18 -41 9 -41 -4 0 -15 10 -24 23 -13 17 -16 18 -12 4 3 -10 -1 -25 -9 -33 -12
-13 -16 -13 -32 3 -16 16 -16 20 -4 35 12 14 31 17 72 9z m3301 -18 c3 -16 8
-35 12 -44 4 -10 1 -23 -9 -33 -23 -23 -30 -20 -33 12 -1 15 -12 35 -23 45
-12 10 -20 19 -18 20 7 6 54 26 60 26 4 1 9 -11 11 -26z m-4371 -12 c-6 -11
-28 -40 -49 -64 -32 -39 -94 -123 -122 -167 -9 -13 -11 -13 -19 0 -8 11 -2 23
22 45 18 17 43 51 57 75 26 47 110 143 117 136 3 -2 0 -13 -6 -25z m4600 12
c13 -16 12 -17 -3 -4 -10 7 -18 15 -18 17 0 8 8 3 21 -13z m136 -13 c1 -11 -2
-22 -8 -25 -5 -4 -9 5 -9 19 0 30 15 35 17 6z m702 -59 c2 -68 1 -70 -31 -94
-60 -44 -168 -81 -168 -58 0 21 12 39 24 35 7 -3 12 4 12 15 0 11 -3 18 -6 16
-3 -2 -12 0 -19 5 -11 6 -4 18 27 49 22 22 36 43 31 46 -20 13 16 45 50 45 33
0 34 -1 15 -16 -17 -14 -17 -15 -1 -10 10 3 21 6 23 6 2 0 4 7 4 15 0 8 8 15
19 15 16 0 18 -9 20 -69z m-9023 23 c-6 -21 -24 -323 -23 -367 1 -58 -2 -63
-38 -59 -19 2 -35 9 -35 14 0 6 -11 8 -24 6 -35 -7 -51 24 -24 48 56 51 65
141 21 196 -15 18 -31 35 -35 38 -15 11 32 68 88 108 70 48 78 50 70 16z
m2260 -12 c-2 -10 -8 -53 -13 -97 l-8 -80 -5 90 c-5 87 2 121 22 109 5 -3 7
-13 4 -22z m2404 18 c0 -5 -2 -10 -4 -10 -3 0 -8 5 -11 10 -3 6 -1 10 4 10 6
0 11 -4 11 -10z m-5270 -37 c-1 -63 -1 -63 -292 -63 -192 0 -267 3 -276 12
-13 13 -16 60 -5 71 3 4 134 7 290 7 l283 0 0 -27z m317 13 c3 -3 2 -25 -1
-50 -7 -45 -7 -45 -27 -25 -10 10 -30 19 -44 19 -26 0 -95 -34 -107 -54 -4 -6
-8 15 -8 46 0 39 4 60 14 65 15 8 165 7 173 -1z m4993 -3 c19 -3 41 -5 48 -4
8 1 20 -6 28 -16 8 -11 13 -13 14 -5 0 15 30 16 30 1 0 -6 7 -8 16 -5 24 9 54
-3 48 -19 -4 -9 0 -12 14 -8 24 6 57 -34 42 -52 -30 -36 -230 -116 -321 -129
-24 -3 -38 -3 -31 0 15 7 16 34 0 34 -6 0 -20 -8 -31 -17 -18 -17 -20 -17 -43
10 -21 25 -24 38 -24 111 0 89 6 101 50 108 31 4 114 0 160 -9z m983 -14 c-17
-18 -24 -19 -43 -9 -18 10 -20 14 -9 21 8 5 27 9 44 9 l29 0 -21 -21z m2367
11 c0 -5 -2 -10 -4 -10 -3 0 -8 5 -11 10 -3 6 -1 10 4 10 6 0 11 -4 11 -10z
m220 0 c0 -5 -4 -10 -10 -10 -5 0 -10 5 -10 10 0 6 5 10 10 10 6 0 10 -4 10
-10z m-6075 -37 c-9 -25 -10 -42 -4 -50 18 -21 -9 -25 -30 -4 -16 16 -19 26
-11 45 8 22 34 45 51 46 4 0 1 -17 -6 -37z m4825 26 c-8 -5 -33 -19 -55 -31
-22 -11 -57 -36 -78 -54 -52 -47 -77 -45 -39 3 9 12 51 38 92 57 74 34 109 45
80 25z m1217 -3 c-4 -10 3 -13 26 -11 19 2 31 8 29 15 -2 8 3 10 13 6 9 -3 23
-6 31 -6 11 0 13 -7 8 -26 -8 -32 12 -25 26 10 9 20 9 20 9 1 1 -12 -4 -26 -9
-31 -8 -8 -6 -15 5 -24 12 -10 15 -10 15 4 0 16 1 16 16 1 18 -17 17 -17 -7
-31 -15 -8 -16 -10 -1 -24 14 -13 15 -13 10 1 -4 9 2 20 14 28 17 11 19 10 10
-5 -9 -15 -4 -20 25 -30 20 -7 42 -10 49 -7 8 3 14 1 14 -4 0 -11 -50 -38 -63
-35 -4 1 -16 -2 -25 -7 -9 -5 -58 -12 -107 -15 -99 -7 -137 -25 -143 -67 -4
-27 -29 -59 -46 -59 -6 1 -2 8 9 18 12 10 20 30 21 49 1 26 -1 29 -12 18 -8
-7 -14 -22 -14 -31 0 -14 -3 -15 -12 -6 -18 18 -38 14 -38 -7 0 -11 -5 -23
-11 -27 -8 -5 -10 1 -7 19 7 34 -15 55 -37 37 -14 -11 -14 -9 0 16 8 16 15 34
15 40 0 14 23 24 55 24 32 0 70 33 62 53 -9 25 -40 21 -65 -8 -12 -14 -28 -25
-35 -25 -8 0 -22 -9 -32 -20 -25 -28 -29 -19 -10 26 9 21 17 52 19 67 2 16 11
36 20 45 32 32 184 56 173 28z m-5456 -109 c-8 -8 -11 3 -11 35 0 71 14 94 18
29 2 -30 -2 -59 -7 -64z m3383 103 c-6 -6 -43 -12 -83 -15 -64 -3 -82 -10
-157 -51 -46 -26 -90 -57 -98 -68 -24 -37 -93 -106 -98 -100 -8 7 28 65 70
114 17 20 32 40 32 44 0 4 -15 -4 -32 -16 -18 -13 -46 -30 -61 -38 -15 -8 -45
-29 -66 -47 -33 -28 -41 -30 -51 -18 -23 27 -1 51 77 85 42 19 91 46 108 62
34 29 75 48 103 48 10 0 4 -7 -15 -16 -34 -17 -57 -52 -26 -39 10 4 43 14 73
22 30 9 75 22 100 29 56 16 138 18 124 4z m556 6 c0 -2 -7 -7 -16 -10 -8 -3
-12 -2 -9 4 6 10 25 14 25 6z m675 -8 c-11 -6 -30 -22 -42 -35 -18 -19 -31
-23 -75 -21 l-53 1 45 4 c25 3 54 12 65 22 24 22 56 40 70 40 6 0 1 -5 -10
-11z m1652 -20 c-3 -7 -5 -2 -5 12 0 14 2 19 5 13 2 -7 2 -19 0 -25z m173 17
c0 -8 -7 -15 -15 -15 -13 0 -14 3 -3 15 16 18 18 18 18 0z m-3003 -1 c-3 -3
-12 -4 -19 -1 -8 3 -5 6 6 6 11 1 17 -2 13 -5z m-3567 -23 c0 -6 -16 -27 -35
-48 -20 -21 -49 -62 -66 -91 -40 -69 -75 -109 -110 -127 -36 -19 -39 -19 -39
6 0 19 -1 19 -22 -4 -25 -27 -104 -51 -114 -35 -3 5 -12 1 -18 -8 -10 -13 -15
-14 -21 -4 -5 9 -9 9 -14 1 -4 -6 -41 -20 -82 -32 -41 -11 -94 -29 -119 -41
-89 -41 -179 -66 -250 -69 -65 -3 -74 -2 -81 16 -6 17 -8 17 -8 3 -1 -14 -10
-18 -43 -18 -53 1 -141 23 -146 38 -1 5 12 27 29 47 38 43 173 145 192 145 7
0 17 4 22 8 6 5 35 16 65 25 30 9 78 23 105 31 l50 15 -49 0 -48 1 23 26 c13
14 51 44 84 66 44 31 69 42 100 42 31 1 39 -2 35 -14 -2 -8 -6 -43 -8 -76 -3
-57 -1 -64 28 -98 47 -53 76 -49 147 20 63 60 153 110 248 138 33 10 76 24 95
31 43 17 50 18 50 6z m3100 -11 c-14 -11 -43 -29 -65 -41 -22 -12 -54 -34 -71
-49 -28 -24 -37 -27 -73 -20 -23 4 -44 10 -46 12 -12 11 29 70 58 84 24 11 28
12 15 1 -18 -15 -24 -37 -10 -37 4 0 13 5 20 12 7 7 12 9 12 5 0 -4 15 0 33 9
40 21 105 43 132 43 18 1 18 -1 -5 -19z m1237 -15 c-17 -19 -51 -45 -75 -56
-42 -21 -69 -45 -125 -113 -15 -18 -28 -26 -36 -22 -9 6 -8 13 7 30 11 11 26
34 33 51 10 21 24 32 51 38 21 5 57 26 80 46 75 66 114 81 65 26z m58 -15
c-30 -27 -60 -50 -66 -50 -13 0 -76 -30 -113 -55 l-29 -19 14 22 c7 12 36 31
64 43 27 11 68 38 90 59 35 33 54 44 88 49 4 0 -18 -21 -48 -49z m755 32 c0
-11 -11 -24 -25 -30 -39 -18 -40 -15 -9 17 36 35 34 35 34 13z m1710 3 c0 -8
-2 -15 -4 -15 -2 0 -6 7 -10 15 -3 8 -1 15 4 15 6 0 10 -7 10 -15z m510 -6
c14 -25 1 -43 -41 -58 -38 -13 -37 -1 1 21 31 18 39 43 18 51 -10 4 -10 6 -1
6 7 1 17 -8 23 -20z m110 11 c18 0 50 -44 50 -67 0 -18 -9 -28 -36 -39 -45
-19 -55 -11 -21 17 36 28 35 58 -3 72 -16 6 -30 15 -30 20 0 5 7 6 16 3 9 -3
20 -6 24 -6z m380 -9 c0 -21 -44 -55 -63 -48 -7 2 3 11 21 21 17 9 32 23 32
31 0 8 2 15 5 15 3 0 5 -8 5 -19z m61 -9 c-6 -2 -11 -10 -11 -18 0 -8 -5 -14
-11 -14 -6 0 -8 7 -5 16 3 9 6 23 6 31 0 13 2 13 16 2 10 -8 12 -15 5 -17z
m-10001 -47 c-5 -14 -16 -28 -25 -31 -8 -3 -12 -11 -9 -16 4 -6 2 -13 -3 -17
-11 -8 -83 -130 -83 -141 0 -15 -17 -20 -40 -12 l-22 8 25 17 c23 15 24 19 14
41 -7 14 -19 27 -27 30 -8 4 -21 9 -27 12 -9 4 -13 -3 -13 -20 0 -13 -5 -28
-10 -31 -6 -4 -9 6 -8 27 3 27 11 38 45 58 23 14 61 41 85 61 98 83 92 80 100
58 4 -11 3 -31 -2 -44z m584 50 c-4 -8 -8 -15 -10 -15 -2 0 -4 7 -4 15 0 8 4
15 10 15 5 0 7 -7 4 -15z m5036 0 c-7 -9 -29 -15 -51 -15 -21 0 -49 -4 -63
-10 -17 -6 -26 -6 -26 0 0 6 8 10 18 10 10 0 27 7 38 15 10 8 36 15 58 15 33
0 37 -2 26 -15z m1410 5 c20 -7 17 -8 -20 -8 -25 0 -67 3 -95 8 -50 7 -50 7
20 8 39 0 81 -4 95 -8z m110 -5 c16 -19 5 -77 -18 -98 -9 -8 -30 -19 -47 -23
l-30 -7 39 36 c33 32 38 41 34 72 -4 38 2 44 22 20z m2556 0 c-11 -8 -34 -15
-50 -14 -30 1 -30 1 9 14 53 17 64 17 41 0z m113 -9 c18 -19 20 -28 13 -43
-14 -26 -43 -50 -75 -62 -22 -9 -27 -8 -27 4 0 8 7 15 15 15 8 0 26 5 40 12
29 13 33 42 9 76 -20 29 -3 28 25 -2z m-4359 -46 c0 -59 0 -60 -38 -79 -36
-18 -73 -51 -57 -51 4 0 18 9 32 20 14 11 32 20 41 20 8 0 36 23 63 50 27 28
53 50 58 50 5 0 12 -21 16 -46 5 -34 2 -52 -9 -69 -14 -22 -21 -24 -60 -19
-27 4 -46 2 -50 -5 -4 -7 0 -11 11 -11 10 0 27 -6 38 -14 18 -12 27 -9 84 25
72 44 75 45 62 22 -5 -10 -12 -26 -15 -35 -4 -14 -17 -18 -53 -19 l-48 -1 51
-12 52 -11 -16 -25 c-25 -40 -75 -90 -89 -90 -22 0 -15 13 27 54 22 21 38 41
35 44 -3 3 -22 -11 -43 -31 -27 -26 -47 -37 -69 -37 -30 0 -30 1 -26 43 7 57
-11 72 -90 72 -55 0 -62 -2 -81 -30 -21 -29 -114 -125 -122 -125 -27 0 65 125
105 142 11 5 8 7 -12 7 -20 1 -30 -5 -36 -22 -9 -24 -59 -63 -68 -54 -10 11
10 49 32 59 12 5 28 21 34 34 8 18 18 24 44 24 35 0 63 16 114 63 21 19 29 33
22 38 -13 8 13 64 33 72 26 11 28 6 28 -53z m-3286 24 c5 -18 2 -32 -10 -45
-10 -11 -14 -22 -10 -27 4 -4 14 2 22 12 9 13 14 15 14 6 0 -11 -65 -80 -75
-80 -1 0 -2 11 -2 25 0 14 -3 29 -7 32 -8 9 -36 -17 -36 -34 0 -10 -6 -12 -22
-7 -33 10 -34 12 -11 37 11 12 22 27 24 34 4 12 88 72 100 73 4 0 10 -12 13
-26z m5138 9 c28 -25 24 -77 -8 -102 -24 -19 -54 -28 -54 -16 0 2 11 15 25 29
34 34 42 73 19 91 -11 8 -15 15 -10 15 5 0 18 -7 28 -17z m2034 9 c21 -15 23
-41 3 -66 -11 -14 -27 -26 -35 -26 -10 0 -9 5 6 20 25 25 26 56 3 69 -14 8
-15 10 -3 11 8 0 20 -4 26 -8z m-10250 -13 c3 -6 -5 -23 -19 -37 -14 -15 -32
-43 -41 -62 -9 -19 -14 -26 -11 -15 5 24 -19 60 -34 50 -18 -11 -12 11 8 29
15 13 20 14 24 4 4 -8 6 -7 6 5 1 10 9 17 22 17 13 0 18 -4 13 -12 -4 -7 -3
-8 4 -4 6 4 9 13 5 21 -6 17 12 20 23 4z m7057 -3 c8 -21 -4 -28 -22 -12 -9 8
-27 16 -41 19 -17 3 -11 5 16 6 28 1 44 -4 47 -13z m489 -4 c-19 -19 -52 -26
-52 -11 0 7 43 26 63 28 4 1 -1 -7 -11 -17z m197 14 c-2 -2 -26 -23 -54 -46
l-49 -42 -84 6 c-80 7 -85 6 -119 -20 -19 -14 -44 -40 -54 -58 l-20 -31 6 30
c4 17 11 43 16 58 8 26 7 28 -14 21 -71 -22 -90 -39 -106 -98 -12 -47 -57 -96
-85 -95 -12 0 -15 3 -8 6 6 2 12 11 12 19 0 8 -6 11 -15 8 -11 -5 -14 -2 -8
12 9 27 53 91 53 78 0 -5 -5 -15 -11 -21 -6 -6 -9 -17 -7 -24 2 -6 18 10 35
37 18 27 46 57 63 67 43 26 88 38 96 26 3 -6 13 -7 23 -3 9 4 66 10 126 14 95
5 116 10 155 33 40 24 61 34 49 23z m89 -8 c27 -27 9 -98 -24 -98 -10 0 -10 7
-2 30 5 17 8 42 5 55 -5 27 2 32 21 13z m1007 -18 c8 0 15 -4 15 -10 0 -5 -4
-10 -9 -10 -14 0 -41 29 -41 43 0 7 5 4 11 -5 5 -10 17 -18 24 -18z m1064 -4
c-3 -3 -11 5 -18 17 -13 21 -12 21 5 5 10 -10 16 -20 13 -22z m-3060 11 c-8
-7 -24 -25 -34 -40 -13 -21 -21 -25 -29 -17 -8 8 -2 19 22 41 18 16 38 29 45
29 8 -1 6 -5 -4 -13z m-5379 -9 c0 -17 -31 -48 -47 -48 -8 0 -12 -4 -9 -9 4
-5 -15 -33 -40 -63 -25 -29 -52 -66 -60 -83 -11 -26 -13 -27 -14 -8 0 39 -17
34 -24 -8 -6 -40 -9 -43 -57 -53 l-26 -6 28 58 c16 31 29 63 29 70 0 23 37 86
67 114 16 16 45 30 68 34 22 3 42 8 44 10 10 9 41 3 41 -8z m6478 -13 c17 -36
15 -48 -9 -79 -29 -36 -40 -17 -24 38 7 22 10 47 8 54 -9 23 14 12 25 -13z
m2468 8 c32 -42 0 -103 -53 -103 l-28 0 33 20 c32 20 44 61 22 75 -10 6 -5 25
7 25 3 0 12 -8 19 -17z m178 -4 c15 -12 26 -30 26 -45 0 -37 -28 -84 -49 -84
-11 0 -26 -3 -35 -6 -9 -3 -16 -1 -16 5 0 6 11 16 25 21 14 5 30 21 37 35 10
22 8 30 -10 55 -34 46 -24 55 22 19z m-3634 6 c0 -6 -129 -85 -139 -85 -6 0
-11 9 -11 19 0 21 43 56 75 62 23 5 75 7 75 4z m2616 -19 c-4 -18 -1 -28 11
-35 16 -9 14 -10 -8 -11 -15 0 -33 7 -40 16 -11 13 -10 17 4 26 10 5 15 13 12
19 -4 5 1 9 10 9 13 0 16 -6 11 -24z m-3836 -16 c14 0 42 -9 63 -20 20 -11 45
-20 55 -20 19 0 82 -53 82 -68 0 -5 -7 -23 -16 -38 -15 -27 -15 -27 -10 -4 6
27 -17 60 -42 60 -13 0 -12 -3 3 -19 16 -19 16 -20 -6 -19 -13 1 -37 12 -52
25 -16 13 -35 23 -43 23 -21 0 -57 -20 -67 -36 -13 -23 -35 -16 -62 20 -14 19
-41 40 -58 47 l-32 13 44 4 c33 2 48 -1 65 -17 12 -12 28 -21 35 -21 8 0 2 9
-12 20 -48 38 -48 90 1 64 15 -7 38 -14 52 -14z m540 10 c0 -22 -53 -60 -82
-60 -36 0 -19 39 27 63 40 22 55 21 55 -3z m1838 -2 c11 -13 24 -35 27 -50 6
-23 1 -34 -28 -63 -19 -19 -40 -35 -45 -35 -6 0 3 13 19 29 34 35 36 49 9 101
-23 44 -15 52 18 18z m183 2 c-25 -22 -41 -26 -41 -10 0 11 30 29 50 29 10 0
8 -6 -9 -19z m-6554 -15 c-3 -6 -1 -34 5 -60 20 -91 -18 -196 -88 -250 -36
-28 -37 -28 -53 -8 -18 22 -74 47 -106 48 -11 0 -21 7 -21 15 -1 8 -3 29 -4
45 -3 25 -4 23 -9 -13 -6 -42 -8 -45 -61 -67 -30 -13 -58 -20 -62 -17 -4 4 -1
34 7 67 15 66 46 102 96 112 16 3 29 9 29 14 0 5 11 9 24 9 34 0 191 83 214
113 14 19 36 13 29 -8z m2303 15 c0 -5 -2 -10 -4 -10 -3 0 -8 5 -11 10 -3 6
-1 10 4 10 6 0 11 -4 11 -10z m3039 -6 c6 -5 -71 -34 -91 -34 -28 0 -89 -28
-115 -52 l-23 -21 0 20 c0 24 60 80 93 88 55 12 121 12 136 -1z m651 12 c0
-45 -57 -70 -159 -68 -45 0 -95 -4 -110 -9 l-26 -9 24 20 c19 16 38 20 105 20
70 0 86 3 116 25 33 23 50 30 50 21z m606 -23 c-10 -10 -19 5 -10 18 6 11 8
11 12 0 2 -7 1 -15 -2 -18z m-6296 3 c0 -3 -4 -8 -10 -11 -5 -3 -10 -1 -10 4
0 6 5 11 10 11 6 0 10 -2 10 -4z m7587 -28 c-3 -8 -6 -5 -6 6 -1 11 2 17 5 13
3 -3 4 -12 1 -19z m671 10 c34 -34 -2 -118 -50 -118 -23 0 -23 0 4 23 34 28
43 60 23 80 -8 9 -15 18 -15 21 0 11 26 6 38 -6z m-10408 -18 c0 -5 -4 -10
-10 -10 -5 0 -10 5 -10 10 0 6 5 10 10 10 6 0 10 -4 10 -10z m4170 -5 c0 -19
-9 -19 -34 0 -19 14 -19 15 7 15 17 0 27 -5 27 -15z m2490 11 c0 -2 -7 -7 -16
-10 -8 -3 -12 -2 -9 4 6 10 25 14 25 6z m1710 -21 c14 -19 14 -19 -2 -6 -10 7
-18 18 -18 24 0 6 1 8 3 6 1 -2 9 -13 17 -24z m2230 -46 c0 -31 -18 -57 -50
-74 -39 -20 -63 -18 -25 2 57 31 71 75 35 108 -11 10 -17 22 -13 28 9 14 53
-39 53 -64z m297 49 c-3 -8 -6 -5 -6 6 -1 11 2 17 5 13 3 -3 4 -12 1 -19z
m-3446 -19 c-9 -22 -10 -22 -10 -3 -1 11 2 24 6 27 12 12 14 0 4 -24z m1733
12 c-10 -10 -23 -16 -28 -13 -5 3 -1 11 9 19 28 20 41 16 19 -6z m-11686 -23
c3 -26 1 -28 -32 -28 -37 0 -43 10 -30 45 4 10 16 15 33 13 20 -2 27 -9 29
-30z m252 16 c0 -14 -7 -15 -37 -10 -21 3 -53 6 -70 6 -18 0 -33 5 -33 10 0 6
30 10 70 10 58 0 70 -3 70 -16z m4176 0 c-3 -9 -6 -18 -6 -20 0 -3 -4 -3 -10
1 -11 7 -2 35 12 35 6 0 7 -7 4 -16z m64 6 c0 -5 -5 -10 -11 -10 -5 0 -7 5 -4
10 3 6 8 10 11 10 2 0 4 -4 4 -10z m1787 -12 c-3 -8 -6 -5 -6 6 -1 11 2 17 5
13 3 -3 4 -12 1 -19z m538 -103 c-4 -55 -6 -109 -5 -120 7 -76 2 -119 -16
-132 -20 -15 -33 -14 -171 10 l-73 12 20 29 c10 16 36 70 57 120 38 91 104
176 137 176 7 0 17 7 20 16 5 14 9 14 22 3 14 -12 16 -28 9 -114z m-3705 105
c0 -5 -7 -10 -15 -10 -8 0 -15 5 -15 10 0 6 7 10 15 10 8 0 15 -4 15 -10z
m3530 6 c0 -2 -6 -18 -14 -36 -13 -31 -13 -31 -19 -9 -11 39 -8 49 13 49 11 0
20 -2 20 -4z m3813 -6 c15 0 27 -4 27 -9 0 -6 -33 -9 -74 -8 -72 2 -76 1 -103
-28 -43 -47 -80 -67 -116 -62 -31 4 -31 4 5 5 30 2 43 9 69 41 40 51 84 73
129 66 19 -2 47 -5 63 -5z m170 -17 c8 -16 13 -32 12 -38 -2 -5 -6 -22 -9 -37
-4 -15 -16 -33 -29 -39 -21 -12 -21 -11 -4 8 20 23 24 102 5 121 -9 9 -9 12 0
12 6 0 18 -12 25 -27z m2187 -32 c0 -14 -5 -33 -10 -41 -7 -11 -10 -3 -10 31
0 25 -6 51 -12 59 -7 8 -3 6 10 -4 12 -11 22 -30 22 -45z m457 -6 c5 -32 2
-40 -18 -56 -13 -10 -33 -18 -44 -18 -14 0 -16 2 -5 6 47 17 67 76 35 103 -8
7 -12 17 -9 22 11 17 34 -16 41 -57z m-10097 34 c7 -11 9 -23 6 -26 -9 -9 -38
6 -31 17 3 5 1 10 -4 10 -6 0 -11 5 -11 10 0 18 29 10 40 -11z m105 11 c3 -5
-1 -20 -9 -32 -9 -12 -16 -31 -16 -41 0 -22 -27 -34 -42 -19 -9 9 -7 16 5 29
8 10 20 30 26 46 11 28 25 35 36 17z m-255 -35 c-6 -8 -9 -19 -5 -25 3 -5 1
-10 -5 -10 -6 0 -9 -4 -6 -9 6 -9 -23 -25 -32 -17 -2 3 8 27 24 53 15 26 29
42 32 35 2 -7 -1 -19 -8 -27z m2537 21 c-3 -8 1 -20 9 -26 11 -10 14 -9 14 3
0 8 7 17 15 21 19 7 19 -8 -1 -39 -14 -22 -18 -23 -36 -11 -10 8 -28 12 -38 9
-15 -4 -18 -1 -13 19 7 25 20 38 42 38 7 0 11 -6 8 -14z m1001 -16 c-13 -20
-28 -27 -28 -12 0 10 22 32 32 32 5 0 3 -9 -4 -20z m922 4 c0 -2 -7 -4 -15 -4
-8 0 -15 4 -15 10 0 5 7 7 15 4 8 -4 15 -8 15 -10z m520 6 c0 -5 -5 -10 -11
-10 -5 0 -7 5 -4 10 3 6 8 10 11 10 2 0 4 -4 4 -10z m80 2 c0 -4 -16 -6 -35
-4 -19 2 -35 6 -35 8 0 2 16 4 35 4 19 0 35 -4 35 -8z m4480 -1 c0 -6 -4 -13
-10 -16 -5 -3 -10 1 -10 9 0 9 5 16 10 16 6 0 10 -4 10 -9z m-1796 -17 c9 -24
7 -27 -9 -10 -17 17 -19 26 -6 26 5 0 12 -7 15 -16z m886 3 c0 -7 -8 -17 -18
-24 -17 -10 -18 -8 -14 13 4 24 32 34 32 11z m1314 -9 c16 -23 21 -64 10 -92
-10 -25 -26 -19 -18 7 11 32 7 57 -10 76 -18 20 -20 31 -7 31 6 0 17 -10 25
-22z m-8504 2 c0 -5 -5 -10 -11 -10 -5 0 -7 5 -4 10 3 6 8 10 11 10 2 0 4 -4
4 -10z m3772 -13 c-2 -11 2 -15 13 -11 19 8 19 -6 -1 -34 -20 -29 -26 -28 -66
8 -25 23 -28 30 -15 30 10 0 25 7 34 15 19 19 39 14 35 -8z m1443 13 c-3 -5
-14 -10 -23 -10 -15 0 -15 2 -2 10 20 13 33 13 25 0z m-6547 -22 c7 10 11 10
22 -2 21 -26 6 -46 -27 -37 -32 9 -73 -2 -73 -21 -1 -8 -7 -5 -15 6 -20 26
-19 38 3 34 12 -2 16 3 14 16 -3 17 -1 18 11 8 12 -10 16 -9 21 4 6 16 8 15
21 -2 11 -15 17 -16 23 -6z m206 6 c4 -10 -1 -22 -11 -30 -21 -16 -24 -16 -42
-5 -17 11 -4 34 15 27 8 -3 14 1 14 9 0 20 16 19 24 -1z m2943 -16 c-3 -7 -5
-2 -5 12 0 14 2 19 5 13 2 -7 2 -19 0 -25z m4675 25 c-6 -2 -10 -9 -6 -14 3
-5 -2 -9 -10 -9 -9 0 -16 7 -16 15 0 9 9 15 23 14 12 0 16 -3 9 -6z m860 -18
c-2 -14 -8 -25 -12 -25 -8 0 -20 -50 -21 -82 0 -25 -14 -22 -33 7 -9 14 -21
23 -25 20 -5 -2 3 20 17 50 22 47 30 55 52 55 24 0 27 -3 22 -25z m1515 19
c-3 -3 -12 -4 -19 -1 -8 3 -5 6 6 6 11 1 17 -2 13 -5z m-4942 -34 c23 -26 15
-34 -19 -19 -26 12 -31 20 -19 32 10 11 19 8 38 -13z m73 -11 c2 -23 2 -23
-13 -5 -18 24 -20 39 -2 34 6 -3 13 -15 15 -29z m4682 12 c17 -33 11 -47 -10
-21 -11 14 -20 28 -20 33 0 14 20 7 30 -12z m-6925 -10 c3 -5 1 -12 -5 -16 -5
-3 -10 1 -10 9 0 18 6 21 15 7z m3420 -32 c25 -23 45 -48 45 -55 0 -25 -35
-15 -55 16 -11 16 -27 30 -37 30 -9 0 -18 6 -21 13 -7 19 -67 -43 -67 -69 0
-23 -75 -92 -87 -80 -7 7 46 86 58 86 5 0 15 15 23 34 15 37 50 66 78 66 10 0
39 -19 63 -41z m-4095 21 c0 -5 -4 -10 -10 -10 -5 0 -10 5 -10 10 0 6 5 10 10
10 6 0 10 -4 10 -10z m4932 -4 c30 -13 38 -13 63 0 37 19 43 12 9 -11 -24 -16
-29 -16 -68 -1 -48 19 -88 20 -119 5 -21 -10 -21 -10 -3 5 25 20 73 20 118 2z
m548 -6 c13 -9 13 -10 0 -10 -8 0 -22 5 -30 10 -13 9 -13 10 0 10 8 0 22 -5
30 -10z m513 -21 c-13 -22 -19 -26 -21 -14 -4 17 15 45 30 45 5 0 1 -14 -9
-31z m524 9 c-3 -8 -6 -5 -6 6 -1 11 2 17 5 13 3 -3 4 -12 1 -19z m-7642 2 c3
-5 1 -10 -4 -10 -6 0 -11 5 -11 10 0 6 2 10 4 10 3 0 8 -4 11 -10z m8440 0 c3
-5 2 -10 -4 -10 -5 0 -13 5 -16 10 -3 6 -2 10 4 10 5 0 13 -4 16 -10z m-9700
-10 c3 -5 -3 -10 -14 -10 -12 0 -21 5 -21 10 0 6 6 10 14 10 8 0 18 -4 21 -10z
m5699 2 c7 -12 -5 -26 -47 -51 -51 -31 -59 -19 -17 24 33 34 54 43 64 27z
m1926 4 c0 -3 -4 -8 -10 -11 -5 -3 -10 -1 -10 4 0 6 5 11 10 11 6 0 10 -2 10
-4z m-7440 -24 c0 -15 -11 -21 -27 -15 -12 5 -12 7 -1 14 17 11 28 11 28 1z
m9810 -2 c0 -5 -4 -10 -10 -10 -5 0 -10 5 -10 10 0 6 5 10 10 10 6 0 10 -4 10
-10z m-10115 -18 c-3 -3 -11 0 -18 7 -9 10 -8 11 6 5 10 -3 15 -9 12 -12z
m6525 -2 c0 -5 -2 -10 -4 -10 -3 0 -8 5 -11 10 -3 6 -1 10 4 10 6 0 11 -4 11
-10z m320 6 c0 -2 -7 -7 -16 -10 -8 -3 -12 -2 -9 4 6 10 25 14 25 6z m-6080
-31 c0 -18 -4 -23 -15 -19 -18 7 -20 -7 -3 -24 9 -9 6 -12 -15 -12 l-28 0 23
40 c26 46 38 51 38 15z m572 3 c-7 -7 -12 -8 -12 -2 0 6 3 14 7 17 3 4 9 5 12
2 2 -3 -1 -11 -7 -17z m7362 3 c3 -4 -12 -13 -33 -20 -52 -15 -57 -14 -36 9
18 20 59 27 69 11z m-3594 -5 c0 -3 -24 -18 -52 -34 -77 -44 -142 -54 -298
-46 -74 4 -156 6 -182 5 -43 -1 -48 2 -48 21 0 21 1 21 123 12 203 -15 282
-11 362 18 69 26 95 32 95 24z m-3780 -26 c0 -5 -5 -10 -11 -10 -5 0 -7 5 -4
10 3 6 8 10 11 10 2 0 4 -4 4 -10z m700 -10 c0 -5 -2 -10 -4 -10 -3 0 -8 5
-11 10 -3 6 -1 10 4 10 6 0 11 -4 11 -10z m4636 -15 c7 -30 7 -30 -23 -39 -27
-8 -31 11 -11 44 17 27 26 25 34 -5z m-482 -4 c5 -8 -87 -31 -122 -31 -42 0
46 38 90 39 15 1 29 -3 32 -8z m-5344 -18 c0 -7 -9 -13 -20 -13 -11 0 -20 6
-20 14 0 9 9 14 20 13 11 -1 20 -7 20 -14z m1100 -8 c0 -25 -23 -35 -35 -15
-10 16 2 40 20 40 9 0 15 -9 15 -25z m3563 18 c-13 -2 -33 -2 -45 0 -13 2 -3
4 22 4 25 0 35 -2 23 -4z m277 -2 c0 -6 -7 -8 -15 -5 -11 5 -13 2 -9 -10 5
-13 -2 -16 -37 -17 -63 -2 -82 1 -94 16 -5 7 -17 15 -25 17 -8 3 29 6 83 7 59
1 97 -2 97 -8z m1115 -1 c-3 -5 -12 -10 -18 -10 -7 0 -6 4 3 10 19 12 23 12
15 0z m1535 -4 c0 -3 -4 -8 -10 -11 -5 -3 -10 -1 -10 4 0 6 5 11 10 11 6 0 10
-2 10 -4z m-11210 -22 c0 -2 -9 -4 -21 -4 -11 0 -18 4 -14 10 5 8 35 3 35 -6z
m9098 -13 c-2 -20 -9 -27 -31 -29 -32 -4 -57 12 -57 37 0 12 11 16 46 17 43 1
45 0 42 -25z m-6122 -16 c7 -19 14 -37 14 -40 0 -3 -39 -5 -87 -5 l-88 1 30
25 c32 27 81 53 103 54 7 0 20 -16 28 -35z m468 29 c12 -5 10 -11 -11 -34 -14
-16 -31 -26 -39 -23 -20 7 -17 40 4 52 20 12 26 13 46 5z m2406 -14 c0 -5 -9
-10 -21 -10 -11 0 -17 5 -14 10 3 6 13 10 21 10 8 0 14 -4 14 -10z m-82 -25
c12 -25 1 -42 -18 -30 -12 7 -13 55 -2 55 5 0 14 -11 20 -25z m1572 -7 c0 -30
28 -58 59 -58 37 0 71 -11 71 -22 0 -5 -21 -6 -49 -2 -62 8 -101 -1 -101 -23
0 -9 -3 -13 -7 -10 -3 4 -11 0 -17 -7 -35 -44 -106 -11 -106 49 0 19 -4 37
-10 40 -12 7 -14 45 -2 45 4 0 13 -5 20 -12 23 -23 112 -17 112 8 0 8 7 14 15
14 9 0 15 -9 15 -22z m1555 13 c-3 -5 -19 -12 -35 -16 -16 -4 -44 -22 -62 -40
-40 -43 -77 -58 -125 -53 -31 4 -42 0 -65 -24 l-28 -29 0 35 c0 26 5 36 20 41
11 3 20 11 20 16 0 5 14 9 31 9 54 0 119 22 137 46 14 19 26 23 65 24 27 0 46
-4 42 -9z m495 -36 c-25 -25 -64 -57 -87 -71 -24 -14 -43 -32 -43 -41 0 -23
-42 -93 -56 -93 -7 0 -16 9 -19 21 -5 15 4 32 39 69 25 27 46 54 46 59 0 6 17
19 38 30 22 11 46 31 56 45 11 17 26 26 43 26 27 0 27 -1 -17 -45z m225 36
c-14 -12 -77 -32 -83 -26 -9 8 5 17 40 25 47 11 54 11 43 1z m1494 0 c16 -1 7
-14 -12 -17 -7 -1 -27 -6 -46 -10 -31 -6 -32 -5 -23 12 7 13 20 19 39 18 15
-1 34 -3 42 -3z m-6378 -11 c15 0 10 -20 -6 -26 -18 -7 -47 14 -39 28 3 5 13
7 21 4 8 -3 19 -6 24 -6z m3805 -17 c4 -13 1 -30 -5 -36 -6 -6 -11 -7 -11 -1
0 5 -6 -2 -13 -16 -9 -19 -21 -25 -45 -25 -17 -1 -37 -6 -44 -13 -9 -9 -17 -7
-35 10 l-23 21 0 -24 c0 -19 -2 -21 -10 -9 -6 10 -10 11 -10 3 0 -24 -18 -13
-29 18 -9 28 -9 30 9 24 15 -5 22 -1 28 16 6 15 11 18 16 11 12 -19 23 -14 28
13 4 16 0 25 -11 28 -9 3 21 5 67 5 79 0 82 -1 88 -25z m1404 20 c-8 -3 -24
-14 -35 -24 -25 -22 -65 -30 -83 -16 -21 17 35 47 88 46 25 0 38 -3 30 -6z
m270 2 c0 -2 -14 -12 -30 -20 -17 -9 -28 -20 -25 -25 4 -6 1 -10 -6 -10 -6 0
-37 -25 -68 -57 -31 -31 -48 -53 -38 -50 11 4 17 1 17 -7 0 -7 7 -19 15 -26
19 -16 19 -26 1 -33 -9 -4 -13 -1 -11 6 3 7 0 19 -5 27 -9 13 -11 13 -19 0 -5
-8 -8 -17 -5 -21 6 -11 -14 -21 -26 -14 -8 5 -8 11 -1 19 6 7 8 21 5 32 -4 14
11 35 58 80 83 79 138 119 138 99z m188 -3 c-24 -3 -20 -7 39 -38 75 -39 74
-39 67 -20 -3 8 0 17 7 22 7 4 10 3 5 -4 -3 -6 -2 -13 4 -17 15 -9 12 -25 -4
-25 -8 0 -37 12 -63 26 -26 14 -58 23 -70 21 -13 -2 -23 0 -23 4 0 5 -9 9 -19
9 -11 0 -23 5 -26 10 -3 6 -13 10 -21 10 -8 0 -13 -4 -10 -9 3 -5 -1 -15 -10
-22 -13 -10 -17 -10 -24 1 -18 29 9 40 93 38 45 -1 70 -4 55 -6z m112 -7 c-12
-15 -30 -12 -30 6 0 5 10 9 21 9 18 0 19 -2 9 -15z m90 11 c0 -2 -7 -6 -15
-10 -8 -3 -15 -1 -15 4 0 6 7 10 15 10 8 0 15 -2 15 -4z m61 -13 c-5 -10 -16
-26 -23 -36 -13 -18 -14 -17 -14 2 0 11 4 17 8 15 4 -3 12 5 18 16 6 11 13 20
16 20 2 0 0 -8 -5 -17z m-116 -13 c3 -5 1 -10 -4 -10 -6 0 -11 5 -11 10 0 6 2
10 4 10 3 0 8 -4 11 -10z m615 3 c0 -5 -4 -15 -10 -23 -11 -18 -25 -7 -17 15
6 15 27 21 27 8z m542 -52 c-11 -15 -29 -45 -40 -67 -29 -57 -45 -69 -71 -52
-12 7 -21 15 -21 18 0 3 33 39 73 80 43 46 73 70 75 61 2 -7 -5 -25 -16 -40z
m-2402 39 c0 -5 -7 -10 -16 -10 -8 0 -12 5 -9 10 3 6 10 10 16 10 5 0 9 -4 9
-10z m329 7 c-28 -21 -59 -36 -59 -29 0 9 37 30 54 31 5 1 7 0 5 -2z m697 -12
c16 -8 23 -15 17 -16 -7 -1 -17 -2 -23 -3 -5 0 -18 -8 -28 -16 -27 -22 -62
-41 -62 -34 0 9 28 34 39 34 6 0 13 11 17 25 7 30 4 29 40 10z m-533 -2 c-7
-2 -21 -2 -30 0 -10 3 -4 5 12 5 17 0 24 -2 18 -5z m401 -30 c-7 -27 -20 -43
-36 -43 -14 0 -8 18 15 44 28 32 29 32 21 -1z m38 -5 c-7 -7 -12 -8 -12 -2 0
14 12 26 19 19 2 -3 -1 -11 -7 -17z m-1356 -20 l17 -33 -22 19 c-11 11 -21 25
-21 33 0 21 8 15 26 -19z m1267 2 c-5 -19 -23 -29 -23 -12 0 7 20 32 26 32 1
0 0 -9 -3 -20z m-2323 0 c0 -5 -4 -10 -10 -10 -5 0 -10 5 -10 10 0 6 5 10 10
10 6 0 10 -4 10 -10z m2483 -5 c-3 -9 -8 -14 -10 -11 -3 3 -2 9 2 15 9 16 15
13 8 -4z m-2739 -50 c-33 -41 -54 -56 -54 -38 0 6 80 83 87 83 3 0 -12 -20
-33 -45z m1226 24 c0 -18 -2 -19 -15 -9 -15 12 -12 30 6 30 5 0 9 -10 9 -21z
m-220 -15 c0 -54 -58 -124 -103 -124 -36 0 -67 16 -67 36 0 12 8 14 39 9 44
-6 52 -1 91 63 29 48 40 52 40 16z m1670 -20 c-54 -54 -106 -82 -123 -65 -8 8
-5 11 12 11 20 0 22 4 17 24 -5 20 -1 27 23 39 23 11 28 12 25 2 -11 -28 18
-25 45 4 16 17 33 31 37 31 5 0 -12 -21 -36 -46z m-2537 25 c25 1 36 -2 32 -9
-3 -6 -11 -8 -16 -5 -5 4 -9 1 -9 -6 0 -6 -8 -9 -20 -6 -11 3 -18 2 -16 -2 6
-9 -14 -32 -56 -63 -20 -16 -39 -37 -43 -47 -4 -12 -12 -18 -21 -14 -21 8 -18
19 21 77 19 29 35 58 35 64 0 14 21 22 40 15 8 -4 32 -5 53 -4z m1771 2 c8
-12 -19 -21 -62 -20 l-37 1 35 13 c43 16 57 18 64 6z m-774 -32 c0 -23 -16
-25 -24 -3 -10 25 -7 34 9 28 8 -4 15 -15 15 -25z m1390 21 c0 -5 -5 -10 -11
-10 -5 0 -7 5 -4 10 3 6 8 10 11 10 2 0 4 -4 4 -10z m-988 -85 c-5 -29 -21
-31 -63 -9 -23 11 -29 20 -24 32 4 9 10 27 12 39 5 22 6 22 43 -8 29 -23 36
-35 32 -54z m-918 69 c11 -4 16 -19 16 -46 l0 -39 -26 20 c-23 18 -41 21 -140
21 -64 0 -114 4 -114 9 0 21 225 50 264 35z m1946 -20 c0 -8 -4 -14 -10 -14
-5 0 -10 9 -10 21 0 11 5 17 10 14 6 -3 10 -13 10 -21z m-1808 2 c36 -27 73
-161 81 -292 l4 -71 -30 1 c-32 1 -33 2 -79 129 -6 15 -26 53 -46 85 -36 59
-53 142 -29 142 16 0 59 -29 75 -52 7 -10 18 -18 23 -18 6 0 -3 18 -20 39 -17
21 -31 42 -31 45 0 11 35 6 52 -8z m294 -13 c-10 -10 -19 5 -10 18 6 11 8 11
12 0 2 -7 1 -15 -2 -18z m2147 10 c-9 -24 -34 -42 -57 -43 -14 0 -9 8 20 29
21 16 40 30 41 30 1 1 -1 -7 -4 -16z m-789 -8 c-10 -8 -23 -14 -29 -14 -5 0
-1 6 9 14 11 8 24 15 30 15 5 0 1 -7 -10 -15z m677 -39 c-14 -25 -57 -53 -67
-44 -3 4 7 12 23 20 15 7 32 23 38 35 5 12 11 20 14 17 2 -2 -1 -15 -8 -28z
m455 7 c8 -31 -6 -57 -32 -61 -24 -4 -26 31 -4 66 19 29 28 28 36 -5z m129 17
c-3 -5 3 -10 14 -10 24 0 28 -15 6 -24 -9 -3 -12 -12 -8 -23 4 -13 -1 -11 -18
7 -13 14 -21 27 -16 28 4 2 7 10 7 18 0 8 5 14 11 14 5 0 7 -4 4 -10z m-1260
-16 c12 -5 4 -15 -37 -45 -59 -42 -94 -53 -63 -19 10 11 23 19 29 18 22 -3 46
15 46 33 0 21 1 22 25 13z m-787 -47 c37 -34 29 -48 -25 -41 -63 7 -79 16 -59
33 9 8 16 22 16 33 0 16 3 17 23 7 12 -6 32 -21 45 -32z m-618 18 c0 -8 -4
-15 -10 -15 -5 0 -10 7 -10 15 0 8 5 15 10 15 6 0 10 -7 10 -15z m1701 -28
c-5 -14 -15 -28 -22 -32 -12 -8 -12 -7 10 38 17 33 25 29 12 -6z m1010 11 c11
-21 11 -22 -4 -9 -10 7 -17 17 -17 22 0 15 9 10 21 -13z m-3304 -3 c45 -5 93
-24 93 -35 0 -7 -80 3 -117 15 -15 5 -23 3 -23 -4 0 -6 4 -11 9 -11 25 0 131
-116 131 -143 0 -6 -12 1 -27 15 -35 32 -61 46 -123 64 -49 15 -80 46 -80 83
0 13 8 21 23 24 22 4 37 3 114 -8z m2720 -38 c7 -43 -1 -80 -23 -101 -26 -27
-36 -18 -13 13 18 24 21 39 17 86 -5 60 9 62 19 2z m-147 12 c0 -17 -53 -69
-71 -69 -6 0 1 15 15 33 15 19 26 38 26 44 0 5 7 10 15 10 8 0 15 -8 15 -18z
m-1986 -14 c3 -8 1 -15 -3 -15 -5 0 -11 7 -15 15 -3 8 -1 15 3 15 5 0 11 -7
15 -15z m-104 -10 c0 -8 -4 -15 -10 -15 -5 0 -10 7 -10 15 0 8 5 15 10 15 6 0
10 -7 10 -15z m1295 -5 c3 -5 1 -10 -4 -10 -6 0 -11 5 -11 10 0 6 2 10 4 10 3
0 8 -4 11 -10z m22 -12 c-3 -8 -6 -5 -6 6 -1 11 2 17 5 13 3 -3 4 -12 1 -19z
m-4610 6 c-3 -3 -12 -4 -19 -1 -8 3 -5 6 6 6 11 1 17 -2 13 -5z m146 -1 c-7
-2 -19 -2 -25 0 -7 3 -2 5 12 5 14 0 19 -2 13 -5z m560 0 c-7 -2 -21 -2 -30 0
-10 3 -4 5 12 5 17 0 24 -2 18 -5z m1643 -8 c-7 -18 -2 -19 23 -4 14 10 29 7
74 -15 31 -14 59 -26 62 -26 3 0 23 -11 43 -25 44 -30 89 -32 142 -5 49 25 62
25 85 0 18 -19 18 -22 2 -38 -11 -10 -34 -17 -61 -17 -28 -1 -52 -9 -71 -23
-16 -13 -34 -21 -41 -18 -7 3 -31 10 -53 16 -30 8 -42 17 -47 35 -6 26 -20 33
-26 14 -4 -13 -63 13 -70 30 -2 6 -21 6 -48 1 -27 -5 -49 -5 -54 1 -6 6 -5 9
5 9 9 0 6 7 -10 19 l-23 18 27 21 c32 26 50 28 41 7z m1597 9 c13 -5 9 -20
-23 -86 -22 -44 -46 -91 -55 -104 -25 -38 -126 -84 -184 -84 -47 0 -53 -3
-106 -55 -49 -48 -59 -53 -80 -45 -16 6 -23 15 -19 24 10 27 72 66 103 66 17
0 31 5 31 10 0 6 12 15 28 22 90 37 174 83 184 101 6 12 19 30 29 40 11 10 19
27 19 38 0 27 31 79 46 79 7 0 19 -3 27 -6z m1652 -4 c-3 -5 -14 -10 -23 -9
-14 0 -13 2 3 9 27 11 27 11 20 0z m981 -16 c-4 -9 -9 -15 -11 -12 -3 3 -3 13
1 22 4 9 9 15 11 12 3 -3 3 -13 -1 -22z m-3656 7 c0 -5 -7 -14 -15 -21 -12
-10 -19 -10 -28 -1 -9 9 -9 14 3 21 19 12 40 13 40 1z m110 -140 c0 -145 -1
-151 -25 -178 -28 -32 -33 -17 -9 29 14 27 14 40 -2 148 -18 126 -16 150 16
150 19 0 20 -6 20 -149z m58 90 c10 -28 -18 -165 -38 -185 -10 -10 -12 209 -3
227 7 12 30 -11 41 -42z m758 14 c-7 -18 -26 -20 -26 -2 0 18 24 41 28 27 2
-6 1 -17 -2 -25z m1574 -6 c0 -11 -4 -19 -10 -19 -5 0 -10 6 -10 14 0 8 -3 23
-7 33 -6 16 -5 16 10 4 9 -7 17 -22 17 -32z m-263 9 c-3 -8 -6 -5 -6 6 -1 11
2 17 5 13 3 -3 4 -12 1 -19z m127 -42 c-3 -8 -12 -17 -21 -20 -11 -5 -13 -2
-9 10 3 8 6 30 6 47 l1 32 14 -27 c8 -15 12 -33 9 -42z m-754 39 c0 -2 -9 -9
-20 -15 -16 -9 -18 -8 -14 5 5 13 34 22 34 10z m35 -14 c3 -5 1 -12 -5 -16 -5
-3 -10 1 -10 9 0 18 6 21 15 7z m1000 -1 c3 -5 1 -10 -4 -10 -6 0 -11 5 -11
10 0 6 2 10 4 10 3 0 8 -4 11 -10z m-423 -32 c-8 -8 -9 -4 -5 13 4 13 8 18 11
10 2 -7 -1 -18 -6 -23z m-1712 12 c0 -5 -2 -10 -4 -10 -3 0 -8 5 -11 10 -3 6
-1 10 4 10 6 0 11 -4 11 -10z m-573 -35 c8 -22 -6 -33 -17 -15 -13 20 -12 30
0 30 6 0 13 -7 17 -15z m937 6 c9 -14 -4 -41 -20 -41 -8 0 -14 8 -14 18 0 29
22 43 34 23z m-1451 -8 c9 -9 -13 -34 -24 -27 -14 8 -11 34 4 34 8 0 17 -3 20
-7z m101 -40 c-26 -19 -34 -16 -34 12 0 23 2 24 26 13 24 -11 25 -13 8 -25z
m3475 -20 c3 -2 -4 -9 -14 -17 -13 -9 -16 -20 -11 -39 6 -24 4 -26 -24 -22
-16 2 -30 0 -30 -5 0 -13 -27 -1 -33 14 -3 8 4 28 15 47 17 28 21 31 30 16 5
-9 15 -17 23 -17 12 0 12 5 3 25 -6 14 -15 25 -20 25 -4 0 -8 5 -8 11 0 8 34
-11 69 -38z m-2529 27 c0 -5 -7 -10 -15 -10 -8 0 -15 5 -15 10 0 6 7 10 15 10
8 0 15 -4 15 -10z m-620 -19 c0 -12 -20 -25 -27 -18 -7 7 6 27 18 27 5 0 9 -4
9 -9z m-90 -21 c0 -21 -15 -27 -25 -10 -7 12 2 30 16 30 5 0 9 -9 9 -20z
m1390 -10 c0 -5 -4 -10 -10 -10 -5 0 -10 5 -10 10 0 6 5 10 10 10 6 0 10 -4
10 -10z m-1505 -11 c8 -12 -60 -119 -75 -119 -13 0 -13 6 0 28 5 9 14 36 20
60 8 31 16 42 30 42 10 0 22 -5 25 -11z m2001 -25 c26 -9 62 -14 80 -11 l32 5
-15 -29 c-8 -16 -13 -36 -10 -43 4 -9 -12 -22 -43 -36 -48 -23 -87 -24 -158
-4 -20 6 -34 -5 -90 -65 -57 -60 -76 -74 -127 -91 -58 -19 -175 -41 -175 -33
0 2 8 16 18 30 11 19 17 49 18 95 2 110 2 108 37 122 17 8 49 16 69 20 31 6
37 4 32 -8 -4 -10 2 -17 19 -21 17 -5 48 5 103 31 72 34 119 50 151 53 7 1 34
-6 59 -15z m307 -16 c-22 -22 -48 -35 -90 -44 -32 -7 -68 -16 -80 -20 -20 -5
-23 -3 -23 22 1 59 17 65 180 72 l45 2 -32 -32z m227 5 c0 -6 -11 -20 -24 -30
-22 -18 -33 -19 -123 -14 -26 1 -29 17 -9 40 18 20 156 23 156 4z m729 -33
c24 0 7 -22 -42 -53 -27 -18 -28 -18 -15 3 7 11 18 20 24 20 7 0 10 8 7 20 -3
11 -10 20 -15 20 -5 0 -6 5 -2 12 5 8 11 6 19 -5 7 -10 17 -17 24 -17z m46 1
c3 -5 1 -12 -5 -16 -5 -3 -10 1 -10 9 0 18 6 21 15 7z m-2745 -17 c0 -8 -4
-12 -10 -9 -5 3 -10 10 -10 16 0 5 5 9 10 9 6 0 10 -7 10 -16z m234 -28 c45
-28 86 -61 86 -70 0 -17 -54 -2 -82 22 -18 16 -50 39 -70 51 -21 12 -38 24
-38 26 0 11 68 -8 104 -29z m2404 27 c-10 -2 -26 -2 -35 0 -10 3 -2 5 17 5 19
0 27 -2 18 -5z m-383 -23 c-10 -11 -21 -18 -23 -15 -3 3 3 12 14 20 27 20 30
18 9 -5z m367 -47 c10 -9 18 -23 18 -32 -1 -12 -3 -11 -12 4 -6 11 -18 26 -26
33 -9 6 -12 12 -7 12 5 0 17 -7 27 -17z m-1676 -87 c-8 -52 -43 -96 -76 -97
-14 0 -104 3 -200 6 -165 6 -179 8 -248 37 -40 16 -87 44 -104 62 -31 30 -31
31 -9 34 12 2 37 -2 54 -8 18 -6 56 -18 86 -26 30 -8 77 -26 105 -41 44 -22
64 -26 154 -27 l103 -1 22 30 c12 17 42 49 67 72 41 39 45 41 48 21 2 -11 1
-40 -2 -62z m7947 63 c12 -7 25 -17 29 -23 14 -21 8 -66 -12 -86 -20 -20 -33
-20 -662 -19 -354 0 -651 4 -661 8 -47 18 -48 97 -3 120 31 15 1281 14 1309 0z
m-6273 -39 c0 -11 -2 -20 -4 -20 -2 0 -6 9 -9 20 -3 11 -1 20 4 20 5 0 9 -9 9
-20z m-2840 -26 c6 -14 21 -64 34 -110 23 -81 23 -84 4 -84 -10 0 -30 7 -43
16 -24 15 -25 21 -25 110 0 95 11 119 30 68z m265 6 c3 -5 2 -10 -4 -10 -5 0
-13 5 -16 10 -3 6 -2 10 4 10 5 0 13 -4 16 -10z m-570 -82 c28 -34 37 -72 27
-118 -9 -40 -35 -51 -51 -22 -14 26 -25 167 -16 189 7 17 8 16 13 -2 2 -11 15
-32 27 -47z m2120 43 c-5 -15 1 -24 24 -36 17 -8 31 -22 31 -29 0 -8 -32 -25
-75 -40 -41 -15 -102 -42 -134 -61 -43 -25 -71 -35 -102 -35 l-43 0 39 41 c65
66 175 141 263 178 2 0 1 -8 -3 -18z m-1268 -22 c9 -9 5 -22 -15 -52 -24 -37
-27 -39 -30 -18 -4 24 16 81 27 81 4 0 12 -5 18 -11z m-317 -9 c0 -5 -4 -10
-9 -10 -6 0 -13 5 -16 10 -3 6 1 10 9 10 9 0 16 -4 16 -10z m2828 -57 c13 -39
10 -40 -34 -12 -33 20 -34 27 -11 57 13 17 30 0 45 -45z m-2568 -7 c0 -35 -36
-67 -146 -129 -70 -39 -116 -58 -153 -63 -51 -7 -53 -6 -49 17 2 15 12 26 28
31 14 3 45 13 70 20 25 7 51 12 58 10 16 -4 139 84 159 114 20 30 33 31 33 0z
m1950 4 c0 -5 -4 -10 -10 -10 -5 0 -10 5 -10 10 0 6 5 10 10 10 6 0 10 -4 10
-10z m-2227 -7 c9 -9 -13 -34 -24 -27 -14 8 -11 34 4 34 8 0 17 -3 20 -7z
m2014 1 c-3 -3 -12 -4 -19 -1 -8 3 -5 6 6 6 11 1 17 -2 13 -5z m-2327 -30 c0
-8 -4 -14 -10 -14 -5 0 -10 9 -10 21 0 11 5 17 10 14 6 -3 10 -13 10 -21z
m-65 -34 c-3 -6 -10 -10 -16 -10 -10 0 -12 33 -2 44 9 9 26 -22 18 -34z m3171
31 c-10 -16 -56 -20 -56 -5 0 9 11 14 31 14 16 0 28 -4 25 -9z m-122 -26 c11
-8 44 -22 75 -31 31 -8 67 -25 79 -37 l24 -22 -29 -6 -28 -6 32 -8 c27 -6 34
-13 39 -42 10 -51 -13 -229 -36 -280 -10 -24 -22 -59 -26 -79 -3 -19 -10 -37
-16 -40 -5 -3 -6 -14 -3 -23 8 -27 -17 -41 -63 -37 -59 6 -64 12 -43 50 33 58
34 88 6 144 l-26 52 -32 -16 c-55 -29 -147 -94 -174 -125 -30 -34 -44 -35
-121 -13 -55 16 -93 36 -119 60 -7 7 -28 22 -47 33 -37 23 -49 43 -40 66 4 10
15 12 35 8 30 -6 35 2 31 50 -1 9 5 17 13 17 8 0 15 -4 15 -10 0 -25 190 -90
262 -90 53 0 68 11 124 91 36 52 44 137 19 202 -16 41 -16 47 -1 76 19 35 23
36 50 16z m6476 -560 c0 -504 -2 -575 -15 -575 -18 0 -55 35 -55 53 -3 343 1
1049 6 1062 6 15 35 33 57 34 4 1 7 -258 7 -574z m-9362 540 c17 -14 38 -25
48 -25 24 0 74 -49 74 -72 0 -17 -2 -17 -27 -5 -16 8 -44 17 -63 21 -19 3 -44
16 -57 28 -20 18 -26 20 -48 10 -14 -7 -37 -12 -51 -12 -13 0 -32 -4 -42 -9
-128 -65 -183 -77 -202 -42 -7 14 -7 28 0 47 10 24 12 25 23 10 16 -21 58 -17
122 13 113 54 131 61 162 61 19 0 43 -10 61 -25z m-230 -3 c2 -7 -3 -12 -12
-12 -9 0 -16 7 -16 16 0 17 22 14 28 -4z m2264 -52 c-4 -30 -15 -39 -27 -21
-7 12 15 62 25 56 4 -2 5 -18 2 -35z m-358 -19 c88 -170 88 -332 0 -499 l-36
-67 56 60 c103 112 151 273 119 405 -9 36 -22 77 -29 92 -19 37 -19 38 24 38
99 0 218 -67 275 -154 46 -70 60 -116 59 -205 0 -108 -29 -181 -97 -247 -29
-28 -55 -61 -57 -75 l-3 -24 -460 0 -460 0 -3 24 c-2 13 -25 45 -51 70 -26 25
-60 73 -77 106 -26 54 -29 70 -29 160 0 91 3 105 29 155 16 30 38 64 50 75 57
54 78 68 132 90 57 24 68 25 301 25 l242 0 15 -29z m-1969 -141 c3 -5 1 -10
-4 -10 -6 0 -11 5 -11 10 0 6 2 10 4 10 3 0 8 -4 11 -10z m1082 -7 c-20 -2
-52 -2 -70 0 -17 2 0 4 38 4 39 0 53 -2 32 -4z m1458 -51 c6 -4 22 -21 36 -39
24 -29 26 -35 17 -80 -5 -26 -16 -70 -24 -97 -8 -26 -14 -55 -14 -63 0 -8 -6
-13 -12 -11 -17 6 -26 72 -27 196 -1 98 2 110 24 94z m-1646 -48 c-9 -11 -8
-14 6 -14 10 0 16 -3 12 -6 -13 -13 -57 6 -57 25 0 14 6 17 25 13 20 -3 23 -7
14 -18z m-564 6 c3 -6 -5 -10 -19 -10 -14 0 -28 5 -31 10 -3 6 5 10 19 10 14
0 28 -4 31 -10z m415 6 c0 -3 -4 -8 -10 -11 -5 -3 -10 -1 -10 4 0 6 5 11 10
11 6 0 10 -2 10 -4z m30 -36 c0 -5 -2 -10 -4 -10 -3 0 -8 5 -11 10 -3 6 -1 10
4 10 6 0 11 -4 11 -10z m-439 -24 c39 -8 46 -36 10 -36 -36 0 -62 9 -56 20 3
5 -3 6 -14 3 -10 -3 -22 1 -26 8 -5 8 -4 10 3 5 7 -4 12 -1 12 8 0 12 5 14 23
6 12 -5 34 -11 48 -14z m177 -10 c17 -4 34 -11 37 -16 10 -16 -23 -18 -50 -4
-19 10 -32 11 -38 5 -7 -7 -2 -14 14 -21 l24 -11 -25 6 c-14 2 -28 5 -32 5 -5
0 -8 16 -8 36 0 35 1 36 23 21 12 -8 37 -18 55 -21z m612 -90 c0 -61 -4 -87
-15 -96 -22 -18 -95 -14 -145 9 -25 11 -62 21 -82 21 -54 0 -88 16 -88 40 0
28 41 42 115 41 50 0 71 5 125 34 36 19 71 34 78 35 9 0 12 -23 12 -84z m2376
23 c19 -37 12 -99 -11 -99 -8 0 -15 6 -16 13 -6 127 -2 140 27 86z m-3170 4
c17 3 37 1 45 -5 9 -6 -11 -8 -65 -4 -43 2 -83 9 -89 15 -6 6 6 6 34 -1 24 -5
58 -7 75 -5z m-128 -75 c7 -7 12 -19 12 -27 0 -13 -2 -14 -9 -2 -5 8 -16 11
-25 8 -9 -4 -16 -2 -16 3 0 6 -11 10 -25 10 -14 0 -25 5 -25 10 0 14 74 12 88
-2z m411 -30 c26 -56 34 -65 105 -119 41 -30 54 -45 43 -47 -24 -5 -11 -22 17
-22 43 0 59 -22 61 -87 l2 -59 -71 -13 c-79 -14 -141 -42 -233 -107 -59 -40
-63 -42 -63 -21 -1 20 -2 20 -11 4 -5 -9 -8 -21 -5 -26 9 -13 -36 -48 -81 -64
-24 -8 -64 -12 -95 -10 -54 4 -148 39 -148 55 0 5 -10 12 -23 17 -14 5 -36 34
-55 69 l-32 59 34 36 c25 27 36 33 45 24 6 -6 11 -16 11 -23 0 -14 113 -44
164 -44 53 0 52 18 -1 25 -27 3 -68 16 -93 28 -57 28 -59 52 -8 130 20 32 44
79 53 105 34 96 36 97 112 96 59 -1 68 -3 71 -20 8 -39 24 -40 20 -1 -4 40 0
43 47 26 30 -11 62 -2 112 30 1 0 11 -18 22 -41z m2931 -38 c0 -5 -4 -10 -10
-10 -5 0 -10 5 -10 10 0 6 5 10 10 10 6 0 10 -4 10 -10z m-2584 -74 c11 -2 25
-5 30 -9 6 -3 34 -9 62 -13 30 -4 52 -12 52 -18 0 -12 -51 -5 -192 26 -73 17
-88 31 -23 22 28 -3 59 -7 71 -8z m2272 -48 c2 -10 -3 -32 -11 -50 -9 -18 -18
-46 -22 -63 -4 -16 -13 -43 -20 -60 -7 -16 -22 -59 -32 -94 -19 -61 -22 -66
-61 -80 -32 -11 -45 -12 -54 -3 -8 8 -8 15 1 26 7 8 10 24 6 35 -3 11 -2 28 4
38 5 10 19 63 32 118 12 55 26 108 31 117 8 16 76 38 108 34 8 0 16 -9 18 -18z
m-2341 6 c-3 -3 -12 -4 -19 -1 -8 3 -5 6 6 6 11 1 17 -2 13 -5z m33 -34 c0 -5
-2 -10 -4 -10 -3 0 -8 5 -11 10 -3 6 -1 10 4 10 6 0 11 -4 11 -10z m-1105 -10
c3 -5 1 -10 -4 -10 -6 0 -11 5 -11 10 0 6 2 10 4 10 3 0 8 -4 11 -10z m-39
-63 c-1 -17 -6 -23 -18 -19 -20 5 -20 5 -12 26 9 25 32 19 30 -7z m19 -35 c14
3 28 1 31 -4 11 -18 -7 -59 -31 -70 -14 -6 -25 -17 -25 -25 0 -7 -4 -13 -10
-13 -5 0 -10 9 -10 19 0 13 -8 21 -22 23 -13 2 -22 6 -21 11 2 4 6 25 9 46 6
39 7 40 30 24 13 -8 35 -13 49 -11z m1062 -34 c-3 -8 -6 -5 -6 6 -1 11 2 17 5
13 3 -3 4 -12 1 -19z m-667 -292 c0 -3 -4 -8 -10 -11 -5 -3 -10 -1 -10 4 0 6
5 11 10 11 6 0 10 -2 10 -4z m100 -56 c0 -5 -2 -10 -4 -10 -3 0 -8 5 -11 10
-3 6 -1 10 4 10 6 0 11 -4 11 -10z m2766 -77 c-3 -10 -8 -49 -11 -87 -3 -39
-7 -71 -9 -73 -1 -1 -18 8 -36 22 -22 16 -47 25 -72 25 -21 0 -38 4 -38 9 0
17 140 121 163 121 5 0 6 -8 3 -17z m-2536 -353 c0 -5 -4 -10 -10 -10 -5 0
-10 5 -10 10 0 6 5 10 10 10 6 0 10 -4 10 -10z m2895 -59 c6 -19 1 -39 -17
-78 -13 -26 -75 -53 -124 -53 l-35 0 6 53 c9 75 10 77 52 77 21 0 45 5 53 10
25 16 58 12 65 -9z m675 2 c0 -42 -22 -147 -34 -166 -8 -12 -17 -38 -21 -57
-4 -19 -11 -39 -15 -45 -4 -5 -10 -19 -13 -30 -3 -11 -17 -51 -31 -90 -32 -85
-55 -155 -86 -258 l-24 -79 -81 -41 c-69 -36 -89 -41 -147 -41 -37 -1 -71 4
-76 9 -15 17 25 340 47 383 4 10 13 39 20 66 13 51 57 116 80 116 9 0 11 -8 7
-25 -11 -41 21 -85 61 -85 26 0 36 6 48 30 8 16 15 44 15 62 0 44 25 124 48
153 27 34 78 75 99 80 10 2 34 10 53 19 45 20 50 20 50 -1z m-4168 -179 c13
-30 18 -57 14 -75 -5 -28 8 -42 17 -16 5 15 52 -76 83 -161 l22 -63 -26 -24
c-15 -14 -30 -25 -35 -25 -20 0 -162 -123 -272 -235 -120 -122 -120 -123 -175
-129 -134 -15 -260 -18 -260 -7 0 6 4 11 9 11 12 0 205 217 209 235 5 22 19
18 27 -7 l7 -23 7 25 c5 17 3 26 -5 28 -16 4 -6 32 11 32 14 0 60 75 135 224
40 79 73 128 123 182 38 41 73 74 79 74 5 0 18 -21 30 -46z m778 -709 c-12
-15 -68 -30 -77 -22 -7 8 70 46 80 40 4 -3 3 -11 -3 -18z"/>
<path d="M6252 4810 c0 -19 2 -27 5 -17 2 9 2 25 0 35 -3 9 -5 1 -5 -18z"/>
<path d="M12405 5061 c-3 -5 -1 -12 5 -16 5 -3 10 1 10 9 0 18 -6 21 -15 7z"/>
<path d="M8025 4890 c3 -5 10 -10 16 -10 5 0 9 5 9 10 0 6 -7 10 -16 10 -8 0
-12 -4 -9 -10z"/>
<path d="M11630 4864 c0 -8 5 -12 10 -9 6 3 10 10 10 16 0 5 -4 9 -10 9 -5 0
-10 -7 -10 -16z"/>
<path d="M11590 4861 c0 -6 5 -13 10 -16 6 -3 10 1 10 9 0 9 -4 16 -10 16 -5
0 -10 -4 -10 -9z"/>
<path d="M5711 4764 c0 -11 3 -14 6 -6 3 7 2 16 -1 19 -3 4 -6 -2 -5 -13z"/>
<path d="M5212 4710 c0 -14 2 -19 5 -12 2 6 2 18 0 25 -3 6 -5 1 -5 -13z"/>
<path d="M5173 4675 c0 -22 2 -30 4 -17 2 12 2 30 0 40 -3 9 -5 -1 -4 -23z"/>
<path d="M5211 4644 c0 -11 3 -14 6 -6 3 7 2 16 -1 19 -3 4 -6 -2 -5 -13z"/>
<path d="M3070 4950 c0 -3 5 -12 10 -20 9 -13 11 -13 20 0 15 22 12 29 -10 27
-11 -1 -20 -4 -20 -7z"/>
<path d="M7324 4700 c0 -74 1 -105 3 -67 2 37 2 97 0 135 -2 37 -3 6 -3 -68z"/>
<path d="M10645 4510 c-3 -5 1 -10 9 -10 9 0 16 5 16 10 0 6 -4 10 -9 10 -6 0
-13 -4 -16 -10z"/>
<path d="M10960 4355 c0 -8 7 -15 15 -15 8 0 15 7 15 15 0 8 -7 15 -15 15 -8
0 -15 -7 -15 -15z"/>
<path d="M11875 4300 c-3 -6 1 -7 9 -4 18 7 21 14 7 14 -6 0 -13 -4 -16 -10z"/>
<path d="M10109 3857 c-32 -16 -31 -42 1 -43 14 0 35 -6 47 -12 33 -18 60 -14
77 10 25 35 19 44 -9 14 -24 -26 -28 -27 -48 -13 -12 8 -27 24 -33 35 -9 18
-13 19 -35 9z"/>
<path d="M11925 3250 c3 -5 8 -10 11 -10 2 0 4 5 4 10 0 6 -5 10 -11 10 -5 0
-7 -4 -4 -10z"/>
<path d="M9094 2865 c-12 -9 -14 -14 -6 -15 7 0 20 7 28 15 20 19 4 20 -22 0z"/>
<path d="M9130 2849 c0 -5 5 -7 10 -4 6 3 10 8 10 11 0 2 -4 4 -10 4 -5 0 -10
-5 -10 -11z"/>
<path d="M9195 2850 c-7 -12 35 -31 50 -22 5 3 2 8 -5 10 -8 3 -20 9 -27 14
-7 5 -14 5 -18 -2z"/>
<path d="M8975 2830 c-3 -5 -16 -10 -27 -10 -20 0 -19 -1 6 -26 14 -15 26 -33
26 -40 0 -8 4 -14 10 -14 15 0 30 35 30 69 0 24 -4 31 -19 31 -11 0 -23 -4
-26 -10z"/>
<path d="M8700 2589 c0 -17 4 -28 10 -24 6 3 10 17 10 31 0 13 -4 24 -10 24
-5 0 -10 -14 -10 -31z"/>
<path d="M8690 2521 c0 -5 5 -13 10 -16 6 -3 10 -2 10 4 0 5 -4 13 -10 16 -5
3 -10 2 -10 -4z"/>
<path d="M8365 2650 c-3 -5 3 -10 15 -10 12 0 18 5 15 10 -3 6 -10 10 -15 10
-5 0 -12 -4 -15 -10z"/>
<path d="M12307 1382 c-15 -16 -29 -38 -31 -49 -2 -10 -11 -43 -20 -72 -16
-56 -10 -127 14 -156 14 -17 72 -20 99 -5 10 5 26 28 35 51 14 35 15 53 6 120
-6 44 -8 83 -5 88 6 11 -41 51 -59 51 -7 0 -24 -13 -39 -28z"/>
<path d="M8430 1489 c-45 -27 -60 -47 -60 -79 0 -38 28 -59 73 -57 20 1 37 5
37 9 0 4 16 22 35 39 38 35 45 68 18 91 -26 21 -64 20 -103 -3z"/>
<path d="M3615 5524 c-9 -9 -13 -19 -10 -22 3 -3 11 0 17 6 7 7 23 12 38 12
20 0 22 2 10 10 -22 14 -36 12 -55 -6z"/>
<path d="M6887 5520 c3 -11 11 -19 17 -17 17 6 13 31 -6 35 -12 2 -15 -2 -11
-18z"/>
<path d="M6728 5503 c18 -2 45 -2 60 0 15 2 0 4 -33 4 -33 0 -45 -2 -27 -4z"/>
<path d="M8352 5454 c-10 -12 -10 -14 2 -14 17 0 30 16 19 23 -5 3 -14 -1 -21
-9z"/>
<path d="M8813 5450 c-1 -15 4 -20 23 -20 28 0 31 8 7 26 -24 18 -28 17 -30
-6z"/>
<path d="M8701 5451 c-10 -6 -10 -10 -1 -16 13 -8 24 -1 19 14 -3 6 -10 7 -18
2z"/>
<path d="M8640 5440 c0 -5 9 -10 20 -10 11 0 20 5 20 10 0 6 -9 10 -20 10 -11
0 -20 -4 -20 -10z"/>
<path d="M8121 4043 c-1 -17 4 -35 10 -38 18 -12 20 2 5 36 l-14 34 -1 -32z"/>
<path d="M8229 3844 c-68 -64 -71 -65 -90 -48 -19 17 -19 15 -19 -145 l0 -163
48 92 c37 73 60 104 114 152 51 45 69 68 74 94 7 38 -16 84 -42 84 -8 0 -46
-30 -85 -66z"/>
</g>
</svg>
