<?xml version="1.0" standalone="no"?>
<!DOCTYPE svg PUBLIC "-//W3C//DTD SVG 20010904//EN"
 "http://www.w3.org/TR/2001/REC-SVG-20010904/DTD/svg10.dtd">
<svg version="1.0" xmlns="http://www.w3.org/2000/svg"
 width="3614.000000pt" height="1248.000000pt" viewBox="0 0 3614.000000 1248.000000"
 preserveAspectRatio="xMidYMid meet">

<g transform="translate(0.000000,1248.000000) scale(0.100000,-0.100000)"
fill="#000000" stroke="none">
<path d="M24816 12438 c-18 -30 -116 -672 -116 -763 0 -38 -4 -75 -8 -82 -5
-8 -57 -10 -197 -6 l-190 6 -15 46 -15 46 -161 3 -161 2 -11 -27 c-5 -16 -13
-36 -16 -45 -4 -14 -17 -18 -61 -18 l-55 0 0 48 c0 26 -4 52 -10 58 -5 5 -10
43 -12 84 l-3 75 -45 8 c-50 9 -439 2 -482 -9 -27 -6 -28 -8 -28 -80 0 -40 -4
-76 -10 -79 -5 -3 -10 -28 -10 -56 0 -37 4 -49 15 -49 9 0 15 -9 15 -25 l0
-25 -856 0 -857 0 -83 51 c-46 28 -89 58 -95 65 -6 8 -17 14 -24 14 -7 0 -40
18 -73 40 -59 39 -61 40 -151 40 -86 0 -91 1 -91 22 0 21 -1 21 -177 15 -98
-4 -295 -10 -439 -13 l-261 -7 -6 24 c-4 13 -7 52 -7 85 0 34 -3 76 -6 93 l-6
31 -73 0 c-62 0 -74 -3 -93 -23 -19 -21 -22 -34 -22 -120 l0 -97 -69 0 -70 0
6 -37 c3 -21 18 -85 33 -143 15 -58 35 -136 45 -175 9 -38 57 -192 106 -340
49 -149 89 -276 89 -284 0 -7 7 -27 15 -44 7 -18 29 -72 48 -122 125 -330 159
-411 200 -472 24 -36 34 -43 61 -43 28 0 36 5 46 30 12 29 15 30 76 30 57 0
64 -2 64 -20 0 -16 -7 -20 -34 -20 -26 0 -39 -7 -59 -33 l-25 -34 33 -59 c48
-82 46 -94 -10 -94 -27 0 -63 9 -87 21 -55 28 -122 29 -179 1 -37 -18 -63 -22
-142 -22 l-97 0 -20 -40 c-16 -31 -20 -59 -20 -135 l0 -96 -87 3 -86 3 -15 53
-15 52 -82 0 -83 0 -16 -40 c-9 -22 -16 -47 -16 -55 0 -12 -18 -15 -99 -15
l-100 0 -16 55 -16 55 -79 0 -79 0 -12 -42 c-6 -24 -13 -49 -15 -56 -3 -10
-31 -12 -116 -10 l-113 3 -8 53 -9 52 -693 0 c-650 0 -693 -1 -701 -17 -4 -10
-9 -89 -12 -175 l-4 -158 -39 0 -39 0 0 50 0 50 -4835 0 c-4291 0 -4835 2
-4835 15 0 8 7 15 15 15 13 0 15 25 15 163 l0 164 -77 16 c-43 9 -158 31 -255
49 -167 30 -178 33 -178 54 0 30 -15 34 -145 34 -80 0 -115 -4 -117 -12 -3 -9
-110 -2 -435 31 -330 33 -461 42 -562 39 l-132 -3 -25 -42 c-23 -41 -24 -47
-24 -252 l0 -211 -46 0 c-41 0 -52 5 -82 36 l-35 36 -105 -4 c-100 -3 -105 -5
-126 -31 -31 -38 -61 -126 -82 -240 l-18 -97 -301 0 c-221 0 -304 -3 -313 -12
-7 -7 -12 -35 -12 -64 0 -50 1 -52 31 -58 17 -3 67 -6 110 -6 l79 0 0 -125 0
-125 -110 0 -110 0 0 -48 c0 -84 -8 -82 337 -82 l300 0 13 -77 c16 -93 63
-224 95 -261 16 -19 35 -27 71 -31 47 -6 49 -8 49 -36 l0 -30 -1460 0 -1460 0
-130 35 c-122 32 -142 34 -319 38 l-190 4 -35 35 -36 35 -884 -1 c-980 -1
-897 4 -941 -66 -31 -50 -60 -212 -60 -336 0 -115 27 -285 54 -337 18 -35 69
-80 99 -87 12 -3 413 -4 890 -3 l869 3 22 28 22 27 152 0 c145 0 161 2 343 45
l191 45 1444 0 1444 0 0 -22 c1 -30 34 -104 53 -114 8 -5 19 -19 26 -31 17
-33 70 -43 224 -43 l137 0 0 -222 c-1 -159 -5 -240 -15 -283 -29 -118 -14
-310 28 -367 l21 -28 166 2 165 3 18 37 c28 58 35 244 13 351 -13 63 -16 122
-14 257 l3 175 123 3 c70 1 122 7 122 12 0 6 6 10 14 10 8 0 16 -17 20 -47 3
-25 17 -89 30 -142 13 -53 26 -108 30 -122 4 -18 23 -38 56 -59 46 -29 55 -32
117 -29 l68 4 57 -85 c51 -74 97 -154 221 -380 29 -53 29 -58 24 -151 l-5 -97
57 -56 57 -56 307 0 308 0 21 50 c28 67 55 66 78 -2 l15 -48 146 0 146 0 22
60 c18 50 26 60 45 60 19 0 27 -10 45 -60 l22 -60 143 0 144 0 22 61 c21 54
25 60 49 57 21 -2 30 -13 48 -58 l22 -55 138 -3 138 -3 21 58 c19 55 22 58 54
58 30 0 35 -4 41 -30 3 -16 11 -43 18 -58 l11 -28 137 3 137 3 20 58 c21 57
22 58 56 55 33 -3 36 -6 55 -60 l20 -58 136 0 136 0 18 60 c17 58 19 60 51 60
37 0 52 -17 75 -82 l13 -38 127 0 126 0 18 48 c25 66 33 73 73 70 33 -3 37 -6
55 -60 l19 -58 128 0 128 0 20 58 19 57 48 0 48 0 20 -58 19 -58 126 3 126 3
16 55 16 55 49 0 50 0 20 -58 20 -58 118 3 119 3 22 55 22 55 52 3 51 3 18
-60 18 -61 121 0 121 0 16 60 17 60 54 0 c61 0 68 -6 86 -72 l13 -48 117 0
117 0 18 60 18 60 59 0 c38 0 60 -4 62 -12 2 -7 10 -34 16 -60 l13 -48 112 0
112 0 20 58 19 57 65 3 65 3 17 -61 17 -60 110 0 110 0 17 60 17 61 69 -3 70
-3 17 -55 17 -55 109 0 109 0 15 58 14 57 71 0 71 0 14 -58 15 -57 106 -3 105
-3 13 50 c7 27 19 55 26 61 8 6 45 10 92 8 l78 -3 13 -45 c8 -25 15 -51 18
-57 3 -10 92 -13 402 -13 l399 0 55 53 c117 111 252 213 345 261 29 15 137 16
1227 16 l1195 0 328 -165 c180 -91 363 -184 407 -206 69 -36 83 -40 122 -34
24 3 46 10 49 16 4 5 14 9 24 9 17 0 19 -15 25 -167 3 -93 7 -258 8 -367 l2
-199 -93 -110 c-91 -107 -93 -110 -74 -128 12 -13 58 -26 143 -42 l125 -23 -2
-440 c-1 -280 2 -401 7 -334 4 58 8 252 9 432 l1 328 28 -5 c15 -3 62 -12 106
-20 43 -8 82 -12 86 -10 4 3 13 -2 20 -9 9 -11 7 -48 -9 -163 -12 -81 -28
-177 -36 -213 -15 -69 -39 -197 -50 -267 -8 -54 -7 -55 185 -83 80 -12 177
-28 215 -36 39 -8 126 -24 194 -34 l124 -19 94 44 c53 25 98 45 102 45 4 0 29
11 57 24 27 14 123 58 214 99 91 41 238 111 327 156 89 44 191 92 225 107 35
14 68 30 73 34 10 8 299 -41 310 -52 6 -6 5 -7 -215 -106 -85 -38 -189 -85
-230 -105 -41 -19 -113 -51 -160 -71 -47 -21 -112 -52 -145 -70 -33 -18 -105
-53 -160 -78 -55 -26 -148 -69 -208 -97 -59 -28 -138 -64 -177 -81 l-70 -31
-102 21 c-57 11 -184 32 -283 45 -99 14 -232 34 -295 44 -136 23 -144 19 -155
-62 -4 -28 -11 -58 -15 -67 -5 -8 -18 -67 -30 -130 -12 -63 -33 -164 -47 -225
-14 -60 -35 -166 -48 -235 -29 -155 -71 -369 -85 -435 -23 -104 -49 -241 -49
-255 -1 -8 3 -21 7 -27 7 -12 279 -60 689 -123 127 -19 146 -20 170 -7 16 8
57 30 93 49 36 19 115 61 175 92 61 32 115 61 120 65 6 5 60 34 120 66 61 32
126 67 145 78 101 59 253 143 310 173 36 19 72 39 80 44 8 5 130 71 270 146
248 133 410 230 425 254 4 6 11 35 16 63 4 29 24 142 43 252 62 348 65 376 72
577 l7 198 71 -7 c39 -3 103 -11 141 -18 39 -6 72 -8 73 -3 2 4 -8 29 -22 54
-14 26 -26 53 -26 60 0 12 56 14 328 14 208 0 332 4 338 10 11 11 1705 6 2042
-5 160 -5 172 -7 172 -25 0 -22 13 -26 110 -36 41 -3 85 -10 96 -15 12 -4 43
-41 69 -81 26 -40 55 -84 65 -98 9 -14 33 -54 52 -90 46 -84 199 -352 235
-410 65 -106 133 -223 133 -227 0 -7 81 -144 106 -178 12 -16 36 -57 54 -90
62 -116 213 -380 240 -420 15 -22 51 -83 80 -135 52 -92 111 -192 157 -268 34
-54 23 -133 -30 -232 l-40 -75 35 -105 35 -105 94 1 c104 0 137 9 372 100 76
30 143 54 148 54 6 0 29 8 52 19 23 10 80 33 127 51 47 17 99 38 115 45 55 25
158 65 167 65 5 0 111 40 236 89 125 49 286 112 357 139 367 142 521 209 561
244 l32 28 -43 113 c-65 170 -170 369 -230 433 -15 16 -41 50 -57 77 -16 26
-38 53 -47 60 -16 11 -575 701 -669 825 -23 31 -58 73 -76 92 -18 19 -119 144
-225 278 -152 193 -197 256 -217 310 -15 37 -35 86 -46 109 -16 34 -22 80 -30
223 -9 179 -9 181 16 263 14 45 28 98 32 117 5 28 36 66 149 180 78 80 157
166 175 193 l33 47 64 0 63 0 0 50 c0 48 1 49 33 54 29 5 194 16 485 33 l103
6 25 44 c43 72 63 194 75 453 6 129 12 236 13 236 0 1 50 4 110 8 l108 7 -2
-173 c-3 -210 -5 -196 22 -200 30 -4 36 -30 38 -168 1 -63 5 -141 9 -173 7
-54 11 -62 71 -122 l64 -65 581 -2 580 -3 1 -65 c0 -36 8 -94 19 -129 18 -62
18 -64 -3 -150 -12 -47 -24 -107 -27 -133 l-6 -46 73 -6 c40 -3 231 -13 423
-21 193 -8 387 -17 433 -21 l82 -6 0 -209 0 -209 160 0 160 0 0 199 c0 110 3
202 8 204 4 2 64 1 134 -2 101 -5 130 -10 140 -22 11 -14 96 -81 383 -303 28
-21 111 -83 185 -138 74 -55 140 -106 145 -112 9 -11 624 -473 652 -489 13 -8
293 -40 299 -35 2 3 4 82 5 177 1 222 7 210 -210 373 -90 68 -174 130 -186
138 -40 27 -120 134 -168 222 -26 47 -47 91 -47 97 0 15 23 14 62 -3 18 -7 51
-19 73 -26 51 -15 154 -66 231 -114 32 -21 137 -82 233 -136 l174 -99 116
-143 c64 -79 192 -237 285 -353 93 -115 182 -223 199 -240 17 -16 43 -48 59
-69 16 -22 52 -57 81 -78 29 -21 63 -48 77 -61 14 -12 88 -72 164 -134 132
-106 144 -118 213 -225 73 -113 100 -179 168 -420 21 -74 67 -138 99 -138 31
0 56 -25 56 -56 0 -43 45 -117 83 -137 31 -17 56 -18 268 -15 280 5 295 9 397
104 78 71 119 135 179 275 69 160 92 250 172 664 49 252 65 339 120 650 17 94
46 253 66 355 41 210 76 407 99 560 9 58 25 152 36 210 12 65 29 256 45 497
l25 392 -20 478 c-11 263 -25 600 -31 748 -10 259 -28 409 -61 525 -30 102
-145 236 -235 273 -42 17 -79 20 -316 24 -260 5 -269 4 -319 -17 -29 -12 -61
-34 -72 -48 -43 -54 -90 -150 -117 -237 l-27 -90 -3176 0 -3176 0 -28 43 c-26
42 -66 72 -94 72 -19 -1 -72 -50 -94 -88 l-19 -33 -151 2 c-82 1 -154 0 -160
-3 -5 -4 -65 -2 -134 4 l-125 11 -94 76 c-52 42 -112 89 -135 104 -23 16 -59
46 -81 67 -22 20 -75 64 -117 97 -43 33 -145 132 -228 220 l-150 161 -95 7
c-97 7 -175 0 -175 -16 0 -5 -7 -9 -15 -9 -8 0 -15 9 -15 20 0 11 7 20 15 20
8 0 15 6 15 13 0 8 11 23 24 36 19 18 25 36 31 104 8 93 9 131 2 167 -2 14 -5
28 -6 33 0 4 -132 7 -293 7 -279 0 -295 -1 -350 -22 -48 -19 -60 -28 -69 -55
-10 -32 -13 -33 -62 -33 l-52 0 -20 53 -20 52 -75 3 c-101 4 -186 -27 -207
-76 -13 -32 -16 -33 -61 -30 -47 3 -47 3 -64 53 l-16 50 -78 3 c-102 4 -178
-26 -195 -75 -10 -32 -12 -33 -69 -33 l-59 0 -28 53 -28 52 -278 3 -277 2 -49
-24 c-35 -18 -52 -34 -59 -56 -11 -30 -12 -30 -80 -30 l-69 0 -20 53 -20 52
-82 3 c-74 3 -88 0 -126 -23 -31 -18 -45 -33 -50 -55 -6 -29 -8 -30 -70 -30
l-63 0 -16 47 c-10 29 -16 80 -16 134 0 48 -4 91 -10 94 -6 3 -10 48 -10 100
0 52 4 97 10 100 6 3 10 33 10 66 0 92 7 99 93 99 l72 0 15 -48 15 -47 150 -3
c142 -3 151 -2 167 18 10 12 20 36 24 55 l6 33 281 7 c155 3 327 5 381 3 l100
-3 12 -50 c16 -62 43 -85 98 -85 35 0 44 5 63 33 49 73 77 210 92 452 23 348
5 822 -35 958 -9 31 -29 69 -43 83 -22 22 -32 25 -70 21 -29 -3 -51 -12 -62
-26 -10 -12 -21 -21 -27 -21 -5 0 -12 39 -16 88 -6 78 -24 198 -86 578 -11 67
-20 124 -20 128 0 3 -27 6 -60 6 -51 0 -62 -3 -74 -22z m-18096 -2937 c0 -11
-4 -23 -10 -26 -5 -3 -10 -15 -10 -26 0 -27 -25 -24 -38 6 -22 48 -16 65 23
65 28 0 35 -4 35 -19z m-1465 -386 c33 -26 33 -27 34 -108 l1 -82 -55 -43
c-49 -38 -59 -42 -91 -36 -33 6 -39 13 -65 70 -16 35 -29 70 -29 79 0 8 12 39
27 70 24 49 31 56 67 64 64 14 75 13 111 -14z m21126 -84 c39 -40 39 -80 -2
-120 -40 -40 -69 -39 -115 4 -32 30 -36 39 -30 67 14 75 94 101 147 49z m-168
-20 c16 -16 21 -226 7 -304 -25 -144 -132 -289 -290 -392 l-75 -49 -135 -7
c-74 -3 -582 -7 -1129 -8 l-994 -1 -29 -25 c-62 -52 -151 -45 -199 15 -17 21
-38 41 -45 44 -8 3 -71 12 -142 21 -237 28 -239 38 -9 45 144 4 162 7 165 23
3 16 -11 17 -188 17 l-190 0 -10 -26 c-9 -23 -15 -26 -40 -20 -26 5 -1968 14
-3987 19 -369 1 -674 5 -677 8 -4 3 9 35 29 70 19 35 39 74 45 87 5 13 21 46
34 75 13 29 50 111 81 182 32 72 61 135 65 140 4 6 13 28 20 50 7 22 15 44 17
48 7 12 7664 0 7676 -12z m493 -78 c9 -91 -2 -241 -26 -340 -46 -192 -173
-361 -369 -490 -86 -57 -263 -138 -285 -130 -6 3 -2 8 9 12 204 76 408 235
501 390 50 85 52 90 68 175 26 135 14 304 -28 404 -9 21 -16 40 -16 42 0 2 31
4 69 4 l69 0 8 -67z m-25238 -599 c4 -28 -18 -44 -102 -73 -69 -24 -82 -25
-382 -29 l-312 -3 -56 31 c-86 49 -75 72 44 93 14 2 201 4 415 3 387 -1 390
-1 393 -22z m-80 -500 c45 -18 92 -62 92 -84 0 -14 -18 -19 -100 -29 -127 -14
-721 -15 -772 0 -65 17 -45 49 56 89 90 36 110 38 409 39 230 1 284 -2 315
-15z m6572 -729 c17 -9 80 -82 149 -174 66 -88 143 -179 170 -202 28 -24 51
-50 51 -56 0 -10 -38 -13 -155 -13 l-155 0 0 -45 0 -45 -207 0 -208 0 -54 90
c-29 50 -78 138 -108 196 -55 105 -55 107 -49 170 11 103 -16 94 278 94 212 0
264 -3 288 -15z m21749 -385 l0 -270 -517 0 -517 0 -64 58 -63 57 -2 195 -1
195 175 16 c122 11 298 17 582 18 l407 1 0 -270z m5019 82 c11 -53 11 -73 0
-125 l-13 -62 -622 -3 -622 -2 -15 54 c-21 72 -19 107 9 194 4 10 134 12 627
10 l622 -3 14 -63z m-10916 -672 c13 -191 27 -458 30 -580 3 -122 0 -152 -48
-430 -8 -47 -14 -88 -14 -92 0 -11 38 -10 82 2 32 9 46 25 111 123 157 239
194 307 225 417 96 333 102 362 102 469 l0 103 43 -6 c23 -3 85 -8 137 -12 79
-6 100 -11 128 -32 25 -19 32 -32 32 -59 l0 -34 -82 3 c-78 3 -82 4 -88 28 -5
23 -11 25 -55 25 l-50 0 -8 -54 c-5 -29 -5 -79 0 -110 l8 -56 48 -3 c43 -3 48
-1 57 22 9 25 13 26 90 26 l80 0 0 -257 -1 -258 -27 -63 c-25 -56 -36 -68
-121 -132 -122 -91 -159 -133 -163 -191 l-3 -44 -817 -3 c-801 -2 -818 -2
-818 17 0 24 -68 84 -151 134 -228 137 -218 129 -282 229 -33 51 -63 95 -67
98 -4 3 -16 67 -27 142 l-21 137 35 157 c26 123 40 165 61 193 15 20 38 52 51
71 13 19 47 54 74 78 l51 42 696 -2 695 -3 7 -95z m-3442 -788 c0 -4 -16 -24
-36 -43 -20 -18 -43 -51 -51 -71 -8 -21 -21 -38 -28 -38 -15 0 -167 130 -173
148 -3 9 30 12 142 12 80 0 146 -4 146 -8z m1183 -179 c4 -3 -19 -34 -51 -67
-32 -34 -61 -68 -64 -76 -3 -11 -10 -12 -26 -5 -31 14 -152 136 -146 147 6 9
277 11 287 1z m-1928 -44 c61 -11 202 -37 315 -58 l205 -38 -2 -49 c-2 -27
-14 -131 -29 -232 -23 -163 -25 -206 -10 -191 5 5 50 311 61 412 7 58 7 59 33
52 41 -10 170 -32 232 -40 63 -7 278 -44 298 -50 9 -3 10 -9 2 -22 -15 -27
-69 -173 -63 -173 2 0 30 12 61 26 168 75 218 100 228 113 9 11 22 11 82 1 40
-7 72 -16 72 -20 0 -4 -69 -38 -152 -76 -84 -38 -209 -98 -278 -133 -69 -35
-159 -79 -200 -96 -41 -18 -128 -58 -192 -89 -64 -31 -142 -67 -173 -80 l-56
-25 -107 23 c-59 13 -136 27 -172 30 -62 7 -361 52 -408 62 -17 3 -21 10 -18
27 3 12 10 51 16 87 6 36 16 83 21 105 5 22 11 54 14 70 6 49 35 245 46 318
13 80 6 78 174 46z m1165 -209 c0 -5 -4 -10 -10 -10 -5 0 -10 5 -10 10 0 6 5
10 10 10 6 0 10 -4 10 -10z m142 -32 c-17 -8 -26 -8 -34 0 -9 9 -4 12 23 11
32 0 33 -1 11 -11z m678 -111 l85 -13 3 -90 c1 -50 -2 -131 -8 -180 -5 -49
-12 -114 -14 -144 -7 -99 -32 -260 -76 -500 -11 -58 -22 -122 -26 -143 -4 -26
-13 -41 -28 -47 -11 -4 -48 -26 -82 -48 -34 -22 -79 -51 -100 -63 -98 -55
-216 -120 -294 -161 -47 -25 -105 -57 -130 -70 -53 -30 -150 -82 -275 -148
-49 -26 -119 -65 -155 -85 -119 -69 -284 -161 -395 -220 -60 -33 -123 -67
-140 -77 -16 -9 -57 -32 -91 -49 l-61 -32 -159 31 c-87 17 -193 34 -234 38
-88 7 -420 60 -427 68 -3 3 7 67 22 143 40 201 41 208 64 328 25 133 88 439
130 630 17 77 36 165 41 195 19 109 25 125 46 124 33 -3 293 -44 429 -69 338
-61 345 -61 447 -12 42 20 105 48 140 63 35 14 106 46 158 71 52 25 111 52
130 60 19 9 90 42 157 75 68 32 125 58 128 58 2 0 64 29 137 64 73 35 194 91
268 125 74 34 149 68 165 76 37 17 40 17 145 2z"/>
<path d="M26276 9018 c-36 -51 -10 -108 48 -108 62 0 88 66 43 108 -30 29 -71
28 -91 0z"/>
<path d="M20134 8784 c-6 -3 -9 -15 -7 -28 6 -29 58 -82 67 -67 6 10 -30 51
-46 51 -17 0 -7 22 12 27 11 3 20 9 20 14 0 9 -27 11 -46 3z"/>
<path d="M20357 8783 c-15 -14 -5 -18 33 -15 22 2 40 8 40 13 0 10 -63 12 -73
2z"/>
<path d="M21707 8783 c-16 -15 -5 -55 20 -77 33 -28 26 -56 -14 -57 -15 0 -22
-3 -15 -6 7 -3 24 -2 37 1 35 9 36 66 3 81 -13 6 -23 17 -23 25 0 8 10 16 23
18 12 2 22 8 22 13 0 10 -43 12 -53 2z"/>
<path d="M21921 8773 c-14 -9 -42 -16 -70 -16 -41 1 -43 0 -21 -9 14 -6 41
-33 60 -59 33 -47 37 -49 75 -47 37 3 40 5 43 36 2 24 -1 32 -12 32 -18 0 -21
-16 -6 -25 16 -10 12 -23 -10 -30 -27 -9 -70 19 -70 46 0 29 29 69 51 69 10 0
21 5 24 10 10 16 -39 11 -64 -7z"/>
<path d="M22092 8778 c-19 -19 -14 -42 13 -68 31 -29 32 -46 3 -55 -20 -6 -21
-8 -5 -12 54 -14 65 42 17 86 -31 28 -31 41 2 41 10 0 18 5 18 10 0 14 -33 13
-48 -2z"/>
<path d="M22224 8775 c-4 -9 0 -24 10 -33 15 -15 16 -15 16 6 0 12 0 25 1 29
1 16 -21 14 -27 -2z"/>
<path d="M22490 8780 c0 -5 9 -10 20 -10 11 0 20 5 20 10 0 6 -9 10 -20 10
-11 0 -20 -4 -20 -10z"/>
<path d="M22570 8763 c0 -38 10 -73 21 -73 5 0 6 18 3 40 -6 37 -5 40 16 40
19 0 21 -5 19 -37 -3 -55 0 -83 9 -83 4 0 6 24 5 53 -1 28 -2 60 -3 70 0 13
-9 17 -35 17 -32 0 -35 -3 -35 -27z"/>
<path d="M22940 8780 c0 -5 7 -10 16 -10 8 0 12 5 9 10 -3 6 -10 10 -16 10 -5
0 -9 -4 -9 -10z"/>
<path d="M23215 8780 c-8 -12 -3 -100 5 -100 3 0 15 7 26 15 16 12 17 14 2 15
-32 0 -35 60 -2 60 8 0 14 5 14 10 0 13 -37 13 -45 0z"/>
<path d="M23600 8766 c0 -13 7 -26 15 -29 19 -8 24 3 14 31 -11 29 -29 28 -29
-2z"/>
<path d="M23682 8765 c0 -16 2 -22 5 -12 2 9 2 23 0 30 -3 6 -5 -1 -5 -18z"/>
<path d="M24096 8768 c9 -29 28 -42 32 -22 5 23 -6 44 -23 44 -12 0 -15 -6 -9
-22z"/>
<path d="M24415 8780 c-4 -6 7 -10 24 -10 17 0 31 5 31 10 0 6 -11 10 -24 10
-14 0 -28 -4 -31 -10z"/>
<path d="M24538 8765 c-3 -14 -2 -28 3 -31 11 -6 32 34 24 46 -11 17 -23 11
-27 -15z"/>
<path d="M20711 8772 c18 -3 29 -31 29 -74 0 -20 5 -28 18 -28 10 0 23 -5 29
-11 9 -9 10 -7 6 10 -3 11 -9 21 -14 21 -15 0 -10 47 6 60 25 20 18 25 -38 25
-28 1 -45 -1 -36 -3z"/>
<path d="M22298 8750 c6 -39 19 -39 18 0 -1 16 -6 30 -12 30 -6 0 -9 -13 -6
-30z"/>
<path d="M22362 8768 c6 -18 28 -21 28 -4 0 9 -7 16 -16 16 -9 0 -14 -5 -12
-12z"/>
<path d="M22440 8770 c0 -5 5 -10 10 -10 6 0 10 5 10 10 0 6 -4 10 -10 10 -5
0 -10 -4 -10 -10z"/>
<path d="M22763 8773 c9 -2 23 -2 30 0 6 3 -1 5 -18 5 -16 0 -22 -2 -12 -5z"/>
<path d="M23320 8709 l0 -72 47 7 c47 6 61 12 51 21 -3 3 -18 1 -33 -5 -38
-15 -49 -1 -48 60 0 28 -3 53 -8 56 -5 3 -9 -27 -9 -67z"/>
<path d="M23379 8775 c-7 -6 5 -73 15 -82 11 -12 19 7 8 19 -5 7 -12 26 -14
41 -1 16 -6 26 -9 22z"/>
<path d="M23436 8771 c-3 -5 1 -14 8 -20 16 -13 32 2 21 19 -8 12 -22 13 -29
1z"/>
<path d="M23510 8769 c0 -5 5 -7 10 -4 6 3 10 8 10 11 0 2 -4 4 -10 4 -5 0
-10 -5 -10 -11z"/>
<path d="M23760 8745 c-5 -63 2 -107 14 -94 2 2 0 33 -4 69 -6 55 -8 59 -10
25z"/>
<path d="M23901 8750 c0 -19 9 -51 20 -70 l20 -35 -5 30 c-2 17 -11 48 -20 70
l-15 40 0 -35z"/>
<path d="M23960 8760 c0 -11 2 -20 5 -20 2 0 9 9 15 20 9 16 8 20 -5 20 -8 0
-15 -9 -15 -20z"/>
<path d="M24030 8760 c0 -11 5 -20 10 -20 6 0 10 9 10 20 0 11 -4 20 -10 20
-5 0 -10 -9 -10 -20z"/>
<path d="M24280 8729 c0 -62 13 -89 45 -89 34 0 41 18 8 22 -27 3 -28 6 -31
61 -4 70 -22 76 -22 6z"/>
<path d="M24364 8764 c3 -9 6 -18 6 -20 0 -3 5 -2 10 1 16 10 12 35 -6 35 -11
0 -14 -5 -10 -16z"/>
<path d="M20241 8737 c27 -26 39 -25 39 4 0 15 -7 19 -32 19 l-31 0 24 -23z"/>
<path d="M20517 8753 c-7 -16 -2 -46 10 -50 7 -3 10 3 7 14 -4 14 3 22 23 30
l28 11 -32 1 c-17 1 -34 -2 -36 -6z"/>
<path d="M20622 8728 c2 -25 8 -34 26 -36 25 -4 30 13 7 22 -21 8 -19 21 8 34
21 10 20 11 -11 11 -32 1 -33 -1 -30 -31z"/>
<path d="M20900 8746 c0 -8 -3 -21 -6 -30 -4 -10 5 -20 31 -30 43 -18 45 -19
45 -8 0 5 -11 15 -25 22 -29 16 -32 35 -7 49 14 9 13 10 -10 11 -18 0 -28 -5
-28 -14z"/>
<path d="M21037 8753 c-4 -3 -7 -17 -7 -30 0 -16 8 -27 27 -34 l28 -10 -25
-20 -25 -20 24 3 c13 2 29 11 35 21 9 15 6 22 -19 42 -16 13 -27 26 -25 28 3
2 14 9 25 15 19 11 18 11 -6 12 -14 0 -29 -3 -32 -7z"/>
<path d="M21147 8753 c-13 -12 -7 -51 9 -57 29 -11 37 -6 20 13 -16 17 -15 19
6 34 l23 16 -26 0 c-14 1 -29 -2 -32 -6z"/>
<path d="M21249 8733 c-6 -16 -17 -35 -25 -44 -9 -10 -11 -20 -6 -23 5 -3 17
3 26 13 11 12 26 17 39 14 22 -4 22 -4 2 12 -16 13 -18 19 -7 35 10 17 10 20
-3 20 -9 0 -20 -12 -26 -27z"/>
<path d="M21476 8745 c-3 -9 1 -18 10 -22 11 -4 14 -14 10 -34 -3 -18 0 -32
10 -40 14 -11 15 -6 11 47 -3 42 -8 60 -19 62 -9 2 -18 -4 -22 -13z"/>
<path d="M21562 8743 c0 -10 -1 -25 -3 -33 -3 -9 4 -16 19 -18 12 -2 22 1 22
7 0 6 -4 11 -10 11 -17 0 -11 28 8 39 15 9 13 10 -10 11 -19 0 -27 -5 -26 -17z"/>
<path d="M23511 8734 c0 -12 -8 -24 -16 -28 -17 -6 -21 -56 -5 -56 6 0 10 9
10 19 0 11 5 21 11 23 6 2 9 17 6 33 -2 20 -5 23 -6 9z"/>
<path d="M24420 8730 c0 -5 5 -10 10 -10 6 0 10 5 10 10 0 6 -4 10 -10 10 -5
0 -10 -4 -10 -10z"/>
<path d="M24369 8702 c-3 -20 -2 -29 4 -23 5 5 7 19 5 32 -3 20 -5 19 -9 -9z"/>
<path d="M20321 8712 c-1 -8 7 -27 16 -43 16 -26 23 -30 58 -27 33 3 41 7 43
27 4 24 -13 50 -25 38 -4 -4 -2 -12 4 -18 14 -14 5 -39 -13 -39 -22 0 -65 31
-74 54 -5 12 -9 15 -9 8z"/>
<path d="M22465 8709 c-9 -13 12 -19 36 -11 23 9 23 9 -4 14 -15 3 -30 2 -32
-3z"/>
<path d="M23686 8704 c-4 -9 -4 -19 -1 -22 2 -3 7 3 11 12 4 9 4 19 1 22 -2 3
-7 -3 -11 -12z"/>
<path d="M20562 8689 c2 -19 -2 -25 -19 -27 -34 -5 -28 -22 7 -22 25 0 30 4
30 25 0 14 0 28 1 32 0 4 -5 9 -11 11 -7 3 -10 -5 -8 -19z"/>
<path d="M21436 8694 c-9 -23 -8 -24 14 -24 11 0 20 2 20 4 0 12 -13 36 -20
36 -4 0 -11 -7 -14 -16z"/>
<path d="M21828 8683 c-17 -34 -10 -44 12 -18 6 8 10 22 8 32 -3 14 -7 11 -20
-14z"/>
<path d="M24138 8692 c-6 -22 36 -72 49 -58 5 4 0 13 -9 20 -10 7 -21 23 -26
36 -9 23 -9 23 -14 2z"/>
<path d="M24460 8695 c7 -8 17 -15 22 -15 6 0 5 7 -2 15 -7 8 -17 15 -22 15
-6 0 -5 -7 2 -15z"/>
<path d="M24576 8694 c-4 -10 0 -24 9 -33 13 -14 15 -13 15 4 0 11 -4 26 -9
33 -6 11 -10 10 -15 -4z"/>
<path d="M20236 8685 c-3 -8 -1 -15 3 -15 5 0 11 7 15 15 3 8 1 15 -3 15 -5 0
-11 -7 -15 -15z"/>
<path d="M21366 8691 c-4 -7 -5 -15 -2 -18 9 -9 19 4 14 18 -4 11 -6 11 -12 0z"/>
<path d="M22200 8693 c0 -6 -3 -18 -6 -27 -3 -9 -2 -16 4 -16 15 0 24 32 12
44 -7 7 -10 7 -10 -1z"/>
<path d="M22750 8672 c0 -22 4 -32 12 -30 18 6 20 22 3 43 -14 19 -14 18 -15
-13z"/>
<path d="M22253 8682 c-8 -5 -3 -11 13 -19 22 -10 25 -9 22 4 -4 19 -18 26
-35 15z"/>
<path d="M23573 8669 c-2 -17 1 -18 12 -9 8 7 12 16 9 21 -9 16 -20 10 -21
-12z"/>
<path d="M24070 8674 c0 -17 22 -14 28 4 2 7 -3 12 -12 12 -9 0 -16 -7 -16
-16z"/>
<path d="M20675 8670 c-3 -5 -15 -10 -26 -10 -10 0 -19 -4 -19 -10 0 -13 12
-13 44 0 17 6 26 6 26 0 0 -6 5 -10 10 -10 17 0 11 19 -9 30 -13 7 -22 7 -26
0z"/>
<path d="M21593 8667 c-25 -11 -31 -27 -9 -27 14 0 42 28 35 34 -2 2 -14 -1
-26 -7z"/>
<path d="M22326 8665 c4 -8 10 -15 15 -15 5 0 9 7 9 15 0 8 -7 15 -15 15 -9 0
-12 -6 -9 -15z"/>
<path d="M22411 8664 c0 -11 3 -14 6 -6 3 7 2 16 -1 19 -3 4 -6 -2 -5 -13z"/>
<path d="M22576 8671 c-4 -7 -5 -15 -2 -18 9 -9 19 4 14 18 -4 11 -6 11 -12 0z"/>
<path d="M22930 8667 c0 -17 40 -33 62 -24 8 3 5 6 -6 6 -11 1 -28 8 -38 18
-17 15 -18 15 -18 0z"/>
<path d="M20175 8661 c-6 -5 -19 -11 -30 -14 -11 -3 -5 -5 14 -4 19 1 36 8 39
15 4 14 -10 16 -23 3z"/>
<path d="M21164 8655 c-18 -15 -18 -15 5 -13 14 2 26 9 29 16 5 17 -10 15 -34
-3z"/>
<path d="M21273 8663 c-20 -8 -15 -23 7 -23 11 0 20 7 20 15 0 15 -6 17 -27 8z"/>
<path d="M22470 8659 c0 -13 24 -21 52 -17 19 2 17 5 -14 15 -22 6 -38 7 -38
2z"/>
<path d="M23216 8663 c-14 -14 -4 -23 24 -23 17 0 30 5 30 12 0 6 -3 8 -6 5
-4 -3 -14 -2 -24 3 -10 5 -20 6 -24 3z"/>
<path d="M23665 8660 c-3 -5 1 -10 9 -10 9 0 16 5 16 10 0 6 -4 10 -9 10 -6 0
-13 -4 -16 -10z"/>
<path d="M24010 8660 c0 -5 5 -10 11 -10 5 0 7 5 4 10 -3 6 -8 10 -11 10 -2 0
-4 -4 -4 -10z"/>
<path d="M20905 8650 c-3 -5 3 -10 14 -10 11 0 23 5 26 10 3 6 -3 10 -14 10
-11 0 -23 -4 -26 -10z"/>
<path d="M20970 8650 c0 -5 7 -10 15 -10 8 0 15 5 15 10 0 6 -7 10 -15 10 -8
0 -15 -4 -15 -10z"/>
<path d="M21338 8653 c7 -3 16 -2 19 1 4 3 -2 6 -13 5 -11 0 -14 -3 -6 -6z"/>
<path d="M23055 8650 c3 -5 10 -10 16 -10 5 0 9 5 9 10 0 6 -7 10 -16 10 -8 0
-12 -4 -9 -10z"/>
<path d="M24410 8650 c0 -5 11 -10 24 -10 14 0 28 5 31 10 4 6 -7 10 -24 10
-17 0 -31 -4 -31 -10z"/>
<path d="M19861 4661 c-11 -7 -11 -10 0 -14 10 -4 9 -6 -3 -6 -22 -1 -23 -8
-3 -27 13 -14 17 -14 31 0 13 14 13 19 2 35 -9 13 -19 17 -27 12z"/>
<path d="M21570 4433 c16 -7 12 -21 -7 -26 -13 -3 -12 -5 5 -6 17 -1 23 4 20
16 -2 9 -9 18 -16 19 -7 1 -8 0 -2 -3z"/>
<path d="M20640 4252 c-41 -20 -100 -48 -130 -61 -30 -13 -93 -41 -140 -62
-237 -106 -268 -117 -309 -112 -46 6 -37 34 -81 -247 -17 -107 -35 -215 -40
-240 -5 -25 -32 -191 -60 -370 -28 -179 -52 -329 -53 -335 -1 -5 2 -12 8 -15
5 -3 29 117 57 290 26 162 68 421 93 575 59 362 49 327 88 320 24 -5 49 1 93
20 32 15 111 48 174 75 318 133 400 172 400 191 0 15 -23 9 -100 -29z"/>
<path d="M21530 3850 c-14 -11 -28 -20 -32 -20 -4 0 -40 -21 -80 -47 -99 -65
-83 -55 -353 -209 -132 -75 -271 -155 -310 -178 l-70 -41 35 -3 c19 -2 78 -2
130 0 90 3 98 5 153 41 31 20 60 37 62 37 3 0 49 26 103 57 53 31 117 67 142
80 25 13 83 47 129 76 70 44 85 58 96 91 13 38 30 136 23 136 -1 0 -14 -9 -28
-20z"/>
<path d="M20613 3308 c-6 -7 -18 -39 -27 -70 -9 -32 -19 -64 -22 -73 -10 -24
9 -18 88 29 40 25 92 54 115 66 23 11 47 28 53 36 11 12 2 14 -63 14 -41 0
-88 3 -104 6 -18 4 -33 1 -40 -8z"/>
<path d="M19163 4245 c0 -22 2 -30 4 -17 2 12 2 30 0 40 -3 9 -5 -1 -4 -23z"/>
<path d="M19153 4135 c0 -22 2 -30 4 -17 2 12 2 30 0 40 -3 9 -5 -1 -4 -23z"/>
<path d="M19135 4030 c-4 -23 -5 -43 -2 -46 2 -3 7 14 11 37 4 23 5 44 2 46
-2 2 -7 -14 -11 -37z"/>
<path d="M19122 3945 c0 -16 2 -22 5 -12 2 9 2 23 0 30 -3 6 -5 -1 -5 -18z"/>
<path d="M19106 3869 c-4 -23 -5 -44 -2 -46 2 -2 7 14 11 37 4 23 5 43 2 46
-2 3 -7 -14 -11 -37z"/>
<path d="M19085 3765 c-3 -26 -4 -49 -2 -51 3 -3 8 16 12 41 3 26 4 49 2 51
-3 3 -8 -16 -12 -41z"/>
<path d="M19027 3523 c-26 -98 -47 -184 -47 -192 0 -7 -38 -147 -84 -310 -47
-163 -94 -334 -105 -381 -11 -47 -45 -173 -77 -280 -31 -107 -63 -224 -72
-260 -25 -109 -66 -257 -171 -622 -28 -97 -51 -184 -51 -192 0 -9 -21 -87 -46
-173 -66 -225 -68 -238 -58 -274 8 -28 16 -33 64 -46 61 -15 354 -107 411
-128 20 -7 71 -21 115 -30 43 -9 117 -31 164 -50 84 -33 237 -84 560 -185 91
-29 213 -70 272 -91 59 -22 115 -39 124 -39 9 0 136 -41 283 -90 147 -50 278
-90 291 -90 14 0 45 -10 70 -21 25 -11 84 -31 133 -44 l87 -24 0 23 c0 12 25
116 56 232 31 115 71 272 91 349 19 77 61 244 95 370 33 127 74 284 90 350 16
66 57 224 90 350 33 127 73 284 90 350 16 66 56 224 89 351 32 127 59 240 59
251 0 12 27 133 60 269 59 250 82 364 71 364 -12 0 -270 -134 -330 -172 -36
-22 -159 -88 -275 -148 -481 -245 -670 -344 -691 -360 -9 -7 -64 -35 -449
-235 l-149 -77 -61 7 c-33 3 -115 18 -181 32 -66 13 -160 29 -210 34 -123 12
-535 78 -562 89 l-22 9 30 105 c16 59 43 154 59 214 17 59 33 118 35 132 3 23
44 172 95 350 30 102 90 330 94 355 2 11 7 39 11 63 15 83 -1 39 -48 -135z"/>
</g>
</svg>
